<mxfile host="app.diagrams.net" modified="2023-05-19T03:48:51.100Z" agent="Mozilla/5.0 (Macintosh; Intel Mac OS X 10.15; rv:109.0) Gecko/20100101 Firefox/113.0" etag="LsipgvnZJJg-K6eGM5JY" version="21.2.9" type="device">
  <diagram name="PÃ¡gina-1" id="SOaXed86TJ9woL5xJ1YU">
    <mxGraphModel dx="1026" dy="601" grid="1" gridSize="10" guides="1" tooltips="1" connect="1" arrows="1" fold="1" page="1" pageScale="1" pageWidth="827" pageHeight="1169" math="0" shadow="0">
      <root>
        <mxCell id="0" />
        <mxCell id="1" parent="0" />
        <mxCell id="4MF8Dx08B7OnVR2biEJO-2" value="" style="rounded=0;whiteSpace=wrap;html=1;" vertex="1" parent="1">
          <mxGeometry x="130" y="100" width="560" height="520" as="geometry" />
        </mxCell>
        <mxCell id="4MF8Dx08B7OnVR2biEJO-4" value="" style="endArrow=none;html=1;rounded=0;exitX=0;exitY=0.5;exitDx=0;exitDy=0;entryX=1;entryY=0.5;entryDx=0;entryDy=0;" edge="1" parent="1" source="4MF8Dx08B7OnVR2biEJO-2" target="4MF8Dx08B7OnVR2biEJO-2">
          <mxGeometry width="50" height="50" relative="1" as="geometry">
            <mxPoint x="400" y="420" as="sourcePoint" />
            <mxPoint x="450" y="370" as="targetPoint" />
          </mxGeometry>
        </mxCell>
        <mxCell id="4MF8Dx08B7OnVR2biEJO-5" value="" style="endArrow=none;html=1;rounded=0;entryX=0.5;entryY=0;entryDx=0;entryDy=0;exitX=0.5;exitY=1;exitDx=0;exitDy=0;" edge="1" parent="1" source="4MF8Dx08B7OnVR2biEJO-2" target="4MF8Dx08B7OnVR2biEJO-2">
          <mxGeometry width="50" height="50" relative="1" as="geometry">
            <mxPoint x="400" y="420" as="sourcePoint" />
            <mxPoint x="450" y="370" as="targetPoint" />
          </mxGeometry>
        </mxCell>
        <mxCell id="4MF8Dx08B7OnVR2biEJO-6" value="Listing 1 (Property 1)" style="text;html=1;strokeColor=none;fillColor=none;align=center;verticalAlign=middle;whiteSpace=wrap;rounded=0;" vertex="1" parent="1">
          <mxGeometry x="140" y="110" width="120" height="30" as="geometry" />
        </mxCell>
        <mxCell id="4MF8Dx08B7OnVR2biEJO-7" value="- Database Info" style="text;html=1;strokeColor=none;fillColor=none;align=center;verticalAlign=middle;whiteSpace=wrap;rounded=0;" vertex="1" parent="1">
          <mxGeometry x="140" y="140" width="110" height="30" as="geometry" />
        </mxCell>
        <mxCell id="4MF8Dx08B7OnVR2biEJO-8" value="- Unavailable date ranges (list)" style="text;html=1;strokeColor=none;fillColor=none;align=center;verticalAlign=middle;whiteSpace=wrap;rounded=0;" vertex="1" parent="1">
          <mxGeometry x="140" y="170" width="180" height="30" as="geometry" />
        </mxCell>
        <mxCell id="4MF8Dx08B7OnVR2biEJO-9" value="Listing 2 (Property 2)" style="text;html=1;strokeColor=none;fillColor=none;align=center;verticalAlign=middle;whiteSpace=wrap;rounded=0;" vertex="1" parent="1">
          <mxGeometry x="140" y="230" width="120" height="30" as="geometry" />
        </mxCell>
        <mxCell id="4MF8Dx08B7OnVR2biEJO-10" value="- Database Info" style="text;html=1;strokeColor=none;fillColor=none;align=center;verticalAlign=middle;whiteSpace=wrap;rounded=0;" vertex="1" parent="1">
          <mxGeometry x="140" y="260" width="110" height="30" as="geometry" />
        </mxCell>
        <mxCell id="4MF8Dx08B7OnVR2biEJO-11" value="- Unavailable date ranges (list)" style="text;html=1;strokeColor=none;fillColor=none;align=center;verticalAlign=middle;whiteSpace=wrap;rounded=0;" vertex="1" parent="1">
          <mxGeometry x="140" y="290" width="180" height="30" as="geometry" />
        </mxCell>
        <mxCell id="4MF8Dx08B7OnVR2biEJO-12" value="Listing 3 (Property 3)" style="text;html=1;strokeColor=none;fillColor=none;align=center;verticalAlign=middle;whiteSpace=wrap;rounded=0;" vertex="1" parent="1">
          <mxGeometry x="430" y="110" width="120" height="30" as="geometry" />
        </mxCell>
        <mxCell id="4MF8Dx08B7OnVR2biEJO-13" value="- Database Info" style="text;html=1;strokeColor=none;fillColor=none;align=center;verticalAlign=middle;whiteSpace=wrap;rounded=0;" vertex="1" parent="1">
          <mxGeometry x="430" y="140" width="110" height="30" as="geometry" />
        </mxCell>
        <mxCell id="4MF8Dx08B7OnVR2biEJO-14" value="- Unavailable date ranges (list)" style="text;html=1;strokeColor=none;fillColor=none;align=center;verticalAlign=middle;whiteSpace=wrap;rounded=0;" vertex="1" parent="1">
          <mxGeometry x="430" y="170" width="180" height="30" as="geometry" />
        </mxCell>
        <mxCell id="4MF8Dx08B7OnVR2biEJO-15" value="Listing 4 (Property 4)" style="text;html=1;strokeColor=none;fillColor=none;align=center;verticalAlign=middle;whiteSpace=wrap;rounded=0;" vertex="1" parent="1">
          <mxGeometry x="140" y="370" width="120" height="30" as="geometry" />
        </mxCell>
        <mxCell id="4MF8Dx08B7OnVR2biEJO-16" value="- Database Info" style="text;html=1;strokeColor=none;fillColor=none;align=center;verticalAlign=middle;whiteSpace=wrap;rounded=0;" vertex="1" parent="1">
          <mxGeometry x="140" y="400" width="110" height="30" as="geometry" />
        </mxCell>
        <mxCell id="4MF8Dx08B7OnVR2biEJO-23" style="edgeStyle=orthogonalEdgeStyle;rounded=0;orthogonalLoop=1;jettySize=auto;html=1;entryX=0;entryY=0.5;entryDx=0;entryDy=0;strokeWidth=2;exitX=0;exitY=0.25;exitDx=0;exitDy=0;" edge="1" parent="1" source="4MF8Dx08B7OnVR2biEJO-16" target="4MF8Dx08B7OnVR2biEJO-21">
          <mxGeometry relative="1" as="geometry">
            <mxPoint x="90" y="410" as="sourcePoint" />
            <Array as="points">
              <mxPoint x="110" y="408" />
              <mxPoint x="110" y="769" />
            </Array>
          </mxGeometry>
        </mxCell>
        <mxCell id="4MF8Dx08B7OnVR2biEJO-17" value="- Unavailable date ranges (list)" style="text;html=1;strokeColor=none;fillColor=none;align=center;verticalAlign=middle;whiteSpace=wrap;rounded=0;" vertex="1" parent="1">
          <mxGeometry x="140" y="430" width="180" height="30" as="geometry" />
        </mxCell>
        <mxCell id="4MF8Dx08B7OnVR2biEJO-18" value="Listing 5 (Property 5)" style="text;html=1;strokeColor=none;fillColor=none;align=center;verticalAlign=middle;whiteSpace=wrap;rounded=0;" vertex="1" parent="1">
          <mxGeometry x="430" y="370" width="120" height="30" as="geometry" />
        </mxCell>
        <mxCell id="4MF8Dx08B7OnVR2biEJO-19" value="- Database Info" style="text;html=1;strokeColor=none;fillColor=none;align=center;verticalAlign=middle;whiteSpace=wrap;rounded=0;" vertex="1" parent="1">
          <mxGeometry x="430" y="400" width="110" height="30" as="geometry" />
        </mxCell>
        <mxCell id="4MF8Dx08B7OnVR2biEJO-20" value="- Unavailable date ranges (list)" style="text;html=1;strokeColor=none;fillColor=none;align=center;verticalAlign=middle;whiteSpace=wrap;rounded=0;" vertex="1" parent="1">
          <mxGeometry x="430" y="430" width="180" height="30" as="geometry" />
        </mxCell>
        <mxCell id="4MF8Dx08B7OnVR2biEJO-21" value="" style="shape=image;verticalLabelPosition=bottom;labelBackgroundColor=default;verticalAlign=top;aspect=fixed;imageAspect=0;image=data:image/png,iVBORw0KGgoAAAANSUhEUgAABRIAAAKQCAYAAADjfobvAAAMPWlDQ1BJQ0MgUHJvZmlsZQAASImVVwdYU8kWnltSIbQAAlJCb4JIDSAlhBZ6bzZCEiCUGANBxY4uKrh2sYANXRVRsNLsiJ1FsffFgoqyLhbsypsU0HVf+d5839z57z9n/nPm3Ll37gCgfpwrFuehGgDkiwolcSEBjJTUNAbpKcCBMdAGZGDH5RWIWTExEQCWwfbv5d11gMjaKw4yrX/2/9eiyRcU8ABAYiDO4Bfw8iE+AABexRNLCgEgynjzyYViGYYVaEtggBAvkOEsBa6S4QwF3iO3SYhjQ9wGAFmVy5VkAaB2CfKMIl4W1FDrg9hJxBeKAFBnQOybnz+RD3E6xDbQRgyxTJ+Z8YNO1t80M4Y0udysIayYi7yQA4UF4jzu1P8zHf+75OdJB31YwaqaLQmNk80Z5u1m7sRwGVaFuFeUERUNsRbEH4R8uT3EKDVbGpqosEcNeQVsmDOgC7ETnxsYDrEhxMGivKgIJZ+RKQzmQAxXCDpFWMhJgFgP4gWCgqB4pc0mycQ4pS+0IVPCZin5s1yJ3K/M131pbiJLqf86W8BR6mNqxdkJyRBTIbYoEiZFQawGsWNBbny40mZ0cTY7atBGIo2TxW8BcZxAFBKg0MeKMiXBcUr7svyCwflim7KFnCgl3leYnRCqyA/WxuPK44dzwS4JRKzEQR1BQUrE4Fz4gsAgxdyxZwJRYrxS54O4MCBOMRanivNilPa4mSAvRMabQexaUBSvHIsnFcIFqdDHM8WFMQmKOPHiHG5YjCIefCmIAGwQCBhACmsGmAhygLCjt7EX3il6ggEXSEAWEAAHJTM4IlneI4LXeFAM/oRIAAqGxgXIewWgCPJfh1jF1QFkynuL5CNywROI80E4yIP3Uvko0ZC3JPAYMsJ/eOfCyoPx5sEq6//3/CD7nWFBJkLJSAc9MtQHLYlBxEBiKDGYaIsb4L64Nx4Br/6wOuNM3HNwHt/tCU8InYSHhGuELsKtCcISyU9RRoIuqB+szEXGj7nAraCmGx6A+0B1qIzr4gbAAXeFfli4H/TsBlm2Mm5ZVhg/af9tBj88DaUdxYmCUoZR/Ck2P49Us1NzG1KR5frH/ChizRjKN3uo52f/7B+yz4dt+M+W2AJsP3YGO4Gdww5jjYCBHcOasHbsiAwPra7H8tU16C1OHk8u1BH+w9/gk5VlssCp1qnH6Yuir1AwRfaNBuyJ4qkSYVZ2IYMFdwQBgyPiOY5gODs5uwAg218Un683sfJ9A9Ft/87N/QMAn2MDAwOHvnNhxwDY6wFf/+bvnA0Tbh0qAJxt5kklRQoOl10I8CuhDt80fbh/mQMbOB9n4A68gT8IAmEgGiSAVDAeRp8N17kETAbTwRxQCsrBUrAKrAMbwRawA+wG+0AjOAxOgNPgArgEroE7cPV0gxegD7wDnxEEISE0hI7oIyaIJWKPOCNMxBcJQiKQOCQVSUeyEBEiRaYjc5FyZDmyDtmM1CB7kWbkBHIO6URuIQ+QHuQ18gnFUFVUGzVCrdCRKBNloeFoAjoOzUInocXoPHQxugatRnehDegJ9AJ6De1CX6D9GMBUMF3MFHPAmBgbi8bSsExMgs3EyrAKrBqrw1rgc76CdWG92EeciNNxBu4AV3Aonojz8En4THwRvg7fgTfgbfgV/AHeh38j0AiGBHuCF4FDSCFkESYTSgkVhG2Eg4RT8F3qJrwjEom6RGuiB3wXU4k5xGnERcT1xHricWIn8RGxn0Qi6ZPsST6kaBKXVEgqJa0l7SIdI10mdZM+kFXIJmRncjA5jSwil5AryDvJR8mXyU/JnykaFEuKFyWawqdMpSyhbKW0UC5SuimfqZpUa6oPNYGaQ51DXUOto56i3qW+UVFRMVPxVIlVEarMVlmjskflrMoDlY+qWqp2qmzVsapS1cWq21WPq95SfUOj0axo/rQ0WiFtMa2GdpJ2n/ZBja7mqMZR46vNUqtUa1C7rPZSnaJuqc5SH69erF6hvl/9onqvBkXDSoOtwdWYqVGp0axxQ6Nfk645SjNaM19zkeZOzXOaz7RIWlZaQVp8rXlaW7ROaj2iY3RzOpvOo8+lb6WfondrE7WttTnaOdrl2ru1O7T7dLR0XHWSdKboVOoc0enSxXStdDm6ebpLdPfpXtf9NMxoGGuYYNjCYXXDLg97rzdcz19PoFemV693Te+TPkM/SD9Xf5l+o/49A9zAziDWYLLBBoNTBr3DtYd7D+cNLxu+b/htQ9TQzjDOcJrhFsN2w34jY6MQI7HRWqOTRr3Gusb+xjnGK42PGveY0E18TYQmK02OmTxn6DBYjDzGGkYbo8/U0DTUVGq62bTD9LOZtVmiWYlZvdk9c6o50zzTfKV5q3mfhYlFpMV0i1qL25YUS6ZltuVqyzOW762srZKt5ls1Wj2z1rPmWBdb11rftaHZ+NlMsqm2uWpLtGXa5tqut71kh9q52WXbVdpdtEft3e2F9uvtO0cQRniOEI2oHnHDQdWB5VDkUOvwwFHXMcKxxLHR8eVIi5FpI5eNPDPym5ObU57TVqc7o7RGhY0qGdUy6rWznTPPudL5qgvNJdhllkuTyytXe1eB6wbXm250t0i3+W6tbl/dPdwl7nXuPR4WHukeVR43mNrMGOYi5llPgmeA5yzPw54fvdy9Cr32ef3l7eCd673T+9lo69GC0VtHP/Ix8+H6bPbp8mX4pvtu8u3yM/Xj+lX7PfQ39+f7b/N/yrJl5bB2sV4GOAVIAg4GvGd7sWewjwdigSGBZYEdQVpBiUHrgu4HmwVnBdcG94W4hUwLOR5KCA0PXRZ6g2PE4XFqOH1hHmEzwtrCVcPjw9eFP4ywi5BEtESikWGRKyLvRllGiaIao0E0J3pF9L0Y65hJMYdiibExsZWxT+JGxU2POxNPj58QvzP+XUJAwpKEO4k2idLE1iT1pLFJNUnvkwOTlyd3pYxMmZFyIdUgVZjalEZKS0rbltY/JmjMqjHdY93Glo69Ps563JRx58YbjM8bf2SC+gTuhP3phPTk9J3pX7jR3GpufwYnoyqjj8fmrea94PvzV/J7BD6C5YKnmT6ZyzOfZflkrcjqyfbLrsjuFbKF64SvckJzNua8z43O3Z47kJecV59Pzk/PbxZpiXJFbRONJ06Z2Cm2F5eKuyZ5TVo1qU8SLtlWgBSMK2gq1IY/8u1SG+kv0gdFvkWVRR8mJ03eP0VzimhK+1S7qQunPi0OLv5tGj6NN611uun0OdMfzGDN2DwTmZkxs3WW+ax5s7pnh8zeMYc6J3fO7yVOJctL3s5Nntsyz2je7HmPfgn5pbZUrVRSemO+9/yNC/AFwgUdC10Wrl34rYxfdr7cqbyi/Msi3qLzv476dc2vA4szF3cscV+yYSlxqWjp9WV+y3Ys11xevPzRisgVDSsZK8tWvl01YdW5CteKjaupq6Wru9ZErGlaa7F26dov67LXXasMqKyvMqxaWPV+PX/95Q3+G+o2Gm0s3/hpk3DTzc0hmxuqraorthC3FG15sjVp65nfmL/VbDPYVr7t63bR9q4dcTvaajxqanYa7lxSi9ZKa3t2jd11aXfg7qY6h7rN9br15XvAHume53vT917fF76vdT9zf90BywNVB+kHyxqQhqkNfY3ZjV1NqU2dzWHNrS3eLQcPOR7aftj0cOURnSNLjlKPzjs6cKz4WP9x8fHeE1knHrVOaL1zMuXk1bbYto5T4afOng4+ffIM68yxsz5nD5/zOtd8nnm+8YL7hYZ2t/aDv7v9frDDvaPhosfFpkuel1o6R3cevex3+cSVwCunr3KuXrgWda3zeuL1mzfG3ui6yb/57FberVe3i25/vjP7LuFu2T2NexX3De9X/2H7R32Xe9eRB4EP2h/GP7zziPfoxeOCx1+65z2hPal4avK05pnzs8M9wT2Xno953v1C/OJzb+mfmn9WvbR5eeAv/7/a+1L6ul9JXg28XvRG/832t65vW/tj+u+/y3/3+X3ZB/0POz4yP575lPzp6efJX0hf1ny1/dryLfzb3YH8gQExV8KV/wpgsKKZmQC83g4ALRUAOjyfUccozn/ygijOrHIE/hNWnBHlxR2AOvj/HtsL/25uALBnKzx+QX31sQDE0ABI8ASoi8tQHTyryc+VskKE54BNUV8z8jPAvymKM+cPcf/cApmqK/i5/RfMYnxweJEBzwAAAIplWElmTU0AKgAAAAgABAEaAAUAAAABAAAAPgEbAAUAAAABAAAARgEoAAMAAAABAAIAAIdpAAQAAAABAAAATgAAAAAAAACQAAAAAQAAAJAAAAABAAOShgAHAAAAEgAAAHigAgAEAAAAAQAABRKgAwAEAAAAAQAAApAAAAAAQVNDSUkAAABTY3JlZW5zaG90qCRBCQAAAAlwSFlzAAAWJQAAFiUBSVIk8AAAAddpVFh0WE1MOmNvbS5hZG9iZS54bXAAAAAAADx4OnhtcG1ldGEgeG1sbnM6eD0iYWRvYmU6bnM6bWV0YS8iIHg6eG1wdGs9IlhNUCBDb3JlIDYuMC4wIj4KICAgPHJkZjpSREYgeG1sbnM6cmRmPSJodHRwOi8vd3d3LnczLm9yZy8xOTk5LzAyLzIyLXJkZi1zeW50YXgtbnMjIj4KICAgICAgPHJkZjpEZXNjcmlwdGlvbiByZGY6YWJvdXQ9IiIKICAgICAgICAgICAgeG1sbnM6ZXhpZj0iaHR0cDovL25zLmFkb2JlLmNvbS9leGlmLzEuMC8iPgogICAgICAgICA8ZXhpZjpQaXhlbFlEaW1lbnNpb24+NjU2PC9leGlmOlBpeGVsWURpbWVuc2lvbj4KICAgICAgICAgPGV4aWY6UGl4ZWxYRGltZW5zaW9uPjEyOTg8L2V4aWY6UGl4ZWxYRGltZW5zaW9uPgogICAgICAgICA8ZXhpZjpVc2VyQ29tbWVudD5TY3JlZW5zaG90PC9leGlmOlVzZXJDb21tZW50PgogICAgICA8L3JkZjpEZXNjcmlwdGlvbj4KICAgPC9yZGY6UkRGPgo8L3g6eG1wbWV0YT4KlPcRwAAAABxpRE9UAAAAAgAAAAAAAAFIAAAAKAAAAUgAAAFIAAC1jUzlhPIAAEAASURBVHgB7J0J3DZT+cePQtZsryVFZC27l+xb2VN/a6REKiJKISWyln1PWV6yr9kpsoZQyZKdksoWWbOlxd/35BrXfZ651zn36nd9Ps8z98ycOXPme85sv7mucyaaffbZ3wgyERABERABERABERABERABERABERABERABERABEWhAYCIJiQ3oaJUIiIAIiIAIiIAIiIAIiIAIiIAIiIAIiIAIiEAkICFRDUEEREAEREAEREAEREAEREAEREAEREAEREAERKApAQmJTREpgQiIgAiIgAiIgAiIgAiIgAiIgAiIgAiIgAiIgIREtQEREAEREAEREAEREAEREAEREAEREAEREAEREIGmBCQkNkWkBCIgAiIgAiIgAiIgAiIgAiIgAiIgAiIgAiIgAhIS1QZEQAREQAREQAREQAREQAREQAREQAREQAREQASaEpCQ2BSREoiACIiACIiACIiACIiACIiACIiACIiACIiACEhIVBsQAREQAREQAREQAREQAREQAREQAREQAREQARFoSkBCYlNESiACIiACIiACIiACIiACIiACIiACIiACIiACIiAhUW1ABERABERABERABERABERABERABERABERABESgKQEJiU0RKYEIiIAIiIAIiIAIiIAIiIAIiIAIiIAIiIAIiICERLUBERABERABERABERABERABERABERABERABERCBpgQkJDZFpAQiIAIiIAIiIAIiIAIiIAIiIAIiIAIiIAIiIAISEtUGREAEREAEREAEREAEREAEREAEREAEREAEREAEmhKQkNgUkRKIgAiIgAiIgAiIgAiIgAiIgAiIgAiIgAiIgAhISFQbEAEREAEREAEREAEREAEREAEREAEREAEREAERaEpAQmJTREogAiIgAiIgAiIgAiIgAiIgAiIgAiIgAiIgAiIgIVFtQAREQAREQAREQAREQAREQAREQAREQAREQAREoCkBCYlNESmBCIiACIiACIiACIiACIiACIiACIiACIiACIhAT4XEKaecMqy88sph3Lhx8W/yyScP5513XrjvvvtUEyIgAiIgAiIgAiIgAiIgAiIgAiIgAiIgAiIgAgNMoGdC4s477xy23HLLMMUUU9Tg2GeffcKECRNqlmlGBERABERABERABERABERABERABERABERABERgsAj0REhcYYUVwmmnnVZ65Lvttls49dRTS9dpoQiIgAiIgAiIgAiIgAiIgAiIgAiIgAiIgAiIwGAQ6ImQiNfh5z//+XjEr776ath3333D9ddfH5555pnw8ssvDwYJlUIEREAEREAEREAEREAEREAEREAEREAEREAERKAugZ4IiWeeeWZYdtllYyHOPffcsNNOO9UtkFaIgAiIgAiIgAiIgAiIgAiIgAiIgAiIgAiIgAgMHoGeCImXXXZZWHDBBePRH3DAAeFHP/rR4JFQiURABERABERABERABERABERABERABERABERABOoS6LmQqD4R69aFVoiACIiACIiACIiACIiACIiACIiACIiACIjAwBKQkDiwVaOCiYAIiIAIiIAIiIAIiIAIiIAIiIAIiIAIiMDgEJCQODh1oZKIgAiIgAiIgAiIgAiIgAiIgAiIgAiIgAiIwMAS6ImQeN1114U555wzQlBo88C2BRVMBERABERABERABERABERABERABERABERABOoS6ImQeP/994fJJ588FuIb3/hGOP/88+sWSCtEQAREQAREQAREQAREQAREQAREQAREQAREQAQGj0DXhcRtt9027LLLLsWRf+ITnwh33313Ma8fIiACIiACIiACIiACIiACIiACIiACIiACIiACg08gu5C4wgorhOmnnz7MMsssYfz48WGNNdYoKNxzzz1h7bXXLub1QwREQAREQAREQAREQAREQAREQAREQAREQAREYDgIZBcSb7311jDjjDPWHP0LL7wQLr/88nDAAQeEZ555pmadZkRABERABERABERABERABERABERABERABERABAafQE+ExNdffz1ceOGFYf/995eQOPhtQiUUAREQAREQAREQAREQAREQAREQAREQAREQgTEEsguJH/7wh8O4cePCbLPNFlZbbbXwsY99rNjp7bffHtZdd91iXj9EQAREQAREQAREQAREQAREQAREQAREQAREQASGg0B2ITE97P322y9suummxWINtlKg0A8REAEREAEREAEREAEREAEREAEREAEREAERGBoCXRcSp5xyyvD73/8+TDzxxBEKozhfdtllQwNIBRUBERABERABERABERABERABERABERABERABEQih60IikH/5y1+GOeaYI/Lebbfdwqmnnhp/658IiIAIiIAIiIAIiIAIiIAIiIAIiIAIiIAIiMBwEOiJkIgH4oILLhiJSEgcjoahUoqACIiACIiACIiACIiACIiACIiACIiACIiAJyAh0dPQbxEQAREQAREQAREQAREQAREQAREQAREQAREQgVICPRESL7nkkrDwwgvHAjD4yjHHHFNaGC0UAREQAREQAREQAREQAREQAREQAREQAREQAREYTAI9ERJPPvnksPLKK0cCp5xySth9990Hk4ZKJQIiIAIiIAIiIAIiIAIiIAIiIAIiIAIiIAIiUEqgJ0IiXoibbrppLMDzzz8fttlmm3DTTTeVFkgLRUAEREAEREAEREAEREAEREAEREAEREAEREAEBo9AT4TE1VdfPRx//PE1R//vf/87/OMf/wh77bVXuOCCC2rWaUYEREAEREAEREAEREAEREAEREAEREAEREAERGCwCPRESOSQjzrqqPCpT31qzNHvs88+YcKECWOWa4EIiIAIiIAIiIAIiIAIiIAIiIAIiIAIiIAIiMDgEOiZkMghL7LIImGZZZYJM844Y5hpppnCFFNMET0Vb7nllsEhopKIgAiIgAiIgAiIgAiIgAiIgAiIgAiIgAiIgAiMIdBTIXHM3rVABERABERABERABERABERABERABERABERABERgKAhISByKalIhRUAEREAEREAEREAEREAEREAEREAEREAERKC/BCQk9pe/9i4CIiACIiACIiACIiACIiACIiACIiACIiACQ0FAQuJQVJMKKQIiIAIiIAIiIAIiIAIiIAIiIAIiIAIiIAL9JSAhsb/8tXcREAEREAEREAEREAEREAEREAEREAEREAERGAoCEhKHoppUSBEQAREQAREQAREQAREQAREQAREQAREQARHoLwEJif3lr72LgAiIgAiIgAiIgAiIgAiIgAiIgAiIgAiIwFAQkJA4FNWkQoqACIiACIiACIiACIiACIiACIiACIiACIhAfwlISOwvf+1dBERABERABERABERABERABERABERABERABIaCgITEoagmFVIEREAEREAEREAEREAEREAEREAEREAEREAE+ktAQmJ/+WvvIiACIiACIiACIiACIiACIiACIiACIiACIjAUBCQkDkU1qZAiIAIiIAIiIAIiIAIiIAIiIAIiIAIiIAIi0F8CEhL7y197FwEREAEREAEREAEREAEREAEREAEREAEREIGhICAhcSiqSYUUAREQgf4TeN/73hfmnnvuMQV57LHHwsMPPzxmuRaIgAiIgAiIgAiIgAiIgAiIgAiMFgEJiaNVnzoaERABEegagcMOOyysv/76Y/K/7777wpprrjlmuRaIgAiIgAiIgAiIgAiIgAiIgAiMFoGRFRJPPvnkMM0008Tauv7668Ohhx5a1NyOO+4YVlhhhTj/wgsvhM0337xYpx+9J3DppZeGSSedNLz++uthnXXWaViAJZZYIpx22mmlaR555JGeiBl4ZZ1//vlhookmCs8++2xYe+21S8vTycIvfelL4dOf/nTc9JxzzgkTJkxomA3tfKmllipNs8suu4SLLrqodF2zhYcffnj4yEc+EpPtuuuu4dZbb222Sfb1iy22WDjggANivvfee2/YYYcdsu8jd4azzz57gN273vWumPWPfvSj8Itf/KLYDfU5bty4OH/zzTcXx1ckGPAfHNt66603ppQSEscg0QIREAEREAEREAEREAEREAERGEkCIysk/vGPfwwTTzxxrLTrrruuRiw89dRTw4orrhjX/etf/yoN1RvJ2h7Ag5pyyikDIpEZ4tXLL79ss2OmH/vYx8JPfvKTMctZ8Le//S189KMfLV2Xc+GHP/zhcPnll8csX3311TD//PNny/773/9++NznPhfzO/300wMiXiO7+OKLwyKLLFKaZPfddw+nnHJK6bpmCxG/5ptvvpjsq1/9akDsbcWozyWXXDIm/ctf/lIp3BVR+eijj455Pfjgg2G11VZrpQh9TbP00kuHs88+uyjD/vvvH3784x8X87R1GGG33HJL2HjjjYt1w/DDC4k33XRTOPPMM2OxH3/88b6IzcPATGUUAREQAREQAREQAREQAREQgVEiICFRQmJf23O7QiIeX3iUms0222xh/PjxcfadKCRus802NUImYpsJVf0QErfeeutC/MQTeLPNNrOqansqIbFtZF3fwAuJxx9/fNh33327vk/tQAREQAREQAREQAREQAREQAREYHAISEiUkNj31njPPffE0Ga8Qy2cttVCLbvssoVX1CgIiYQjE96MnXDCCQGPtnbspz/9aeERWEVIJB/zdPzyl78c8OptxXIKiSuttFIR2n3nnXeGDTfcsJUi9DXNO8kjUUJiX5uadi4CIiACIiACIiACIiACIiACfSEgIVFCYl8aXq6djpqQWJVLLiGx03LkFBI7LUM/t5OQ2E/62rcIiIAIiIAIiIAIiIAIiIAIiEC3CUhI7JOQuOCCC8ZBF+66667wzDPPtFzPDPTxwQ9+MEw11VSx/7mHH3645W1zJvzQhz4UCCvG7r777raOIWc5qgqJhAETLg3Xl156KeAd2aiPRsper49E8qJ/wOeeey7gQdcPk5BYS526nXfeecOTTz4Z22nt2uZztIs555wzTDHFFOHpp58Ojz76aMO2LiGxOVOlEAEREAEREAEREAEREAEREAERGF4CEhLrCIkzzDBDuOyyy+LoqwhLq6yySmktMyjFtNNOG954442w7rrrhieeeKJIRx5XXnllzOMf//hHHFH4iCOOiAOC2IjSJP7rX/8aGNCinvj0hS98ITDICAOJTDbZZEX+/GCwD8TEgw8+OFxzzTU165jZbbfdipDQG2+8MWy33XZj0tiCT3ziE4HBPjBGsya01Ixj2WKLLcLKK68cEEFtVFpbT3oExW9/+9uBQTYaGQOVTD311GOSMGpzPc5jEr+1oBMhkZBdwmQ5PkRZb9QjIdI33HBD2Gmnnfyq4ncqJDI4Cn3FIVi9+93vjulee+21OJjGtttu21CY3HTTTWPdF5m7Hwy2wqi/7VinQuJBBx0UYFlm3/jGN8JvfvObslUBD0T6aTTjXGA0azNE1dT23nvvOOp1unyeeeaJA+n47S0NAu9WW21lsw2niNy044UXXjgK7paY0Pnf//73sV4bCfAIwl//+tfDZz/72ZrtLR8GFrnqqqsCoeOp5RYSEUIZIdyfb1xzOM/6YeojsR/UtU8REAEREAEREAEREAEREAERGBwCEhLrCImIEddee22sqX//+99hrrnmKq21Bx54oBD31lxzzXDfffcV6XweLETEQNwos3/+859RaEwFDjyiGN21mf33v/+NI9wiKHpD/Ntrr73iIoS6RRddtK6wNWHChGJk3Ntvvz0Ko5bXZz7zmZb660MwZTCUK664wjYdM/Ujaqcrm43anKbvREhEzEX0bWbUBeLVQw89VJPUC4ms4JjLhFHW4cHGgCNpvbIOQ6zcfvvt/zeT/G9l1OZkk9CpkHjOOeeEpZZaKs0uzjcatfm73/1uywKfZb7PPvsUfR/aMqapCOfXtTpqM6wp0+STT+43r/n9yiuvBPqiZMTrMkPopo6bGeX1Hw5Inx5D1VGbEb3Tcqaj0DcrZ871EhJz0lReIiACIiACIiACIiACIiACIjB8BN4RQiKeenj1mZ188snRs455xDU8oVLzImAuIZF94PF26623hqeeeiostNBCMazW9n3WWWdFgcPmmXohEY8qvP7w+MPTa8YZZ4yeil40SUUfvKvwdJxkkklitngynXnmmX4X8TfpbrvttkIU3XPPPaN3mCX0QiLehwimlAPPuznmmCMsv/zyhdcU5USUqhey/eMf/7jw9HrPe95TI2D1WkjEuwyRCsEPb0KE3gUWWMAOOyAUr7766sU8P1IhkWXU669//esoLOGx6dsUQvDGG29MsjG2xhprBDwazWgT0003XZztpZCI1+Hiiy9uxQjLLbdc4V2Ztqki0Zs/YLP++usXi2BDe8AIFcezM7UTTzyx1MMR7zvziGUbQucJK8ZaERJXWGGFcNppp8X0/ENcv+mmm2I7nWWWWcKKK64YJp544rgeL2PSp230a1/7Ws2o4I888khg9GnEx1lnnTV643JtwKoKiTfffHPYZJNNYl71/klIrEdGy0VABERABERABERABERABERABPpBYGSFRAQN8xIjdNh7DiHOWf9+eJN5L0KrhG4IiYiWO+ywQwyZtv14D7Jnn302LLbYYrYqThH4zj333HD11VeHk046aYzwQcjxRRddVBxPmWjlhdNf/epXgXDa1BC6DjzwwLgY4RRBzfcVSBjwN7/5zVgWL9ZYPksssUQ4++yzC6HmyCOPDIcccoitrjvl+O69995ifS+EROoAznApCwcnHBmPNTPYeK/QVEhEsCLM1XM56qijwqc+9SnLInpA4uXZzBDSTFjspZCYlovw2fnmmy8ubiQkptvlHGxlnXXWiV627KMVIZFuBAgvx/7+97/HkHFfb7RRvG5NqL3kkkvGhPoTRjx+/PiYB10BEN6cGucC3sff+c530lVxnv1YKHLa52aj61JZZhISy6homQiIgAiIgAiIgAiIgAiIgAiIQL8IjKyQWBVoN4REwkd33nnnmqIhSpxyyilxGV5t5s1Vk6jJzKc//elAH3cY3oJp+PR6660XCEnEykRCliNa4VWIdRo6edhhhxXeaQifW265Zcyv0b9+CImNymPr8EKz/hN/8IMfhGOPPdZWjfFIrMcLEYlBcTAEKrz+mpmExLcJtSMk0uelCdecR4T0Uy+pecGc7gRMeLR0dGdgHocIzd/73vdsVV+mEhL7gl07FQEREAEREAEREAEREAEREAERqENAQmIdMN0QEjfYYIMY1ux3mQpphFs2G6yEsFnCLG1gDzzHbPAFvOMsHNTvB68/9oUx2MUJJ5xQrGY5/Tda2CeCF8JXI2Mb9jNu3LjC+woxhwFbsN/97neFqNgsn157JKblwauTY3nve99brKKfvbnnnjvOM+DJAQccUKxLPRLreex5YZVwduq/mUlIfJtQO0Ii/YAiHpqZV6fNm4cg58xPfvITWxw9C71H8nnnnRfwKMTofgDv3bSPzGLjHvygbdKnpDdC6BE5+2HqI7Ef1LVPERABERABERABERABERABERgcAhIS69RFN4RE+qBL+2Rj9zb4CCLgxz/+8dKBOb785S9HoeQDH/hAnRL/b3GZlxVrfKhtKvLRfyR9ImKEMxNeXGaIGvQhR594XnQrS4vYgadkM0uF1F6ENlMmPL0QABkN2/qPrFdW2PlBbFIhsZ74S50xajb22GOP1R0V2e9XQuLbNNoREn34/ts5NP/1la98Jfz85z8vEqaDx+DdeP/990dhnNB0PBbLzuEigxH/ISFxxCtYhycCIiACIiACIiACIiACIiACTQhISKwDKLeQ+J///KcImUx32WjkZ4S2yy67rNTLMM3H5i0k1+aZIpiZJxaCJV5XJoh4LyxGiC0bRZg+BRmkxQ/s4vNPfzMojHknpuv8fD+ExC996UuxT0Nfjka/GRzERr4mXSoklvEmnR+ghgFozMORdfVMQuLbZNoREn1I8ts5NP+VDj5Ee/zZz35Wt4sBhMU77rgj9o/oPRmb72k0UkhIHI161FGIgAiIgAiIgAiIgAiIgAiIQKcEJCTWIdeqkMggEIw8jDEAgxcXWs2jkZB43HHHBUb2NWN0YYQOpgiBCBsIWX5wkHrCFp6IhCJjhOoSsouXIWG3FvqJd2LZACS/+c1vwswzz2zFCHhn/fKXvwxPPvlkePHFF+NyhEMTDwdVSEQERJi1sHD6jOR4OR5CWV999dV4LHhezj///PF3p0Li5z//+SIstdHI3wXUN39ISHybRjtCIm3R+helnTMwUStGX55+UCHbhvOJwXLqeQDTThixulk3BJbfqEwlJI5KTeo4REAEREAEREAEREAEREAERKAzAhIS63CbffbZo1CGwNbIm/DPf/5zkUNuIRHvKLyfJp100riPslFmWeG9DZmvJyTuu+++YbPNNiNJYCCQtddeO/gRihnp1kasjYne+pfmzwAUZX20EcZLOC82qEKiL+Mrr7wSNtlkk3DnnXe+daRvT/DMJPwZayYkLr300jWjglsu3vNRoc1GpfVpO0LiqaeeGlZcccWYeT2v2tb3/HZKRnhfZpllYt6c394jl9HSEZzfSSYh8Z1U2zpWERABERABERABERABERABERhLQELiWCZxCZ56t912W7G2rO++NMQ1t5BIOPGFF17YsAysJBR5p512KtLVExLT/Ojb75hjjgkLLLBA3BYxxvr0KzJL8qc/R4TFMvNiTq+ExI9+9KPh3HPPjcVBGKROGpkv41lnnVXjyem3Y/CZaaaZJi5qJiQinv7iF7/wm8ff++23Xxysg5m0X8oxid9aUNUjkWNC+MLo15H+HTsxjodBfLB6g8mU5bv11luHXXfdNa66+eabo1Bblq6VZe0IiQxIggcohjCMN2Fu45pwxhlnFJ6qeCOvttpquXdTkx8fE3bffffCY5iVeBAzAnw/TEJiP6hrnyIgAiIgAiIgAiIgAiIgAiIwOAQkJDaoi4cffrgIgaW/u5tuuqkmNYIJwolZbiGRfgzpv9CsnkCYhh3XS0c+PgT0ggsuCOutt55lH9Zdd90Y4lsseOsHozjvsMMOcQ6B7ZOf/GSaJCy44IIBj0kLke6VkJgKvvUGPrEC08/jsssuG2cnTJhQhB7beqZ+kBTmmwmJl19+eU07YBuMcOnpp58+/oa1MYwL6vyrKiT6kaKreOZ1KiRuvPHG4cADD4xHx/mzyiqr1DnS5ovbERJ9GDk5M2rzDTfc0HwnbabwbYOw/qWWWqrNHNpLjlcs9ejtuuuuC5tvvrlf1LPfEhJ7hlo7EgEREAEREAEREAEREAEREIGBJCAhsUG14Pkz44wzxhTXX399ERbMAl7wTz/99DD11FMXOeQWEtOBSKxfw2KHb/744Q9/OEbYayQk7rzzzmG77bbzWcTfjzzySFhppZXGLGcB3l3m2UZff4hFsDEj/JOBXLw3YK+ERMrAqLoWcnrFFVeErbbayoo2Zuq9BBGC8K70feQhMuKlad6IZNBMSITJNttsU+OVSPj3F7/4xWL/MLvllluK+Xo/qgqJiJUIvxgjeLNfBM12rVMhEX6ItWYwuOqqq2y2rWk7QiIZ4wE566yzxn3QnvGkpB2mRhkR4hA6Oae87b///uGvf/1r7GPRtwtL4wcmqieqW9ocUwmJOSgqDxEQAREQAREQAREQAREQAREQgVwEJCQ2IElo6EYbbVSkQDggtBevO0RDG2TFEuQWEskX76M555zTdhEeeuihKI7Qn+HHP/7x0pGgGwmJfgCYItM3fyBIHnTQQX5R8Ruh8MYbbwwTTzxxXEafkYTq/uEPf4jz9LU47bTTFun5UU9IJExzsskmK9IiAG6wwQbF/Pnnnx8IUTZDDNt7771ttnT6gx/8IHz2s58t1sEGkYjRqTHCteGGrb/++gGvPTP2hecaA61wDGuttVZxnJammZBIOsTESy+9NNAX4qKLLhqWW2452zwKeXh7prbyyiuPCY2lnz/658QYyAMB29uVV14Z24Rf5n/joYnnrDGmXBz7Cy+8EJPdddddgb4yvTHATjqi9IYbbljk8dvf/jYwIJC3Y489tnSgEcRv0jPFqANCjR9//PHAyNUY4eVeiGYZx+y9e1lGaPWSSy7Jz/Daa6+Fn/70p/G3/aOOTzjhBJsNXnhkIcfOYCqEINNmOS8Q5jgHMAROL/ayjLLPNNNM4fXXX49tnjZOu59lllmi9yF8zQ455JBw5JFH2mxXphISu4JVmYqACIiACIiACIiACIiACIiACHRIQEJiA3DzzDNPwMPNRvhNk+L1ZCPFsq4bQiLeU3g+WshwWgbmGSnaewM2EhJJj+C10EIL8bMwQlARZuoZfTDSF2MjY3sTaeoJiX5wmkZ5+XVl/VP69Yg7HJN5o/l1/E77MDz77LMDA6TUM8RLRsS2/JoJiYhONiBOmif5INSVDeji+/VLt6s3f8opp8Q+8+qtZzkDgHzzm98ME0000ZhkZfVCaLZvP2M2KlnAID2Mfl1m7H/HHXcsWxWXcdyElXtDwMUTtB2j3XPOecPj9itf+coYMdinsd+NhERLU2+KIItw2W2TkNhtwspfBERABERABERABERABERABESgHQISEpvQwmsMryMf6op3EyIG4az0C4gnG55XhAbjRWaGJ9+vfvWrKES+9NJLxaAmtt6miEz18iDN6quvHvbYY4/wgQ98wDaJU7zprr322igs0U8inlOIYPPOO29NunTGD4jBujJxKd2GecQjwqLN28zSIJaddNJJUYg8+uij42LK4705LS3ecfVEN0vjp4h0CLrNjDLBiH4lEVLNe5Lt0v4tSbvnnnsGvO5SgZb6w2uSQTToZw8jrBvvVDM/ovezzz4bvv3tb8d+AVOvTNoIYda+TVgeTL/zne9E0csva/YbT0A8MJvZGmusERg1GnbTTTddkRyPO47bGwP6MBBPO0ZoMN6y9QwBDAF3+eWXj+H/vj44bgYt8ca5g0jajhGyXebpyb4JYUccTeuX/Gmv11xzTRywhHbqbZdddgmrrrpq5FYmxHIen3baafGaUBb67PPK8RthnrL6siDgci72w3wfiXh7miBMNwGNPkT0o6zapwiIgAiIgAiIgAiIgAiIgAiIQH4CEhJbZIpANf/884fnnnsuCii9EBHSojGgCSLhFFNMEe64447S/t/SbXLPI8IxyjOhsISbEqJaTyjLve/c+eHJiGcmwiNCCOHbVeoV4Wr8+PGxjdAfIoKVrL8EEBU5byeZZJIYXo0XcSuCF20DEZaPAXxEIFyebRHd38nmhUTPocw71K/XbxEQAREQAREQAREQAREQAREQgdEgICFxNOpRRyECIiACXScgIbHriLUDERABERABERABERABERABERhoAhISB7p6VDgREAERGBwCeGnSZ2lqDDKUDqCTptG8CIiACIiACIiACIiACIiACIjA8BOQkDj8dagjEAEREAEREAEREAEREAEREAEREAEREAEREIGuE5CQ2HXE2oEIiIAIiIAIiIAIiIAIiIAIiIAIiIAIiIAIDD8BCYnDX4c6AhEQAREQAREQAREQAREQAREQAREQAREQARHoOgEJiV1HrB2IgAiIgAiIgAiIgAiIgAiIgAiIgAiIgAiIwPATkJA4/HWoIxABERABERABERABERABERABERABERABERCBrhOQkNh1xNqBCIiACIiACIiACIiACIiACIiACIiACIiACAw/AQmJw1+HOgIREAEREAEREAEREAEREAEREAEREAEREAER6DoBCYldR6wdiIAIiIAIiIAIiIAIiIAIiIAIiIAIiIAIiMDwE5CQOPx1qCMQAREQAREQAREQAREQAREQAREQAREQAREQga4TkJDYdcTagQiIgAiIgAiIgAiIgAiIgAiIgAiIgAiIgAgMPwEJicNfhzoCERABERABERABERABERABERABERABERABEeg6AQmJXUesHYiACIiACIiACIiACIiACIiACIiACIiACIjA8BOQkDj8dagjEAEREAEREAEREAEREAEREAEREAEREAEREIGuE5CQ2HXE9XewyCKLhHnnnTeMGzcuTDfddOHZZ58NxxxzTP0NtEYEREAEREAEREAEREAEREAEREAEREAEREAE+kRAQmIfwM8zzzzhiCOOCAsssEDN3hESF1tssZplmhEBERABERABERABERABERABERABERABERCBQSAgIbEPtXD++eeH8ePHj9nzk08+GZZaaqkxy7VABERABERABERABERABERABERABERABERABPpNQEJij2tgyimnDPfcc0+YaKKJ4p5vvPHGcNhhh4U//elP4ZlnnulxabQ7ERABERABERABERABERABERABERABERABEWiNgITE1jhlS7XEEkuE8847r8hv8cUXl4BY0NAPERABERABERABERABERABERABERABERCBQSUgIbHHNbP66quH448/Pu71pZdeGtNPYo+Lo92JgAiIgAiIgAiIgAiIgAiIgAiIgAiIgAiIQEsEJCS2hClfIi8kqk/EfFyVkwiIgAiIgAiIgAiIgAiIgAiIgAiIgAiIQHcJSEjsLt8xuUtIHINEC0RABERABERABERABERABERABERABERABIaAgITEHleShMQeA9fuREAEREAEREAEREAEREAEREAEREAEREAEshCQkJgFY+uZrL/++nGUZrZ44oknwtJLL936xkopAiIgAiIgAiIgAiIgAiIgAiIgAiIgAiIgAn0iICGxx+B32mmnsP3228e93nfffWHNNdfscQm0OxEQAREQAREQAREQAREQAREQAREQAREQARFon4CExPaZdbzFlFNOGa699tow88wzxzyuueaa8IUvfKHj/LShCIiACIiACIiACIiACIiACIiACIiACIiACPSKgITELpKeYYYZwvLLLx8mm2yyMMccc4QNNtigEBHZLSIiYqJMBERABERABERABERABERABERABERABERABAadgITELtbQFltsEfbaa68xe7jjjjvCCSecEC6++OIx67RABERABERABERABERABERABERABERABERABAaRgITELtZKPSHxj3/8YzjiiCPCRRdd1MW9K2sREAEREAEREAEREAEREAEREAEREAEREAERyEdAQmI+lmNyok/ERRZZJEw11VRhgQUWiKHM00wzTZFu8803D9ddd10xrx8iIAIiIAIiIAIiIAIiIAIiIAIiIAIiIAIiMKgEJCT2sGZmn332cPnllwcERkyDrfQQvnYlAiIgAiIgAiIgAiIgAiIgAiIgAiIgAiJQiYCExEr42t947733DngiYvfdd19Yc801289EW4iACIiACIiACIiACIiACIiACIiACIiACIhAjwlISOwx8I022igcfPDBca9PPvlkWGqppXpcAu1OBERABERABERABERABERABERABERABERABNonICGxfWaVtlh99dXD8ccfH/OQkFgJpTYWAREQAREQAREQAREQAREQAREQAREQARHoIQEJiT2Eza4kJPYYuHYnAiIgAiIgAiIgAiIgAiIgAiIgAiIgAiKQhYCExCwYW89k1VVXDSeccELc4IUXXggLL7xw6xsrpQiIgAiIgAiIgAiIgAiIgAiIgAiIgAiIgAj0iYCExB6DX3DBBcNll10W9/rGG2+EBRZYILz88ss9LoV2JwIiIAIiIAIiIAIiIAIiIAIiIAIiIAIiIALtEZCQ2B6vyqmnnHLKcO+99xb5nHvuuWGPPfaQmFgQ0Q8REAEREAEREAEREAEREAEREAEREAEREIFBJCAhsQ+1gkcinone8Ep8+OGHwzrrrOMX67cIiIAIiIAIiIAIiIAIiIAIiIAIiIAIiIAIDAQBCYl9qIYlllgiTJgwIUw33XQ1e3/22WfDYostVrNMMyIgAiIgAiIgAiIgAiIgAiIgAiIgAiIgAiIwCAQkJPaxFjbaaKMw++yzh5lmmilMP/304emnnw677rprH0ukXYuACIiACIiACIiACIiACIiACIiACIiACIhAOQEJieVctFQEREAEREAEREAEREAEREAEREAEREAEREAERMARkJDoYOinCIiACIiACIiACIiACIiACIiACIiACIiACIhAOQEJieVctFQEREAEREAEREAEREAEREAEREAEREAEREAERMARkJDoYOinCIiACIiACIiACIiACIiACIiACIiACIiACIhAOQEJieVctFQEREAEREAEREAEREAEREAEREAEREAEREAERMARkJDoYOinCIiACIiACIiACIiACIiACIiACIiACIiACIhAOQEJieVctFQEREAEREAEREAEREAEREAEREAEREAEREAERMARkJDoYOinCIiACIiACIiACIiACIiACIiACIiACIiACIhAOQEJieVctFQEREAEREAEREAEREAEREAEREAEREAEREAERMARkJDoYOinCIiACIiACIiACIiACIiACIiACIiACIiACIhAOQEJieVctFQEREAEREAEREAEREAEREAEREAEREAEREAERMARkJDoYOinCIiACIiACIiACIiACIiACIiACIiACIiACIhAOQEJieVctFQEREAEREAEREAEREAEREAEREAEREAEREAERMARkJDoYOinCIhAHgLve9/7wtxzzz0ms8ceeyw8/PDDY5ZrgQiIgAiIgAiIgAiIgAiIgAiIgAgME4EPfehD4f3vf/+YIv/hD38ITzzxxJjlo7JAQuKo1KSOQwQGiMBhhx0W1l9//TEluu+++8Kaa645ZrkWiIAIiIAIiIAIiIAIiIAIiIAIiMAwEbjwwgvDYostNqbIP//5z8NXvvKVMctHZYGExFGpyQbH8alPfSpsueWWMcV///vf8OUvfzk888wzcR7PsaOPPjq8613vivMTJkwIl156aYPctCoHgdlnnz0cfvjhBfcf/ehH4Re/+EWRNfUwbty4OH/zzTeHAw44oFg3DD84tvXWW29MUesJiSeffHKYZpppYvrrr78+HHroocW2O+64Y1hhhRXi/AsvvBA233zzYl29HwsuuGD44Ac/GKaffvr4JejBBx8Mf/nLX+olr7t8yimnDPPOO2+YZJJJwm9+85u66cpWsO2HP/zhQF2/5z3vCX/+85/DAw88UJx7ZdvUW8Z5ypeuf/3rX+HOO++sl6zryzkejuupp57qiCfb8/fud7873HHHHeGhhx7qepnTHVRtGznrNS1br+dpV3POOWeYbbbZAvcGvpxyrrz88su9Lkrc30c/+tHYxquUIUceVQ++ynXD9j0q57wdzyBMq7aNdut1lO7z3/nOd8JSSy0Vq5Hr/1ZbbVVU6RprrBG22WabOM91ZIcddmh6f6h6HS52/uaPTus157W83bbhy5/zd9Xrxijco+FJfRAVg5fQZJNNVun5K2f9tJvXoN2jqz4Dcvydnq/tsmuUPsf5miOPRmVsdV3Vc77V/fQiXY620U4eOe/REhJ70UK0j74Q2GmnncL2229f7PsTn/hEuPvuu+P8IossEi6++OJi3RFHHFEj4hQr9CMrgaWXXjqcffbZRZ77779/+PGPf1zM33vvvfFBiAW33HJL2HjjjYt1w/DDC4k33XRTOPPMM2OxH3/88XDrrbeOOYQ//vGPYeKJJ47Lr7vuuhqx8NRTTw0rrrhiXIeQVhYyzcr/+7//i16Qyy+/fJFX3Oitf4jnRx55ZDjppJP84tLfn//852MZeAg1kf3f//53FAIROa+66qrS7Xiw2HTTTcO6664beFEqM8TE73//++GXv/xl2eqaZfvuu29YbbXVwiyzzFIsf+WVV6KY+K1vfavpy1qxUYUfM8wwQ7wmjB8/Pkw99dRFTvBE9OWlsZntvvvuYYstthhTLwhW5NHtr3VV20aVeuVBhbq2dtSMVbr+n//8ZxSz0+XMr7rqqmHbbbcN888/f7Gatlt2jlkC2vQmm2wSPvnJT4ZZZ53VFtdMr7nmmrDPPvv0pBuCJZZYItA+PvKRj4RJJ520KMcjjzwSzjvvvHjOFgvr/MiRR52s21rc6XXD72TYz3kEpW9/+9v+kOr+3m+//cIxxxxTd32OFTnaRqf1Okr3+XPOOacQEv/xj3/U3N+22267sPPOOxfVtdFGG5V+eKt6HS528OaPTuu1yrXc799+d9o2bPtc06rXjWG/RxtHnld4Ntpwww3HPG+Qhg+YPH/5D8PdvEcjvPH+tfLKK1sRA44DP/zhD4v59Meg3aNzPAN2er6mbKrO5zhfc+RR9TjYvtNzfhTv0Z22r5z3aPQUHFiwDTbYoDjn5ZEYkejfMBOQkDh4tZfz4jV4Rxeit6V5JB5//PHxhteonFWFxHXWWSd61jbah6373e9+Vxp2besRZnbZZRebHTNFUPz6179e6rnLA+rnPve5MduULTjuuOPiA23ZOpbhlYqIWM/+9re/RUGom31O8gCJmIPXWj377W9/Gx/a661HdJ1nnnnqrY7L+bDx6U9/uiuecDnaRpV65djrCc8NobiV9nBii3gh52GQl5TUvvCFLwSEwHqG5/N8881Xb3WxnHbOPryndLEy049ll102nHDCCWGKKaaom+OJJ54Y9tprr7rrc+RRN/M2VlS5bthuRuGc/+Y3vxmvj3ZMjabd/nCZo21UqddRus9XFRJzXIetLVWp1yrXctu/Tau0Dcsjx7TqdWMU7tFw5HnliiuuCDPOOGNTrF/72tfCRRddFNN14x6NsPHVr341rLLKKmGiiSaqKU+zZ+JBukfneAascr7WgKs4k+N8zZFHxcOIm1c550ftHl2lfXXrHu0ZS0jM0eKVR18JSEjsK/7SnXfr4lW6sz4s9B6JzR6aKF5uIRFPN+vgduaZZw6LLrpozcMc4sXee+89hgz9OtK/oxneYIRj4wlJ3xfmNYnIwhfv22+/3ZLGafqS8ve//z2Wg5BsHlb50mz2xhtvxPCwMqHmoIMOisKapX3++efD/fffH8O/vXhE/ngKdssQpOaaa64ie8LD//rXv8Zl3kuSdAhYqe22226xKwVbjvjJSwtcl1lmmRohDM/Vz3zmM5Y02zR9ge2kbVSpV8JOLrvsslKPxOmmm67mOJ977rmaeWZee+21wPUCI6+zzjorzDHHHHG+7F87QiJhiAyAxPnHb76o8uJgRrslbLEbHUXjBULbn3zyyePu2D/nmnk7TTXVVFaMkHps24oceVheVaZVrxvse1TOef8AzXGVtWmWY3h3n3LKKf+byfw/R9uoWq+jdJ/PLSR2ch2miVSt1yrXct9Eq7YNn1eV31WvG6Nyj4bh6aefHohIMXv00UfDJZdcEp83eAb0XoEvvfRS9Ojn3pbzHl1WDiuPTZs9E3shsZ/3aMpb9Rmw6vlqzKpOc5yvOfKoehxsX/WcH6V7dNX21a17tGcsITFHq1cefSUgIbGv+Et33q2LV+nO+rCwX0IiQgQh4val2Q6dPhaPPfbYIlz8P//5T42oZ+nOP//8QphD7OLBwboBoEsAQlLMSPuNb3zDZuOUlxRCmwnPJow6FRrTkILf//73McS0JpM3ZxANTWChb8W11lqr8NZDAPX9RBJSxktebltppZVqXvIvv/zysPXWWxe7+dnPfhYWWGCBOM/DLl8FveCEIEX/nvQPiVE3uPvzAmnm20lZHpauytSExCptI1e9psfh2xtiI1+7GxleDniIesMj1QvUrQiJPHyRD+FVvs7Il/Nn7bXXLnbBl2/CnHMb4a+cD2Z77rln+MlPfhJnKR8PXyYmImBbP6mWnmmOPHx+nf729djJdYP9jsI5z3H4B+j0msH6XlmOtlG1XkfpPp9LSKxyHabtVK3XXNfyqm0j13lQ5boxSvdoQtZ5nrKPvXfddVfg3u8ND0HCns2++93vhtNOO81mS6e+nlu5R5OJrxPm6dLHdyPSipA4CPfoqs+AHHvV85U8cpivx07v0TnyyHEsvn118n4wSvfoqu2rW/doz1hCYo5Wrzz6SqAXQiI3cfquI6Tg6aefjl5YXjAoA8DLL538Y4g1NgBMWdpmy/iiiKjBS3W7oZ54eLH9r3/96xqRo9k+0/Xkw4AYrQzs0a2LV1qmfs17gajZQxNlrOqRSB50sOv7vWGZt1TES/tx4sGN/vosDCX1gmL9DTfcUGRJ+6ZfN2+0I8SPRoOIIJZ87GMfi5vhbZaGmW622WY1oeC+T1M2whPykEMOKXZLuyUsOLchMtGPHoYnIXy9HXXUUYGBnMyYP/jgg202fu3H89OsnsDF4DHTTjttTJbmYdtWnVZtGznqtewY/INpKy8pXkik3hkoi/4Q6VPVrB5nW4/XId66ja7PhKvPNNNMcRPEYPpUzG3kay9XZR6tN954Y3F/YN/0E0t/sd5y5OHz6+R3juvGqJzz8PMP0P0UEqu2jRz1Okr3+apCIm2j6nWYPKrWa45reY62wbFUtarXDfrYHZV7dCp6MahkWbQHH3cZhA/Dg3HXXXdtWA3t3qPJzIQe+vnl+Rex0oePN3smHpR7dNVnQFhUPV/Jo6rlOF9z5FH1ONi+6jlPHqNyj+ZYqravbt2jPWMJidSUbKgJ5BQSefAwsYC+5r74xS9GN2v67DLPI2ARCsroz34gBr5+MuAC4QUMRJEOPkAYHYIiXxjqjbCLp5n1F0ZfdIhBq6++evFCyr55QaZPLT+YCctTQ+xiW0RQjFBTvu4ceOCBcbAME4noD6/e4AVszwUDEZWRfc0ow9VXXx2PpeyFPffFi5scDzyeKQ9RsOyH9UNIbHactDnEGjNCehjIxYwv1XyxxmgLhAx7cfuMM84Iyy23nCWPU86tc889t2ZZsxkGFmEETDM8rXx7x1MMwQhDFKePHTPaKmKmDz/tliefPQyzb14ifWf6vBByfvn2xkMzD/NmPMjDGOMcsPPJ1tuU6wnnMYYAyzWm19asbbRSnmb1WpZHuy8pvATTdggHtWsSbaIdIbGsHOkyL3Y/+eSTxSALaTrmqTvfnlnGIBqNzgvavPcEwbMXFmbcN1JvX/LjfDPLkYflZVOELxNQWcbotGuuuaatLp3muG6MyjkPIP8AnUNIPOCAA2r6iuV6h6e4v2amFZOjbeSo19z3+fQ4ezmfQ0hsVt5m1+Ec9dqsDKxvdi3P0TZaKUezNFWvG6N0j+bjrHm0w40B79KIEJb7sGEGmvQDUbI+tXbv0WzPMw1dtfh7WjtCYlqGsvl27tGdvh9UfQbsxvnayf0gx/maI4+yemx3WdVznv3lvkcP8zNgt+7RnrGExHZbudIPHIGcQiKeT/TPgCH6MQIt4Yr1bPHFFy/EGPo/w8urmdFH1o477hg7TU7T4nFGn3cYITK+v7g0bb2QT168GUWYr35l9vrrr9eMHspDJReC1AiR+exnP1t4sKXrmac/OTyEUg+13BcvjsWPvs2+Ca/1IbAs65UNopCYfrFGBOfhzozRQwkhxmjXiMRmqRegLScMtJU2bemZeld8+lr0fRCyHoHIOgtHbCH8xsyLbraMKaPItTIKtN+m0W+8ha+99toiCQIrHwbMEMnT0bPTcHHCYSkXloqMlg9TznU6Psfot8jCpeOCHv1r1jZaKUazei3Lo5OXlDSfbgiJvlxlIWK+DGWdj6fevD49v/mgZAOoIAwhINgHF156rrzyyjDZZJPVbJYOkpQjj5odvDlzzz33FOHUrLP+GtN0fj7HdWNUznm4+AdoExL58OE/ynh+zX6ffPLJNX2bkT710k7zyNE2ctRr7vt8epy9nO+FkNjsOpyjXlth1uxanqNttFKOZmmqXjdG6R7NfcNHjHBf8h+OjSXhz9NMM02cxePO3mdsfTr198JWogbS7W0+t5Doy9XsHt3J+0GOZ8BunK+d3A9ynK858rC2UGVa9Zxn37nv0cP8DNite7RnLCGxSovXtgNBwL+oUyD/EJ7eYJqNouiFRH9wiAiIZnSsTriaiX31hES8DxEC8SogvJPBA+gk2Tyc8Ghcaqmlxrx8eCHR9o9IRzgxYcV0qGxG+N7HP/5xmy2mfNHyoXp43BDKxws5/bylL7BlQiKj+vr+zHgJJhSP4ydUlYE5zHg59X2Osbydixeu2768lq+fpvXIumEVEtMwR//ggMjbbARgz8X/Rljebrvt4qJUvGAhHk8WvnvhhRcWI4/SLlIvQMs39ZKy5Y2mP/3pT8OSSy4Zk3AOpB5PPsybFxpEb4w2w2/OkVTs5hwn31zGeWD7tX1bX3p4inlPY79Pf777TtwZ0IM8y8y/tLHePI7L0nZrWbO20cp+m9VrWR7+ZaDTl5RuCIneEwHvx913372s+HFZJw+R/uNW2jZod2VtJRWjc+SRHlQnQmKO68aonPPw9A/QzHOt5ZrFMwJ9hXGsfIBJw9RJW2b++m/r/TOMLfPTHG0jR73mvs/7Y+z1bzzQOR7sxRdfDAsttFBRhLTvOTxUGnUzUmyY/Gh2Hc5Rr8kuS2ebXctztI3SHbe5sOp1Y9Tu0V6sgw1ds9gHKtDuscceYcstt4yUiTohkoquVRpZjns0+fuyNQttblQeW9fOPbqT94Mcz4DdOF87uR/kOF9z5GF1V2Va9Zxn37nv0cP8DNite7RnLCGxSovXtgNBgBdN8/LhoZ4vGt4IozQBjxcpf+P16fhdJiQSPkD/cyY0kI6RPvka9aUvfanIj6/NnFxckH1YG+kxysHDqnWWzGAVvi840qRCYnpD9g9GpCdM0nsDpp1LU3a8Cu2YuXnSZ8wUU0zB5tFSIZHwQkQ6ExzvuOOOGArjj5+w63333bfwVqRcPoyWjBtxx9Ny6qmnjvtHoPV5x4XJv04eFJIsss6265HY6HjhbX1p4iGE+NaucQ4gyNqX6LIvuH50Oi+eeC9A6p1zZcUVV4xFaFesTUM90tGjU1HItz1fPjy+CMkhPdbMAywmauMfD9icf2Ym7nlvMYQBBn4xzzLS+hd835cLHwZSD0bLm3PYe39yY2/W3m3bHNNW2kaz/TSr13rb53hJSdtMsz4S65XFlvuXeZalnruWzqadPET6jzleTEeA4HzD6JeTMB77YJN6B+bIw47Bpp0Iif687OS6kdbfMJ/zcPQP0MY1nfIcglhDW2tmnbw45mgbVevVjivnfd7y7Me00X2YNtzoGbOV8rZyHc5Rr83K0sq1PFfbaFaWRutzXDdG7R7NswMD4lnXLzgsEFnB4BoLL7xwTQRTK/0jwj/HPZp8cgqJ7d6jO3k/yPEM2I3ztZP7QY7zNUcetIMqluOcZ/+579HD/gzYjXu0ZywhsUqr17YjRyAVEut5/XV64Icddljs/4jtCZ+0r4eWnxcS0/7jSMOFlhA4G/E2fan2fW/xRRJBKO1rCe8bBFAz/2LHMi8s4YGI12NZ2JYX07o1IIaVsZMHBdu2G1N/7KnY2439NcvT9ydDODGhymn/OWWDfvBgetZZZ0VBGLGZuibU2AYhqTfqcll5aJs8TNoAE3jC0q+Pidhsg6BKOKCZDTDhb0rm4UqbmmWWWWLS3CPr+r6TfPg1LJZZZpm4T0QT6taHE3nRKX0h47xiG28Ikzzo28cD1jGASzMvAZ9H1d+ttI1G+2ilXuttn+MlJX24TK959fZdtpwHKurY+nvl4Zn8GlknD5EI6NYXpl0bOQ7v+ct1d9y4cTUDD5mgTXly5JEeVydCYtXrxiid8/D01yrmEYA5v+2ezDKzVu4Nnbw45mgbVevVjlHT1gi0ch3OUa+NStPqtXwQ2kaO68Yo3qOpQwZtK4tGsrpv58Nrjns0+80lJHZyj+7k/SDHM2A3ztdO7gc5ztcceVj763Sa45xn37nv0aP0DNhp3aTbecYSElM6mn9HE0iFxLTvtHbgcMOfc84548uieUQi8ODVhKV9YrHMC4mIjgjj6E41AABAAElEQVRWqfkbNqKP9370Ahd54QGTGqGz5GGWCok/+9nPiq/v9BPJQ4k3OxYG62CgFowvo3wR7ZbxBZb+brzxgs5Ntx/mObfystjNMnrxmP3U69fQhwww4A4j4iJy0VcMBl8EO/rU4TzA/vSnP43pvyuuKPmHR6p5MiJi039l2q9h6maPqMaLOOIigxkh6vGlmHbny+YHQ8G7jxDjTox+EMnbh6QgdDJQivcWI0QRQZF2d9tttxW7SgfN8P25PPvss3EwGzohx/Bw4eWRhyNvvr9Hvry/+93v9qtb+v38888H+rRpZq22jUb5tFKv9bbP8ZLCdTTHYCvUJeHV1AvW6COJPx68uPHA9oZg3Ch01fe3Zl69hx56aNHf7hVXXBG22mqr+FGJ67yZD53PkYfla1POcfNmYRkfiBqFdZOm6nVj1M75ddZZJ46wTdu+4IILQBSNdkUXDPSpbPdIrmekb+RlTmSDdTlheXFd8B9gbLlNc7SNqvVqZdG0OYFWr8M56rVRaVq9lldtGznu0TmuG7Coeo/mozsffNo1noHoo7DReUyerbYN2z8f+hmMqdFzA1FKRFH5aCXbPp3muEeTp38v6fSZuNN7NNu1+36Q4xmwG+drJ/eDqucr9Vc1j0E653Pfo0fpGZC6zmESEnNQVB4jScALiYQnIQS2Y9zQGFiBG/173/vehpuap4pP5IXEVLSwdL4vnzSk2PdzwUMj68vM3zRSIRGhxcKOy7YtW8YLE0Jis4emsm2HcdmgCImIXwh/E000UcTYyIMw7YSb0F0TgvFeZBRAjK/dCHwYbcGE77igzj8vPpLEh0D6TdJRKxmgiDLw0oD5B1BCtc278cQTTyxCjI877rjYtYDPt9XfhKIQGkSbt5F4re3SB+j0008fszKvt7SDc75iMyqiGaKgf4CFKSOj85CPsDDppJNa0mJq4dGpoF8kaOFHK4O2tNM26u2y1Xqtt32Ol5RcQiJitYm6XNvpT7Sss/p6x9LOcu99RP+0vPyZ5y/9r6288spRxEOgZFArM++RmCMPy7fKtOp1Y9TO+WYsaVc+pPmkk06KfZc1266d9TnaRtV6bae87+S07VyHc9RrPdbtXMurto0c9+gc1w1YVLlHsz0fEv3HF5a1as2iD9ppG+wz9Vbj+YzIJkRLBrXj2cI+YnCfYT6NSErLnuMeTZ45hMRe3qNzPAN283xN66nRfNXzlbyr5jFI53wjVqwblnv0oLSvMp4SEsuoaJkIvEnAC4lPPfVUMWhEK3AYgISO9MtCnMq2LxNpvJDIS6YPq7Q8zjjjjLDccsvF2R/84Afh2GOPtVXh+uuvLwZzQOzy3i5Fojd/MGqv9YHohcT0pd1v0+w3YlAv+35rVp5urh8EIZHQSerewmYZrIFBb+qJud7Dj3bCYD94AdK/H6M529dr/7Bq3lSNWCLI0YbMENoQ3MqMB3Lv4YdnFv2NYghw5tHIvBe0zYOS5TkeWBD6/bnhy3HJJZcUg9akLzNlLwbkQ371jA8GsDbD+5E66qaQ2G7bsLL5aTv16rfzv3O8pKTXJBN5/X6a/fYfX0hL/66I1t0y/9JOFxWYef76jz94jTAYD0aboG2Y5cjD8qoyrXrdGMVzvhlPrpv2EZJrLX215bQcbaNqveY8nlHNq93rcI56LWPZ7rW8atvIcY/Ocd0wFp3eo9m+W0Jiu20jHfGbD1MMiuiNNIgP5q3oB9Xz6fzvHPdo8qsqJPb6Hp3jGbBb56uvn1Z+Vz1f2UfVPAbtnG/GbRju0YPSvspYSkgso6JlIvAmAS8kWl9trYLxIiDb4OVFaCd9xfF1EOMLIX9YMyERby0Lk4wbvPWvkZDobwaNRqhmMA7zmPRCYvrwhjBaVgZfHn7jidUt7550X4Mw328hkVA4vP5MtH766aejmNXo6zMDO9D/TGqEOCPUmfkHS7bhhlHP/Fdd0uB9Rfh+I/PesJaOL+q8bHvhnLBq+7pOGArethiCtR9R0/JoZcrXe4SdtO8k25aQYcIYTIxNH9596Kltw5Rzmv5O8QqYbrrpYog25xhejjywwBGjU/R55503/uYffS7aMRYLW/hBOY1HmryTtpHm0Um9pnkw79tSv0ZtJlx/tdVWK4rnvV6LhZl/fOtb34ph7mm26fnhR/ROhfQceaT772Q+x3VjFM/5Riy9V/ejjz5afPhrtE0763K0jRz12k6Z32lpO7kO56jXlHMn1/KqbSPHPZrjqHrd8Cw6vUcjOPFc3K7xTMO9p8w6aRs4DTBwIsb9n34By8w/m7bS5VCOezTlqCIk9uMeneMZsBvna1mdNltW9Xwl/6p5DOI534jbMNyjB6V9lXGUkFhGRctE4E0CXkgsE/rqQWJQCb4Emn3ve98r7b8PbxTz1irL34uRnQiJXmREBDRvFyuXTRFT7KulFxJZT39ONqpz2gejbf9On/qHtV4IE543XnJ8jbbwcx4WGbSkUT9cbF/2xbBsQB8f4oDHIw+wZZaO3M3+6R/MRLiybVhW9oWfh1lC+c1ST0D6W0SQy2X1vAEJSaTfGzPvMdZqVwd40GHGYeuttw677rprXMYI5csvv3z83Y1/nbYNX5ZO69XnYb9zvKRU8Uj05yllQnxFlO62IRBzD/CGiLzmmmtGIduW+9AV370A63PkYfupMs1x3Rj1cz7l6z0J6DuVaIWclqNt5KjXnMc0Snl1eh3OUa+eY6fX8kFpG926bgzjPdr3b0m/jzxrlRnPSnvvvXexyiIgigXJjxz3aLLsVEjs1z06xzNg7vM1qZqWZ3OcrznyaLnADRJ265xPdzkM9+hBaV8pO+YlJJZR0TIReJNAp0Li9ttvX7yg8hUVYbHM/MNAN4REP+JyPY9KXmoIeTBLhUTfT0mvRTIrUzrlwY9BAbz3Fg9TXvRJt+nmvH/46SUjwiP5cmh9+b3yyivRkw8WzQxRmAEezBDGECARr83StkFIFOJ0agyIQriQidEIknRwbOJZmt7P0/b8izUDPvB12G9LP6MMXGDG+kbelpaunSkjstvovWz3q1/9Kmy66aY1WZx++umF8GcDsNQkaGEGAdTCHFsZJbiFLEuTVGkblmGVerU8/DTHS0qnQiLhyz6klOsaom67hhcv9wVvXHcanXP0gZgOBMU1w4fTk58fRfmiiy6K/evafnLkYXnZlFA4713z97//vcYb2dL5aY7rxjvtnPed8N9xxx1xACnP1P+mbXlPca7L9Lvqr4c+Pb9ztI0c9ZqWK8c8bdSEHvLj4wv32GGxKtfhHPVqnKpcywelbfTqujEM92jvMVY2UKPVeyokNutyKMc9mn13IiTmukd3+n5Q9Rkw5/lq9dfJ/SDH+ZojDzuGKtNenfPt3KNH6RmwSt34basKicN0n5/ozc7y3/AHr98i0IhAp0Ii3lSMvobh0fXJT35yzG74Sk3/ayaGdUNIxNvRD7BS1qeb/xJDIVMhkcEoLPyaEXXp363RS82YA+3CAsI4Lr744pqcefjjoakf1g8hkcE7uMnOMsss8ZDxcKK+05GR6/FIv8CWDfaDFxVfwbDXXnstjo6c1j19+zBisIlwjz32WGzvCIKtGKMg+pFiCTFAAPfGeWKjgDd7EffbtfObl1NGmjPDW8x7dfJwygO7hY93IhgT5n3IIYfYLmLH763WV7FRCz+qtg12UbVey4qZ4yWlEyExDQmp0k/dtttuO6YvKkayZ3T0RkbbsdE+05B2toP3CSecUGRR1vdjjjyKHbz5wwuXLOf6zn2pkeW4bryTznnCFunvy+7zjSID4O77pLV64P7L80Ejq9o2ctRro/J1uo4Qf2/dCA33+ef8neM6XLVeOZ6q1/JBaRu9uG4Myz3aOwkw2BrXmfTZjLpnpGh7/6D/67nnnpvFdS3HPZrM2xUSc96jO30/yPEMmON89ZXTyf0gx/maIw9/HJ3+7sU53+49epSeATutl3S7qkLiMN3nJSSmta/5hgQ6FRIR7BBEMEaBxdPLe6zwgEkYm40aSrpuCInk60NT8eKiXxXz5uKhiZFrbYAO0qdCImW89NJLizQIdlw0yoQi8ttkk01i2KwfzZZ8c1qnDwo5y+Dz6rWQiBfRBRdcUAykQxvj5sYgIe0Y/dSZcIC4gdeCiWd4/THCqLWNsj7t+LpNGhPXGJCIEBtrX62UBWEIcdBGNGaQGPoiNMMTEY9EM0RH+oPMbYiI3tPFD7LCvggfX2aZZeJu6e8IL2M8L1OjrD//+c+LwWps/RZbbBEFU+MJZ8TK3JajbeSo17LjyvGS0q6Q6MPRKVPaL2FZORst6/Qhco899oj9ZlrefpAV6oxzd8YZZ4yr6UfXD8hj2+TIw/Ji2omQyHZVrxujcs7TfyovwLTrsmsS1zFEZhttHna0H/jVs05eHMkrR9uoWq/1jqnK8mF6wfDHmeM6TH5V6zXXtXwQ2kau68Yo3KNTgYX64drijYHr+MhrHzHS7jJ8Wvud4x5NXu0Iibnv0Z2+H+R4Bqx6vlo92LTT+0GO8zVHHnYcnU6rnvPduEeP0jNgp/WSbichMSWieRF4i0CnQiJCIQMrmGjA4CN8qcJ1HmM03Wmnnfatvfxv0i0hMf3S9+qrr4b7778/9nvIVyd7yLDCpEIiy7///e8H+tcxo3NnBqpA9GG0Z8J3+KrDwzPW7VFQO31QsPLnnvZaSPQXbTsW+kZsZPR5wtdpb4R6UldmfNFmUJDXX389jlBuAiHCGWG+6UA76ch65NOsHAxC4kV1tvFfzZn/29/+FoU4RpEeP3580Ua77RF7880317z0I/ZRlg984AM1X/LLvDcptxe52BZBFYb0S2TeaKSD59e//vVA+Gpuy9E2ctVremydvKTwcO8H/8HzdaqppiqyRkSnXZgxWJAXhNNwJbwy6AKgniGoL7nkkvVWx5e1dHTMVjwSudYSTm33BMrNecB0/vnnr2kfZV65FChHHv7AOhUSq143KMMonPMbbbRR4T3NtZNuTOjygPN7jjnmqPlQyDFzz+T618g6fXHM0TZy1GujY+tk3bAKiTmuw/CqWq+5ruWD0jaqXjdG5R7NcfBRf6aZZipOKwak4xrDM/4CCywQVllllTDRRBMV69M+n4sV7kcn92jKQmSF3dvIjkHmvD333HPFLM9PvluR3PfoKu8HVZ8Bq56vBaS3fnR6P8hxvubIIz2eTuarnPPduEd3KiTmaBs58uikDppt4+93OFKgI7Rjw3Sfl0diOzWrtB33kQg6OvGnr8RGhkcTIhzWLSGRvP2IVMx7QyhBDJxmmmni4jIhkQeFI488MobI+G3r/ZaQ+LY4V49RleX+ot1qPieeeGLYa6+9xiT3A/6MWfnmAvroIsSZ/jxTK3tJSdOk84Rfl3mr+j5K0m2YR6DkwebOO+8sW51lGecinoczzzxz3fwQCOsNIuNfUuplQIg4fU3ywN4Ny9E2ctarP8ZOXlLw5vZCos+v7Hc6IFD6klK2Tbrsgx/8YLqomO/0IZIMCFE94ogjim4AikzdDzyNrVsMt7j4mSMPy6xTIZHtq1w3bP/Dfs77lxQ7pnrTBx54IDBgWpknv9+m0xdH8sjRNnLUqz+eKr/5IHvLLbfUZIFYQl9kg245rsN2jFXqNee1fFDaRpXrxqjco2kbnAd0h+EFPGsz6ZQ+FWmTzayTe3TZedpoP6lnZO57dBUhseozIMdd5XxNuVW5H+Q4X3PkkR5TJ/OdnvPduEeP0jNgJ3VRto2/37UrJJZdPwb5Pi8hsawFaFldAgwYgYcLxiAUXJTaMS442223XU1n4WzPywQhoQiJjfLnKx+eDVhZ/4Ys50GCPnAwOsg97bTT4u/0H2VZa621opcEXj2EoeIRg0DIIBLmTVhvdGjyW3/99WP/YNYvX7oPjocvooR5tRPemubTbJ6bPQNV+K+tZaEdzfLJtd57JHL8EyZMiFkTolgW/lp1v2koSCv51fNyYlv69ESkszZg+eFdc+ihh8bRbW2Zn/pRZv3yRr8btS/64+Qruo0STj548z744INRmG/WT1ij/ba67s1+dKPwTsi3f0DHU42v1ZxHZX0RWf488NAZsw08Y8vx8kRMIDSbB+luWY62kbte7Vj9YDVwwkOimfluIpqlZT3noh/EBA/b9773va1sGtOU9V/oN047r2cdQjsP/K0Y12rSp2IlQjkiIqFRzSxHHuyDMG/v0cJHJTzLW7VOrxs+/2E+5xkkivpaaKGFaq4V/vhefPHFeI8nxLAVo69NIhbMGnWjYGn8NEfbyFGvvkyd/sYLfr/99qvZnI8K9sxUs2LAZnJch/0hdVqvua/lg9I2qlw3RuEebW2DZ2GeKeoN6MhzON0X0T1RK9bJPZrnRt6P/PNSo30R2cJzoFnue3TV94Oqz4AcV6fnqzGxadX7QY7zNUcedjxVpp2c8924R4/SM2CV+uA8IVoL4/3RnlvaFRKH7T4vIbFKq9G2HRHgCyhhBnRyjDcS4l03RbZWCsmN33tGoP5biPPiiy9es64sP46Jr35zzTVXPCYG2CCPJ554oiz5yC/zQqI/2G71g+f3kfM3D2CIYIR/MiCFbyM599MsL9oWfwiZiHeNhLtmeVVZTx9nCPnUox/NulmenB9wRHBHtOdBuZuelM3Ko/WDR4BrMH1uInIi6D300ENtFzJHHm3vtGSDHNeNYT/nEWARZakTjNGFuW70656Yo23kqNeS5tLyojSS4umnn64Z0brljEYoYY56zYGj323DjqHT68ao3aM5Hvozn3POOWOEEe8YfIDt1/XH6mfYp50+A9pxj9L5Ouzn/Cjeo/vZvtIRta3NtyskDtt9XkKi1bSmIvAWAb4M0scXhtA533zzvbVGk1YJjIqQ2OrxKp0IiIAIiIAIdJMAfan56Id99tmn8Pbv5n6VtwiIgAiIgAiIQH0CuYTEYbvPS0is3ya0ZkQJ8MWCUKBrr702hj177y68pnAXtz7h+hkePMz46QCXATVSw1MzHVgkTaN5ERABERABERCBtwkQNnXDDTcUC/CsYgRimQiIgAiIgAiIQH8JEDbOfTo1PKGJxmjFhvE+LyGxlZpVmpEigMh11VVXxWMiZJWRJel3DsP70Po1oW8w3PgVChHR6J8IiIAIiIAIiEAfCKT9UNEPHH0vy0RABERABERABIafwDDe5yUkDn+70xG0ScALifU2paN/HtQvuuiiekm0XAREQAREQAREQAS6TgBPha997WtxP3S5wuihMhEQAREQAREQgdEgMIz3eQmJo9H2dBRtEmAEQTqanXfeecP0008fR8V9/vnn4wAp999/fzjooIP6NrBGm4ei5CIgAiIgAiIgAiIgAiIgAiIgAiIgAiLQEwISEnuCWTsRAREQAREQAREQAREQAREQAREQAREQAREQgeEmICFxuOtPpRcBERABERABERABERABERABERABERABERCBnhCQkNgTzNqJCIiACIiACIiACIiACIiACIiACIiACIiACAw3AQmJw11/Kr0IiIAIiIAIiIAIiIAIiIAIiIAIiIAIiIAI9ISAhMSeYNZOREAEREAEREAEREAEREAEREAEREAEREAERGC4CUhIHO76U+lFQAREQAREQAREQAREQAREQAREQAREQAREoCcEJCT2BLN2IgIiIAIiIAIiIAIiIAIiIAIiIAIiIAIiIALDTUBC4nDXn0ovAiIgAiIgAiIgAiIgAiIgAiIgAiIgAiIgAj0hICGxJ5i1ExEQAREQAREQAREQAREQAREQAREQAREQAREYbgISEoe7/lR6ERABERABERABERABERABERABERABERABEegJAQmJPcGsnYiACIiACIiACIiACIiACIiACIiACIiACIjAcBOQkDjc9afSi4AIiIAIiIAIiIAIiIAIiIAIiIAIiIAIiEBPCEhI7Anm/u7kU5/6VNhyyy1jIf773/+GL3/5y+GZZ56J8+973/vC0UcfHd71rnfF+QkTJoRLL720vwXuw94XW2yxcMABB8Q933vvvWGHHXboQykGZ5eHH354+MhHPhILtOuuu4Zbb711cApXpyQnn3xymGaaaeLa66+/Phx66KFFyh133DGssMIKcf6FF14Im2++ebFu0H7kPl85x+ecc84w22yzBc7/P/zhD+HBBx8ML7/8ctuH/uEPfzhMOeWU4amnngp/+ctf2tr+Qx/6UJhjjjnCrLPOGp5//vnwxz/+Mdx3331t5WGJP/rRj4Z//etfHR+H5VNlCod55503TDLJJOE3v/lN21nNMMMMYcEFF4z18uijj4bf/va3HdVJ2zvu4gZLL710mHvuucOLL74YHn/88aG4bhgO6pP2Pfvss4f3vOc94c9//nN44IEHinulpevVlPP2/e9/f2znd955Z0e7zZFHRztONqpy3bCsRuGct2MZhGmOttFuvY7KPXoQ6k9lEAEREAEREIF+E5CQ2O8a6MH+d9ppp7D99tsXe/rEJz4R7r777ji/yCKLhIsvvrhYd8QRR9QIMMWKEf+xzjrrREGVw0RkWW211YbuiFdaaaUw0UQTBYSy22+/vVL5f/GLX4T55psv5vHVr351KMRlhKmJJ544lvm6666rEQtPPfXUsOKKK8Z1CFCIHYNqOc5XRLtNNtkkfPKTn4zCXdmxXnPNNWGfffYJDz/8cNnqYhmCF6Ls+PHjw9RTT10s52MEgm0j0X3ZZZcNG264YVh99dVrtrVMqIvTTz89HHjggU1FtCWWWCLsvvvuUeCedNJJLYvwyCOPhPPOOy8ceeSRxbJu/vj85z8f2xaM7QPMv//97yg6wemqq65quHs+Whx88MFj2uAbb7wRxasf/OAH4YorrmiYR86Vq666ath2223D/PPPX2TLMbb68YD63WabbaJIbOefZfTqq6+Gc889N9abLbv55pvrtklL02i68cYbh1tuuWVMEtop5Vh//fXDZJNNFtcjzjb6aIB4uOmmm4Z11103irpjMn1zAWLi97///fDLX/6ybHX2Zfvuu2+8/8wyyyxF3q+88kpATPzWt77VkoCfI49i5x3+qHLdsF2Oyjlvx+One+yxR/GBl+WnnXZa+O53v+uTdOV31bZRpV5H5R7dlYpRpiIgAiIgAiIwZAQkJA5ZhXVS3BzCRCf7HaZthl1IxDPg8ssvj8jxNDNvwk7rQEJip+Sqb5fjfPX116hECGCIL6QvM14aEenwaKxniDWISakh0uDd24ohSvKB44knnihNjiB5wgknhCmmmKJ0PQtPPPHEsNdee9Vdn2MFgtsuu+xSNyt4fv3rX68rvG+22WZhzz33LATvsozIA5EBYaGb9n//93+x7rl2pPaFL3whIDQ3s29/+9vhK1/5SvyAUS8tnqvmDUwaPnJMP/309ZI3XZ6WDc8qPpRtsMEGhYBomSC+4eFbzxAIP/e5z9VbXbP8uOOOi4JizcLMM0QENPqI9be//S1+IGgk/ufIo+phVblu2L5H5Zy34/FTPJEvuuiimusA19lvfvObPln231XbRtV6lZCYvUqVoQiIgAiIgAj0jYCExL6h792OcwgTvSttf/aENx8P2Rgvn2XCSH9K1tpecwuJP/3pTwPeqhih8Hj4DbqNyktKjvPVC4mEMz/22GMxlJjf1CsvhGZ4sK6xxhqlIh5i0lxzzWVJozfUX//617jMe0yRDoHHWyok4n34pz/9KXrdTT755AFvI/McYzsEJjzDUiPUlONhG4xjICT6H//4R/Qim2qqqYpN9t9///DjH/+4mM/5A0+3ww47rMjyn//8ZywHx4WXoXnjIQRy/Ui9gmGOB6cvL+cVHm+wXHPNNWNIre1go4026ihk2ravN0V4O+uss6IHYb00qVhXlu573/te+OIXv1izinbG8eCpSdg3YeypkPizn/2s1CNxuummq8nrueeeq5m3GcpmbDlXEMKNvaWxabtC4t///vcY+s85Mc888wS8Ts3wGN1qq63qiu6WrtPpQQcdFD796U8XmxP+f//998fuGrzYSxnxDi6zHHmU5dvusirXDfY1Kud8PW6cAwsssEDN6m4LiTnaRtV6HZV7dE3FaUYEREAEREAE3qEEJCS+Ayo+hzDxDsA01IeYW0gcRhij8pKS43xFeONlnJfTH/7wh2NEQsS2tddeu6hmRHTCnL0hrp9yyinFIjxet95662Levwwj7uFB5D0KTUikP8WTTjqp6DrAMqB8eBkiOJkhTKWhwXi9IRaZ4dH3k5/8JM6Sx89//vNCnEtFK9smx/T8888vBBxERIRF6yICb8of/ehHxW5I+41vfKOY5wchhXgkmhHG6L0OEXgJwbd+Pi+44IKGYeOWT7tTBFzahTc83Lxo1kxIpG5/97vfFeIufSLSNm666SafbfjYxz4W2yH138zw9MTjE8Pzjj7xmhlh8csvv3yRDG9symbWipBIaDOCLqHxJlDa9rQ72p/Z73//+9hdgM3nnCIamlhO/4xrrbVWEe6/995714Ro77zzzuGcc84Zs/sceYzJtM0FVa8b7G5UzvkydGmbsjTdFhKrto0c9Toq92irM01FQAREQARE4J1MQELiO6D2cwgTZZjwsCFEh36wOhlsoCzPTpfRyT9W1ndWp3lW2Q6Bw8JB8cJqNjAFLNmG6ZNPPlkIFK2WYdCERMpDP3Z4jTUKw2t2fHhP4blBHs3yGZWXlBznK6IUg6o0GlCFkOSZZpopVgH91tGnojcESPpYxMqEnaOOOqombJR5+v7zRkjrDTfc4BfV/Ob6cdlllxXLyvpo9X3qlXk+3njjjXHAEsukXh96tr6TKecm3oT0QYqlno+s98dZ1r0Ag1gttNBCcfs77rgjEFqcGv1NmgBZlkeavpN5LyT++te/jgIv/SH6MPRmQiJltL4xX3vttUDXEA899FAnxSm2qSIk4kGICIuYu9tuu8V+D8m4mZDI9QUP0UZlR7RGEMU4Vus7Ni7I9A+BGaHZzPdjzDI8XA855BBbHag3773Iihx5FDuo8CPHdWNUzvkUI+3t2muvjYIx90a8S+05oZtCYo62kaNeR+Uendar5kVABERABETgnUhAQuI7oNZzCBOGCW8PPJcYuGLGGWe0xTHcELGMPqfK+lvDo8L6qiJkixelMpEDYYGR/d797nfHvHl4tZBjFvAQTggcHlCEmeGZsfjii0fRivWEFRL2yItuo5dDwtZ4QTRhgG3N7rnnnpi3zTeaMpAAeWFf+tKX4kspL7K2zLZFBION97bC4wSvMMSWNKyP4yCElPwZVTs1hCI4mdF3HCONmpWFBSLY1OvMnbAnPMrKDJatCMWUiZdhBm3wg2EgNN92222BkZO9x5rfF/1FffCDH4yL6LOMsE4G6CA00oz2Qh94Z599ti2qmeZ+ScEDz4Q2doRnHeGn3bac52ujsnqBBPF6qaWWqknuPVjwfuJcM8NbjHqwwUZYzqAneK20a3h5mRfeJZdcErbbbrsiC84N77VHW8Tbz8wLb7aMcwaGOY1BLhh0CCPEldBS+nU0O+OMM8Jyyy1ns3FKGSiLGaLWtNNOG2c537i2pcaHBM4VM/r+84Nh2fIqU8SM73znO9Hb1AZUMe9Ry7eZkMh2dv3P5TnZiZCIdxejZvuBdvbbb7+WhUQ73kZT+oCElxltstGHoU6uG4hICLwY94pVVlnFdhc9LBGpaRtmZR7AOfKw/JlyDfbHzTLY+jbNstSqXjdG6ZxP2fhBvxhUiWcAukXAWhES+WDB9c9fd3ne8l6z6T4t76rtq2q9Uo7c9+iyY9UyERABERABERCB3hCQkNgbzn3dSy5hAvEAjyEv7qQHxks2wp/3riANHmq8cFroFt49PszP8iHEzL7Q87UeMcm/sPuHWdumbPrSSy/FMLl6I23iwVhPkGpn1GZe8Hi4x/BS4sXfh9b5sqUCB2GA73//+32S0t9XX311zNcLryuvvHKNkFi6YbKQFw76OywzhKJUSLJ0rYzazMioCKheQLTtbYrXEJ3JezHV1iFUzjzzzHEWIZj2Us/qhfXlfklBUPb92VmffPXKlWt5rvO1WXl8qO5dd90VvcpsG8JcEe3N0jZAm0xHvv7Pf/5TEx5r2zab4jmJGIQR6sxHB7MtttiiGEAF8YQPDXYecN5deeWVNf0ssh0ht4Qd57RjjjkmvvSTJ30Acl0yS73FbDnh41wTzAhXNUtFRlvO1PM44IADakKmfbqcv9sREtO0fCBCJMVYZ/XTbvk6ERLL9pFbSPRhtnzg8X2Glu2/k+uGF2bT0Xvx8kXUS42Rtf39LUcefh9lAwulnrg+Pb9zXDdG6Zz3fHwfq/aMceGFF7YlJPKxLv2wwDNTo5HJKUPVtpGjXilH7ns0ecpEQAREQAREQAT6Q0BCYn+493SveIJ97WtfK/bpw6bSB9Oy0EI25AWRcCPzHGIZL0z8sQ5vHPO2YR3egldccQU/C8PTDK88s/Sl5PDDDw/rrbdeXI0owcOxDxdkRZmQiPDE8g984ANhySWXtOzD008/XXh5FAvf+oEI4csy22yzFQKmPeSn25TNeyHRr0d0IqQZgYSHcLwFGwmJlB+hAc8wxCt4+sEs0pdLyr/rrrsWu8Q7yDwOWEi/cakhXPo+7/x6PL3w7DRj/+YVmopIlsamlAXRyQY8QPBBGCQMEE9L2pgZnpKLLrqozRZTLyTaQjxKqQvEVr8NQsvHP/5xS1ZM/UtKGgKL9ybiK/b666+P8RiNK5J/nQgCSRYdzeY4X1vZsT+XaBe77757sRneqWeeeWYxj/Bu3qS0FQtrLRK89YM25IX/dH06n+4nvW54UZWBPLzXLOXz85Z3p56Rtn3ZlHPX+uzj5Z+RmTGufam3mG2fnu9cD8yTCHHK87VtmPp2XNZ3pU+b6zfH0Wpos79nvPLKKzHsF6+9ZZZZJvZ3ycck2gqC64EHHhg9xFsp56AKiQw8ZfcV7jXNvJI7uW74Ovdtg/OOdkK74brlP9RwnaBsZjnysLyYdiIkpudzJ9eNUTrnjae/TnB+0I0E3bD0Skis2jZy1CssfDly3KONr6YiIAIiIAIiIAK9JyAhsffMe75HHmJthEBEHr5Oe0OAshdcXoLKPErwjLE+1BD5CDH1obWEXTFvfYARlus7wbf9+X7VGO10gw02iN4s/ms9acv6W2O5Fz+YT0Mu6fDfC2x4yRFO1Mzo48tCiKsIiQzCwMuzD8eGPyOcIoz55SeeeGIUXZjygpoaaVdbbbW4mDr5yEc+kiYp5nP3kYj3ovUF1kxI9AIwHjt4DPrwU0RsXnrNDj300OjZavNMUyHx+OOPr/FqpR69N+Wqq646JnQdBlNPPXXMlvZnwhcLCOdELMYQect4x5XuXyeCgNu84585ztdmO6eOfAhxOsgJ/ff5cFELO/degFwH8B7kWmDmP1LYskZTL9Bx7hDm568//rrjRRw8tKw/RvpvJCzQBurohueoH63Ui67eWwzPIK6jdPuApZ5C9GtnHwfoy49jS40uEbzHbq6w4XQ/6TxtrlUhkXBMPDQxvMb5OJB25WD5I35xnP66Z+vS6SAKiWmYbeoxmx4D8+1eN1L2iLL2Ici3u9Tj3X+Iy5FHeiydCIk5rhujdM4bU0Z7Ny9p331DL4TEHG0jR73CIvc92vhqKgIiIAIiIAIi0HsCEhJ7z3zo9ogIw4AG5nGWhuzZAeF5hxeieU3UG/SAF2wLX6avKbyQ8KywMFK+1LNtmXkhkZdY+ipLzT+c81LnR6dN09p8LiEx7cPN8u9kmvaXhidMPQGsn0Ki9zJAQIRBaj6M9vHHH4/eSz6NFxLTPsJIx8uQHyW2WR9uPu9Of7crCHS6n15vx4eDs846qwgnTj1DKA+iLeIt5sM52Q7PMwxBDcHXew2ngmRMWOdf2vecF0ZsE4QbRGPMBpigLXgvQPIZN25cjfBswqflU3Xq+ze0jxx4W8GDflYRP/GSpQ9SG6AmHeHX92FXdg5QRkR2Pq6Y1esCwtbnmqZiQ6Pzi75gvfeqlQHvRPoRpb9W37cogjMCc71rl20/aEIiTBB1rSsPvMUZdMUL3VZ2P233uuGv3eRj9026gTDPV7uPeTEacdZGWs+Rhz8GfnciJOa4bozSOQ9HxGg+Ztp1gnnz2vbPKq30kei9gckbSz9Y/G/p2/9ztI0c9fp2ifRLBERABERABERgFAhISByFWuzyMdAfGIKBGS/u9EFoZt6MzOOhNMccc8RVdCZ+7LHHxt/+Hw+2PEBPNtlkfnH8zQM2Xnj2oJ0m8ELiSSedFPbYY480SQyJtn7WXnzxxcJLckxCtyCHkJj2neayb+kn3l6EZ3suDIhhRmi4F21sOVP/stDMe9FvV+93qx6JqQcVIkjq8co+GGGUASYwvGJNSI4L3vznhUS8N/ByTI2XevN8QrDxg3CkaXPM85LuBzigTZYJKDn21as8OB4G3eHjAIY3GQJYer758EJrT94L0ISwVOxuVUgnVI6Xa/s4QZvxAprx8H132guzF9v4cMGHiNSj2YdY431pYfqWbytTBoUyzzsvluNxjPcy4fx8PMFoKwg7tHEbTZdQZgunJw0Dg/hBEbgGmlBk6+FuTFh2++23h3XXXZefsV9G3/1AXNjiP0aMvvvuu+umbkdI9G3DMqSvSgRGM34zUIcdCx+iPvvZz9rq0umgCYl+YAzCUelqw/dJWHoQby5s97qBIO3766XPSbxqGbSFLjEQ8vEIo/58m/Pe+DnySI+Hc5R7jjc+HvChr575ttHpdWOUznk40WbsmQhvS7yRzdoVErnemnhseSAu++gQW27THG0jR71aeTQVAREQAREQAREYDQISEkejHrt6FOkLcKs78yGA6TZ0FJ8+EOO5gidMo5c1LyTWG3QDjyu+7pu14p2UQ0hMw3Ft/42meOoQjk1IuBdky7YxT5Wydf0SEvEWw4ME42XbXpjSMqaCI14ZfuRTLyTWE6N42ealCGs1ZD0txzt9HnGCtoIh6BLejLCYmvcWRMhYeOGFo1fy9NNPH5Oaxxritxe38VxBhG5ktAU8VN/73vfGZAzCw/nn24Nt70eW/u1vfxvDmc0LkI8ECHWIoGn/q3bOp+3O8m1lyscS6xLCjyzNaMtcq0wE9GKf77oB4Yfz29uvfvWr+LHAlnHseFbjjW2DDdk6piae8vu4444La6yxBj/btlTASDNoR0j0bYN8WunGouzjQVqGQRISvSBMORvdy9LjaHeeAYT8OfiZz3wmti271vn7Cv0Um4ckXWJYtwI58mi33GXpfdvo9LoxSuc8YjpMMD5G4NHqrV0h0W/b6u8cbSNHvbZaXqUTAREQAREQAREYDgISEoejnvpaSjxw6oUaNypY6nGTpvUP0axjNEJGPW5kXkjEQ4QX7dRScaOsP710mxxCIv0gNvIMSPeJt2azjvv9No1Emn4JiX6ETUQRBKcyS4WKdMRRLyTW87w844wz4iA05F/P27Vs31r2PwJeiGUJI6t7T2PPKfXww/PPRCzfx1f6kupH8PX52W88IS+66KJCNHv11VejCFjmxco2XtAh5B0zL0AvJvuPHeYJRdpcQqL3BCPcmBHO8Rajn1f6DKT/U4zz37wQvQgYV775jwFbECLLREPSwIPBhKyvWURTBDZsUITEtG0wSrJ5bsaCvvUv9YRqdh0eFCHRiz8cSqPR7v3xdvo79er15xoDcFmfm+SPOG39wJpnLMtz5EE+VS1tG/5YWr1ujMo5zz0ZT2Dzyi27r/lnoFZCmzupnxxtI0e9dlJ2bSMCIiACIiACIjC4BCQkDm7dDEzJ/IAChPu1Gt5Jn1j2gp0eDGIfHcpbv4isZ1RWwpoRAuqZFxJTMcq2SYXEVgaAyCEkpiPOWnnKpvQlh/BoRigbXinwYrRpvDkwBrywF5FBFBL9cdA2/AjNdmxMUyExFYG9kIhHDiNMpyYhMSXS+rwfuIetvJdTWS7pIBOWhjom5NHO0ZVWWqlmJHAfUmzb2JQXWjwRzWuVNo4A2MiD8Vvf+lZgsJ/U8E7ccMMNi8WEDJMXloovtNFm3r5FRu4Hx8pgMJjv39AliSHOCDpmvi/QesIA58Kee+4ZR1nnWsX5jVcibZ4RevFQNjGSEH9C/TGEORMYbX+tTq+++upgQmzZNun5aR6nZWnTOq+XNhUwml0fB0FI9J5XHHvazsp45FjmQ+ctPzy8N9tssxqPXz/yN+Gm1j7ZJkcetu9OpzmuG6Nyzqd9ieKNnBofJOz+jof1XXfdFZPwoaxRVwRpPs3mq7aNHPXarIxaLwIiIAIiIAIiMFwEJCQOV331pbR4CfLSglnfaFUL4kMsfV688G655ZZ+Uc1vLyQyEjCDtKTGyK986TdjtGMTPmxZOs0hJDYS+tL94X1pohsP+QzQUFZG/+LYKP9+eSTipYanFNYofDH1DFtllVVqhA0JiWkLyTfvR9UmV8QHO5/r7SWtL0uXdifgPQEb1T9CFSLb/PPPH7MiLcIR/aE1Mi9UWzpGd8aT1wtjPhzShxrbNlWnZd6AZYMC+RBoPI4RBJoZgpvvo/K2224r+uZEVPH95zXLq9P17QiJ/lrD/uoJ/2mejN6ON2o967eQiMcYXroMioHxIYx+O8uuy/WOodPlvs4tD84XP3BV6v2bfozJkYftu9NpjuvGqJzzqZDYDtNm50o7eZG2atvIUa/tllnpRUAEREAEREAEBpuAhMTBrp+BKB0efdZB+Ouvvx4WXXTRSi9XjM7KyyeG1wVhg77voLLRWw2EFxIJpyOsLjXCsM1LiFBBEy/SdH6+10IiL6mMborVe2lIBdFWhUTqiAf/KtbqYCupqFDP+5PBAvCuxMr6UhxEIRFhA5HHDK8xa1e2bNCnCCN4NZkh4OPx1ooRYjvJJJMUSfGo2XTTTYt5fpx++ulh+eWXj8safWRAQOK6YWaDk9h8vSmeeWl3Ad5Lz7bzI+WyL86pnMbgPnjUmSGEcp2h3Zql5yshsnjRtmNpCGG986mdPFtJm4p+9bwMyYu0eE7ZADb1xM702tAs7L2fQiLXJzw/7ZgQibkndCIidnLd8CGuMEZYxgvM7582zcczM9b7fkVz5GF5M6WvYRs4yJYj/NfrhsDSVL1ujMo577v9MDatThkx2/ebadtx7hER4j2sqY9mH2RytI2q9WrHoKkIiIAIiIAIiMBoEJCQOBr12NWjSEOFERXpvL8TW2+99WpG5LUO433fYoQ88pJe9sLihcR6wgXhgYRfYjz8MiptM+u1kPjggw/GPtYoFx4YjEicWhqO2khIpO85P5pmoxDTdD9l860KiWz7yCOPFF48jKSM6JKaF5wQ5MaPH1+TZBCFRC9OUVjCz/EKGhZLQwTp28+Lis2Og/BnRmw3wwsQAdyMl9rf/e53YfLJJ4+L6oVL08/fMsssY5vF89/CdYuFDX6wj3HjxsUUeCPOO++8Nan9gD+saCSC1WzYxkzqkcNIqanIQlcFnMvYa6+9FjgHvRDUyu68pzbHjbDYC2tHSKQ8/hrLACCbbLLJmGL6kV5Z2cwzvF9CIu2Hj1ImmtPFBh7i3kt0zME1WNDJdSP1XmPQHroU8UYfg9YH7R133BFHcvbrc+Th80PMok68NfrIZ+lyXDdG5Zy3/lyNTTrF09k++tGnqg2e472t/TZEMRDN4K2sL1a/nt852kaOek3LpXkREAEREAEREIHhJSAhcXjrrqcl96F9r7zySqBPsrIwNR6ceZGnH7RUtGAdnY/z0orxwrX22mvH3yzDM9EGIUAk5AUvfRH3QiIbpi9cqWcJL2OkaWa9FhIRDu0F4pprronMfBkRDRHkLMyOdY2ERNb7fpAQIdNRsUnTqrUjJDJqM3WF4QFKOf1IvgguCM/mRVFWNgmJrdZMa+l8yDFbdNLXGyIiL49mfrAElnmBEC9TvIrTF2A+FHghv57YaPsom+6xxx413R34QVbwGGVAhxlnnDFu+uSTT8aBUMryqboMDyETkhE0udaYsIp32EknnVT0d0ZahJjU+MDBtTH1VOQ4ENvx4jOr55Vk63NO2xUS6Z/ykEMOKYrAtYqPCGYcB+1j2mmnjYvKwsAtrU37ISTS7yT1ZmL4U089FcOZvaefla/VaSdCIvwRByeddNK4Gz7O0BelGZ6I3ssWrzRGkvaWIw+fX6dCYo7rxiid855p+tt7CtbrU9Vv06mQmKNt5KhXfyz6LQIiIAIiIAIiMNwEJCQOd/31rPR4vCH02QsXO0b8ufPOOwODErz//e8P8803X/TCQfwqG3iDF34LM0YgxMPJv7Dxks3LqIWXlX1pT4VEyoGnFX2T4TmJMOk7Ly8bnIB0aXgnZV9yySXJLnoTpX0v8iKMYJYaghn5Yc2EPr+tH5mS5QywAs8nnngiihW84KbWLH//UsK2CIt4ZCLuYQzmUNbfGsLv3HPPHdPYP4SCySabLM4iQj3wwAO2Kk7p/83qDnEFgdhET0KrEVIeffTR6D3GC4itQ4QmZC4ViCUk1uCtPJOGoTG6MOzrGcKYtX+fBm+zWf+fvfOAm6Oo//9EFJGEErqKFIEECRBpAlIUpQQBRTCKFClKEYnSURCQJiAIgvQmgYD03kQNVUBEBSmhCIiAAQKhVym/fPbv7P978+zdbZm9u+fyntfreW53dndm9j0zO7Of/c7MJz6Rekk4e/bZZ93888/fUGayLPS0QrFdDEKBaGXvVk6WSCqP1klwl6Wer9eyWJa1sn71PPHWirom/LBgw6m6rQ8jGiruncqwhviqvIudfzZKVNUQ8KwFgySoy3pPHLSYgp6TEhb1/PH3p/BV31Rv6nIK2w7TlzWeXfhKbGWB693xxx/fICrL384HqX09rx944IFE1NWHGc9Dx9ottKJzygqJelbb59fw4cMVXOpefPHFdFvPQmsdG65krhPblVHN4ZtlLe8jKSMk6lqt5i1LSO9Uz7T4llYHlwW3/xCjfNEiHeEzNFYYPv6yQqKur/Lc0PX9VOd1P82cbbPrFBIVf4zyVTVfm3HAHwIQgAAEIACBwUcAIXHw5VnXUqz5urR4gLcyaZWQUEgMhbNwxUkfVjgcUy+7eon1LktI9Mfsr16EZTUZChk6Z911102Gstnz221LQJHwGbqyQqIsBHStnYMvDFtD7CSS6EVSrp2QKOFGQw6tIGHDlJWhwgidHU4ZHmu2H1pLKd/k5wXDrOskZmm1Wmu55M9DSPQk4vyGQmKeUBdccMEBp8mKWJZl3lJ4wAnTPFQ3shalyBISs663fhLX9JwJnfyOOeaYdPhpeFz7l156qdt5552zDkXzkzVkVh3yEWjuRA1xPvvss71Xw68XEhs8gx1NUSCxKksoCk4tvWvnkc0TSNbCMbKOkjXfHHPM0TKIZtaZ4UVlhUTN3SlhO6+z5TxLSGwXTrvncFkhUfFqrjuJhM2cRE4J2vqA18zFCENhVxESqzw3/H31S53395P120khUfFXLRsx8jWLA34QgAAEIAABCAw+AgiJgy/PuppiCV+aJ0kTovthWDZBsviQJY4s1LTqpFw4f1+7xRB0nZ9DTy/TmlvLOyskakVL/XmLQH+OrPvkb4fX+mP61ZCxcFiYPZ613WwlWDsEuNnqpVnhyU9WF1osJrQEkwgqQWWHHXZIFpqQtZJcnvDFWvO0ySJIeWXzqBl3+zKTRJTjX7hiqC6RldMhhxzi5plnngEhyKJTIk+zF+CbbropsczShc0WZbBDqMOhlAMijOAhS0x7L7IQkjg2GJws5WadddbcSc2ae9BfrPolSz9ZnlqRWtfIQkWCQ5bopfMlIhVxEpTHjh2beYmGz0uks0KQTpS4IhFRwyE74fRskZgTfgTQdAxHHXVU5scLny5Z+u69994DrtVxlS9ZbWvYat1OdSzPlA8+HVkL3OiYhAUdGzVqVEPZ0DFZzqmtyPpwoOOhs4uJaLV6tTF5nJ0mot35mrvSP091rl3tu921/ni753DV54bmINaq9n4xLsX73nvvOc2rqw9wahvauRhh6Bl/4IEHNkSl+hcuftRwgtkp+9wwQSRTZgz2Om/vJ9y2cwfr44M+VLRyqm+aCsV+sMsr1Ptwq5aNGPnq08IvBCAAAQhAAAKDlwBC4uDNu66nXEKYRD5ZKGpuMlnQ5XnJqZJwKyTKYkHxSTzTyrEaUighwg+5rRJPJ6/Vy4FebiVaaShb1pDITqanalwSWCQEK1+eeOKJZH6+LKGpajxc33kCEuE1FFdWiKpr3XAqXxqeKqFUoo3qTDec6q2G6cvSVtMrFFmcQyKrBFFZHGtePrEscn037rddnGKh9mDq1KnJEOdwvsx213O8kYAsPvUngVqCfZlnaIwwGlNVbq/qc6Mf6nw5cvVdFaNsVM3X+u6OkCEAAQhAAAIQqJsAQmLdhAk/KoEsITFqBAQGAQhAAAIQgAAEIAABCEAAAhCAAAQgkEkAITETC569SgAhsVdzhnRBAAIQgAAEIAABCEAAAhCAAAQg0O8EEBL7PYf77P4QEvssQ7kdCEAAAhCAAAQgAAEIQAACEIAABAYNAYTEQZNVJFQEEBIpBxCAAAQgAAEIQAACEIAABCAAAQhAoDsEEBK7w51YSxK4+OKL3fDhw93777+frJw6efLkkiFxGQQgAAEIQAACEIAABCAAAQhAAAIQgEARAgiJRWhxLgQgAAEIQAACEIAABCAAAQhAAAIQgAAEplMCCInTacZz2xCAAAQgAAEIQAACEIAABCAAAQhAAAIQKEIAIbEILc6FAAQgAAEIQAACEIAABCAAAQhAAAIQgMB0SgAhcTrNeG4bAhCAAAQgAAEIQAACEIAABCAAAQhAAAJFCCAkFqHFuRCAAAQgAAEIQAACEIAABCAAAQhAAAIQmE4JICROpxnPbUMAAhCAAAQgAAEIQAACEIAABCAAAQhAoAgBhMQitDgXAhCAAAQgAAEIQAACEIAABCAAAQhAAALTKQGExOk047ltCEAAAhCAAAQgAAEIQAACEIAABCAAAQgUIYCQWIQW50IAAhCAAAQgAAEIQAACEIAABCAAAQhAYDolgJA4nWY8tw0BCEAAAhCAAAQgAAEIQAACEIAABCAAgSIEEBKL0Cpx7uabb+4WXHBBN3XqVPfss8+6p556yt15550lQuISCEAAAhCAAAQgAAEIQAACEIAABCAAAQh0jwBCYs3sr7/+ejdy5MiGWJ544gm36667urvuuqvBnx0IQAACEIAABCAAAQhAAAIQgAAEIAABCPQqAYTEmnPmyiuvdEsvvfSAWCZNmuTGjBkzwB8PCEAAAhCAAAQgAAEIQAACEIAABCAAAQj0IgGExA7kytChQ93CCy/sdtxxR7feeuulMa655prukUceSffZgAAEIAABCEAAAhCAAAQgAAEIQAACEIBArxJASOxwzsgSceaZZ05i3Xrrrd3EiRM7nAKigwAEIAABCEAAAhCAAAQgAAEIQAACEIBAcQIIicWZVbrixhtvTKwTFcg+++zjJkyYUCk8LoYABCAAAQhAAAIQgAAEIAABCEAAAhCAQCcIICR2grKJ46qrrnJLLbVU4rPffvu58ePHm6NsQgACEIAABCAAAQhAAAIQgAAEIAABCECgNwkgJHY4X+ziKwiJHYZPdBCAAAQgAAEIQAACEIAABCAAAQhAAAKlCSAklkZX7kKExHLcuAoCEIAABCAAAQhAAAIQgAAEIAABCECguwQQEjvM3wqJhx9+uDvhhBM6nAKigwAEIAABCEAAAhCAAAQgAAEIQAACEIBAcQIIicWZVbri7LPPdquvvnoSxgUXXOD22GOPSuFxMQQgAAEIQAACEIAABCAAAQhAAAIQgAAEOkEAIbETlE0cskLcZJNNEp/XX3/drbbaau6FF14wZ7AJAQhAAAIQgAAEIAABCEAAAhCAsKFFHwAANUFJREFUAAQgAIHeI4CQ2OE8WXLJJd0VV1zhZphhhiTml19+2cky8bHHHnMSFu+88043efLkDqeK6CAAAQhAAAIQgAAEIAABCEAAAhCAAAQg0JoAQmJrPrUclRXiTjvt5FZaaaUB4Z944onusMMOG+CPBwQgAAEIQAACEIAABCAAAQhAAAIQgAAEukkAIbEL9NdZZx236667usUXX3xA7Fp8RcOfcRCAAAQgAAEIQAACEIAABCAAAQhAAAIQ6CUCCIkdzo3Ro0e7Sy+9NB3a/Oabb7ozzzzT3Xvvve7FF19099xzTzLEucPJIjoIQAACEIAABCAAAQhAAAIQgAAEIAABCLQkgJDYEk/8g4ceeqjbdNNNk4Dfffddt9FGGyXiYfyYCBECEIAABCAAAQhAAAIQgAAEIAABCEAAAvEIICTGY5krpPPPPz+dG/Haa691O+ywQ67rOAkCEIAABCAAAQhAAAIQgAAEIAABCEAAAt0kgJDYYfpXXnmlW3rppZNYjzjiCHfcccd1OAVEBwEIQAACEIAABCAAAQhAAAIQgAAEIACB4gQQEoszq3SFFRL3228/N378+ErhcTEEIAABCEAAAhCAAAQgAAEIQAACEIAABDpBACGxE5RNHAiJBgabEIAABCAAAQhAAAIQgAAEIAABCEAAAoOGAEJih7Nq4sSJbpFFFkli3Xfffd1ZZ53V4RQQHQQgAAEIQAACEIAABCAAAQhAAAIQgAAEihNASCzOrNIV9913n5tlllmSMHbZZRd3ySWXVAqPiyEAAQhAAAIQgAAEIAABCEAAAhCAAAQg0AkCCImdoPy/OPbZZx+33XbbpTGOGTPGTZo0Kd1nAwIQgAAEIAABCEAAAhCAAAQgAAEIQAACvUoAIbHmnNFiKssvv7wbNmxYQ0xTpkxJ/Bs82YEABCAAAQhAAAIQgAAEIAABCEAAAhCAQI8SQEisOWOuv/56N3LkyIZYXn31VbfHHnu4a6+9tsGfHQhAAAIQgAAEIAABCEAAAhCAAAQgAAEI9CoBhMSac2bPPfd0I0aMcC+99JJ74YUX3JNPPukmTJhQc6wEDwEIQAACEIAABCAAAQhAAAIQgAAEIACBuAQQEuPyJDQIQAACEIAABCAAAQhAAAIQgAAEIAABCPQlAYTEvsxWbgoCEIAABCAAAQhAAAIQgAAEIAABCEAAAnEJICTG5UloEIAABCAAAQhAAAIQgAAEIAABCEAAAhDoSwIIiX2ZrdwUBCAAAQhAAAIQgAAEIAABCEAAAhCAAATiEkBIjMuT0CAAAQhAAAIQgAAEIAABCEAAAhCAAAQg0JcEEBL7Mlu5KQhAAAIQgAAEIAABCEAAAhCAAAQgAAEIxCWAkBiXJ6FBAAIQgAAEIAABCEAAAhCAAAQgAAEIQKAvCSAk9mW2clMQgAAEIAABCEAAAhCAAAQgAAEIQAACEIhLACExLk9CgwAEIAABCEAAAhCAAAQgAAEIQAACEIBAXxJASOzLbOWmIAABCEAAAhCAAAQgAAEIQAACEIAABCAQlwBCYlyehAYBCEAAAhCAAAQgAAEIQAACEIAABCAAgb4kgJDYl9nKTUEAAhCAAAQgAAEIQAACEIAABCAAAQhAIC4BhMS4PAkNAhCAAAQgAAEIQAACEIAABCAAAQhAAAJ9SQAhsYvZOnr0aDdixAg311xzueHDh7upU6e6k046qYspImoIQAACEIAABCAAAQhAAAIQgAAEIAABCGQTQEjM5lKr72KLLeaOOeYYN2rUqIZ4JCQus8wyDX7sQAACEIAABCAAAQhAAAIQgAAEIAABCECgFwggJHYhFy655BK33HLLDYj5mWeecSuuuOIAfzwgAAEIQAACEIAABCAAAQhAAAIQgAAEINBtAgiJHc6BoUOHuvvvv98NGTIkifnWW291Rx99tHv88cfdCy+80OHUEB0EIAABCEAAAhCAAAQgAAEIQAACEIAABPIRQEjMxynaWcsvv7y7+OKL0/CWXXZZBMSUBhsQgAAEIAABCEAAAhCAAAQgAAEIQAACvUoAIbHDObP22mu7U089NYn1tddeGzBPYoeTQ3QQgAAEIAABCEAAAhCAAAQgAAEIQAACEMhFACExF6Z4J1khkTkR43ElJAhAAAIQgAAEIAABCEAAAhCAAAQgAIF6CSAk1st3QOgIiQOQ4AEBCEAAAhCAAAQgAAEIQAACEIAABCAwCAggJHY4kxASOwyc6CAAAQhAAAIQgAAEIAABCEAAAhCAAASiEEBIjIIxfyAbbbRRskqzrpg8ebJbaaWV8l/MmRCAAAQgAAEIQAACEIAABCAAAQhAAAIQ6BIBhMQOg999993duHHjklgnTZrkxowZ0+EUEB0EIAABCEAAAhCAAAQgAAEIQAACEIAABIoTQEgszqz0FUOHDnU33HCDm3feeZMwJk6c6LbeeuvS4XEhBCAAAQhAAAIQgAAEIAABCEAAAhCAAAQ6RQAhsUbSc845p1t11VXdTDPN5BZaaCG38cYbpyKiopWIKDERBwEIQAACEIAABCAAAQhAAAIQgAAEIACBXieAkFhjDm211VbugAMOGBDD3Xff7U4//XR3xRVXDDiGBwQgAAEIQAACEIAABCAAAQhAAAIQgAAEepEAQmKNudJMSHz00UfdMccc4y6//PIaYydoCEAAAhCAAAQgAAEIQAACEIAABCAAAQjEI4CQGI/lgJA0J+Lo0aPdsGHD3KhRo5KhzLPNNlt63pZbbuluvPHGdJ8NCEAAAhCAAAQgAAEIQAACEIAABCAAAQj0KgGExA7mzAILLOCuu+46J4FRjsVWOgifqCAAAQhAAAIQgAAEIAABCEAAAhCAAAQqEUBIrISv+MUHHnigkyWi3KRJk9yYMWOKB8IVEIAABCAAAQhAAAIQgAAEIAABCEAAAhDoMAGExA4DHzt2rDvyyCOTWJ955hm34oordjgFRAcBCEAAAhCAAAQgAAEIQAACEIAABCAAgeIEEBKLM6t0xdprr+1OPfXUJAyExEoouRgCEIAABCAAAQhAAAIQgAAEIAABCECggwQQEjsIW1EhJHYYONFBAAIQgAAEIAABCEAAAhCAAAQgAAEIRCGAkBgFY/5A1lxzTXf66acnF7z88stu6aWXzn8xZ0IAAhCAAAQgAAEIQAACEIAABCAAAQhAoEsEEBI7DH7JJZd0V199dRLrBx984EaNGuVef/31DqeC6CAAAQhAAAIQgAAEIAABCEAAAhCAAAQgUIwAQmIxXpXPHjp0qHvggQfScC688EK3//77IyamRNiAAAQgAAEIQAACEIAABCAAAQhAAAIQ6EUCCIldyBVZJMoy0TpZJT722GNu/fXXt95sQwACEIAABCAAAQhAAAIQgAAEIAABCECgJwggJHYhG5Zffnl32mmnueHDhzfEPnXqVLfMMss0+LEDAQhAAAIQgAAEIAABCEAAAhCAAAQgAIFeIICQ2MVcGDt2rFtggQXcPPPM4+aYYw43ZcoUt/fee3cxRUQNAQhAAAIQgAAEIAABCEAAAhCAAAQgAIFsAgiJ2VzwhQAEIAABCEAAAhCAAAQgAAEIQAACEIAABAwBhEQDg00IQAACEIAABCAAAQhAAAIQgAAEIAABCEAgmwBCYjYXfCEAAQhAAAIQgAAEIAABCEAAAhCAAAQgAAFDACHRwGATAhCAAAQgAAEIQAACEIAABCAAAQhAAAIQyCaAkJjNBV8IQAACEIAABCAAAQhAAAIQgAAEIAABCEDAEEBINDDYhAAEIAABCEAAAhCAAAQgAAEIQAACEIAABLIJICRmc8EXAhCAAAQgAAEIQAACEIAABCAAAQhAAAIQMAQQEg0MNiEAAQhAAAIQgAAEIAABCEAAAhCAAAQgAIFsAgiJ2VzwhQAEIAABCEAAAhCAAAQgAAEIQAACEIAABAwBhEQDg00IQAACEIAABCAAAQhAAAIQgAAEIAABCEAgmwBCYjYXfCEAAQhAAAIQgAAEIAABCEAAAhCAAAQgAAFDACHRwGATAhCAAAQgAAEIQAACEIAABCAAAQhAAAIQyCaAkJjNBV8IQAACEIAABCAAAQhAAAIQgAAEIAABCEDAEEBINDDYhAAE4hD4+Mc/7hZddNEBgT399NPuscceG+CPBwQgAAEIQAACEIAABCAAAQhAYDAR+PSnP+0++clPDkjyP//5Tzd58uQB/v3igZDYLznJfUCghwgcffTRbqONNhqQokmTJrkxY8YM8McDAhCAAAQgAAEIQAACEIAABCAwmAhcdtllbplllhmQ5GuvvdbtsMMOA/z7xQMhsV9yssV9fPWrX3XbbLNNcsb777/vtt12W/fCCy8k+7IcO/74492HPvShZP+0005zV111VYvQOBSDwAILLOB+9atfpdxPOOEEd/3116dBKx/mmmuuZP/22293hx9+eHpsMGzo3r7+9a8PSGozIXH8+PFuttlmS86/+eab3VFHHZVeu9tuu7nVVlst2X/55ZfdlltumR5rtrHkkku6BRdc0M0xxxzJl6CHH37Y/fvf/252elP/oUOHuhEjRriPfOQj7s4772x6XtYBXfuZz3zGKa8/+tGPuieeeMI99NBDad3LuqaZn+qpvnT997//dffcc0+z0waFv5iIzXPPPVcqT2Ld5Oc+97mEp8rG66+/njvYmPmaO9KaTlS5Wnjhhd2nPvUpp7ZBX06L8oiZtLJ5YtMQIwwbXpntKs8NH1+v1Pleqa+eS5XfqmWjaL72Uzv/k5/8xK244ooJfj27t9tuuzQr1llnHff9738/2ddzZOedd277bI/VRivSsvka81letGyk8HpwgzrfO5nSa210jLJRtr7GzJUY9TVGGDHuqVf6CjHuJUbZKBJGzDYaITFGCSCMniSw++67u3HjxqVpW2+99dx9992X7I8ePdpdccUV6bFjjjmmQcRJD7ARlcBKK63kzj///DTMww47zJ144onp/gMPPJCILfK444473Le+9a302GDYsELibbfd5n77298myf7Pf/7j7rrrrgG38Oijj7oPf/jDif+NN97YIBaeffbZbvXVV0+OSUjLGjKtg1/72tcSK8hVV101DSu56H//JJ4fe+yx7swzz7Temdvf+c53kjTIVN2L7O+++24iBErk/MMf/pB5nToWm266qdtwww2dXpSynMTEQw45xN10001Zhxv8Dj74YLfWWmu5+eabL/V/4403EjFxzz33bPuyll4UYWOrrbZyW2+9tZt77rmT0N566y237LLL5gp5zjnnTJ4ryy23nJtlllnSa5QnEo714tkJt/zyy7t9993XLbHEEm7GGWdMo/zXv/7lLr744qR8pJ5mo0q+qqOivPblyASba/Ptt99OxOysk9dcc0234447usUXXzw9rLKbVcf8CSrTm2yyidtggw3cJz7xCe/d8Dtx4kR30EEHdWQagrJ5YhMcIwwbXtntss8NG18v1Pkq9VWC0o9//GN7S023Dz30UHfSSSc1PR7jQIyyUTZf+6mdv+CCC1Ih8dVXX21o33baaSe3xx57pNk1duzYzA9vMdvosvla5Vme3qDZKFs2TBDRNsu0Bz7yKnXehxHrV2nRc0SjWmaaaaYk2L/85S8N/cJWcRUtG3W20RLe9P71xS9+MU2yDAeOO+64dD/c6LU2OkbZKJonIZNY+zHqa4wwYtxP2b5CP7bRZctXzDZaeooMWOQ23njjtM5jkRijtBNGVwkgJHYVf2bkMR9emRF02dMKiaeeeqpTg9fKVRUS119//cSytlUc/thf//rXzGHX/riEmb322svvDviVoPijH/0o03JXAuHmm28+4Josj1NOOSURFLOOyU9WqRIRm7lnn302EYTqnnNSL4kSEb2AaNPjG03rF26rEyqRTpZvzZxeEr7xjW80OxzF//Of/7w7/fTT3cwzz9w0vDPOOMMdcMABA45XydfFFlusqfA8IKImHiFnvZCrM6iXlNBJ7JUQ2MzJ8nnkyJHNDqf+KueKw1pKpwcjbVTJE5+EGGH4sKr8Vnlu+Hh7oc5Xra+77rpr8nz099Tqt+4PlzHKRpV87ad2vqqQGLONrpKvVZ7lYVmuUjbCsKrsV2kPFG/VOl8l7fZaWVZJdNNLuBcQ/XGNxNDoqnauTNmoo42WsPGDH/zArbHGGm7IkCENyW7XJ+6lNjpG2SiTJw3AIu3EqK8xwohxO1X6Cv3WRlcpX3W10ZYxQmKMEk8YXSWAkNhV/JmR1/XwyoysC57dFhI1VNVPcDvvvPO6z372sw2dOQlKBx544AAy+gKu+R29kzWYhmPLElJzX3irSYksEr7+/ve/+1OT3/Al5fnnn0/SoSHZ6qzqS7N3H3zwQTI8LEuoOeKII9w3v/lNf6p76aWX3IMPPpgM/7bikcKXlV8dbu2113ZHHnlkOuQ8K45Q4Mo6R6LWIosskh7SEPMnn3wy8bOWljpPIlgdThYH4vyxj30sCV7D75Sv3rJm2LBhabShdbAOVMlXvRxdffXVmRaJw4cPT+PVxosvvtiwrx1Zfup5IaewzjvvPLfQQgsl+1n/igiJ4qAFkCTka1tfVPXi4J3KrYYt1jFRdNU8URpjhOHvtcpv1eeG4u6FOq90VK2vtgOt8LLKtPzlZN191lln/b+dyP9jlI2q+dpP7XxsIbFsG101X6s8y20RrVo2bFhlt2O0B4q7ap0vm357nd5T9OHK97HsMW3nERLLlo2YbbTSes455ziNjGnmigiJ3Wyjlf6qZaNsnjRjV9Y/Rn2NEUbZ9NvrqvYV+qmNrlq+6mqjLWOERFt62R6UBBASey/b6np49cqddktIlDikIeKXX355AwrNsXjyySenw8Xfe++9BlHPn3zJJZekwpxERHUc/DQAmhJAQ1K807m77LKL301+9ZKioc0anq1h1KHQGA4p+Mc//pEMMW0IZNqOREMvemluxXXXXTedx08CqJ0nUkPK9JIX28nqUo2hd2ImUUtDw7xrJyR+4QtfaBAKrrvuOrf99tv7y90111zjRo0aleyrw6wvi3WIVhpqKfbe/exnP3O/+c1vkl11RNTQezFRQqefk9OfHytffXj+15Y3iY362t3KycpB1p3WySLVCtR5hETds8LR8KqQt+rPV77ylTQKffnWMOfYrmqeKD0xwohxXzYfyzw3lIZeqPMx6qvtQIf1PQbrvGHEKBtV87Wf2vlYQmLVNrpqvsZ6llctG3nLcavzYrQHMep8qzTmPRaKbxKabV8jj5BYtWxkpdXmc542WmHYZ7n2NaWPnUYkj5DYC210jLJRR56IaVFn87FsGx0jjKLpzjrflq8y7wf91EZXLV91tdGWMUJiVinGb1AR6ISQqAZfc9dp+OOUKVMSK6x2Cxjo5VeT/MtJrPELwJSBqy+KEiT0Ul10qKcsvHT9n//851SsKZMGhaMFMfIs7FHXw6tMuuu4ptNCou5BE+y2WhAlFPHCeZzUcdN8fX4YSmiZpuO33HJLikvlW3PtWadyJEHqkUcesd4N2xKwvvSlLyV+EubCYaZbbLFFw1BwO6epLpIl5C9/+cs0TJVba72YHqi44YVEWV9eeeWViTCqeR9//etfpyG3ExIlVGkuPjkNxVYeWaew7HAl7csKMrbTgkW+I59l+XjrrbemzyLFrTlJNTepdzHy1Ydlf23HNM9Lin1xVL5roSzNh6g5Vb1rJyTK6lDWuq2ezxpqPs888yRBip3mVIztquaJ0hMjjKr3FeO50St1PkZ9tR3obgqJVctGjHztp3a+qpCoela1jVYYVfM1xrM8RtnQvVR1MdqDGHW+6n3oei8kygpe82Lro+1Pf/rT5MOsjucREquWDcUTuqJttK73Qo/mXpZoOGHChGR6E41KkWsnJPZKGx2jbNSRJwnEAv9i1NcYYRRIctNTY/QV+qWNFqSq5auuNtoyRkhsWpw5MFgIxBQSNZmzf9HXXHPf/e53kyFZmqNFK9N6p6GgWv3ZLqKgIXOaa02TDkuQCBcfUAdCgqK+MDRbYVeWZl680Fx0EoM0BNOLBIpfL8ia58wuZuLTZX8ldula/9VTQ031decXv/hFsliGF4kkqDRbvEDX64EhEVUr+3qnNPzxj39M7iXrhT32w0uNnDo8lqmGcoplN1w3hMR296kyJ7HGO3VS1WH1TouXaE4bOZUFDRm24va5557rVlllFX968qu6deGFFzb4tdvZYYcdnFbA9E7Wb7a8y1JMLwhyEsU1x453KqsSM+3w07os+VRPVb4l7nmrNYl+RYRE36FW+vUiaifk10ul6qgts+p46yt4TCe+6sh7JytS1RXv9IwKLUuVp8rbIq5dvmaFVfQlRS/BKjsaDuqfSSoTRYTErHSEflbsfuaZZ9JFFsLztK9nsC3P8tMiGq3qRYw8iRGG0mqdhC8voMpfq9OOGTPGnjJgO8Zzo1fqfIz6ajvQMYTEww8/vGGuWD3vZClun5lhpsQoGzHyNXY7H95nJ/djCInt0tuujY6Rr+3SoOPtnuUxykaedLQ7J0Z7EKPOt0tnnuP60Ks+tEZyeKd2RCM85NoJiXWVjaJttNKqdyQtMmj7GVqgL6+QqDDauSJtdNn3g6plo448KdMexKivMcJol6d5jsfoK8RuowdzH7CuNtoyRkjMU7I5p6cJxBQSZfmk+RnkJPppBVpNjNzMaVVXL8Z8+9vfdrLyauc0b9luu+3mfve73w04VRZnmvNOTkNk7Hxx4cnNhnzqxVurCOurX5Z75513GlZ0VadSD4LQaYjMZpttllqwhce1r7ngZCEUWqjFfnjpXuzq24pbw2vtEFj5dcr1opAYDtOQCG5XX9bqoRpCLKdyLRHNu9AK0PtrGGieMu3P1681xZe1n50/UMclEPmFTSSA7bPPPvJOnDqoarRDp1Xk8qwCHV5XdL+IkCiL4xtuuCGNQiKtPi54J6E9XIG72ZBzf02ZX3288AuoSITQy6oX99XB/v3vfz9gYvd2C/JkpaNdvmZdU+YlJQynDiHRpuvee+91WiihmcuafDy05g2vjZEnMcII03X//fenQ9x1zM+hGZ5n92M8N3qhzseqr7YD7YVEffjw/QDLLs/2+PHj09UP/fmhlbb3978xykaMfI3dzvv768ZvJ4TEdm10jHzNw67dszxG2ciTjjLnFGkPYtX5MunMc00RIbGusmHbwjyjBprdV2wh0aarXRtd5v0gRtmoI0/KtAcx6muMMJqVjSL+MfoKsdvowdwHrKuNtowREouUcM7tSQIS5X74wx+mabOd8LCBabeKohUS0wCnbUgAkGimidVlHejFvmZCoqwPJQTKqkDDO7V4gCYn9tZJsmhcccUVB7x8WCHRxy+RTsOJNaxYi2p4p+F7X/7yl/1u+qsvWnaonixuNJRPHTDN0RauFpclJGpVXzufmYQJDY/U/Wuoqhbm8E4vp3bOMfkXeXjJdNum14drf8N81LHBKiSGQ09tx0Eir/+qa+8/z7aEZa1ALBcKSvKTBZUfenvZZZelK4+qXIRWgDpfrozl2kUXXeRWWGGF5HrVgdDiya5grRcaid5yKjPaVh0JxW7VcYVbtysiJKou+bT79HvLRlkAWmtlm277zLD+ZbfthxQtLKJ0eaf02X3vX8Yysl2++rDtr30ZKPuSUuTF0cbdattaIsj6cd999216eplOZIw8iRFGeFNlhMQYz41eqPOx6qvtQIuvnrV6ZqmPoLnCdK/6AGOnDgjzwe7b57/3t30Y72d/Y5SNGPkau52399jpbVmP637kXnnlFbfUUkulSdBHIlnseKePXa2mGfHnhb/t2ugY+RrGmbXf7lkeo2xkxRvDr0h7EKvOx0h3VhhFhMS6ykaMNlr3FltILNJGl3k/iFE26siTMu1BjPoaI4ysMl7UL0ZfIXYbPZj7gHW10ZYxQmLRUs75PUdAHQu7oIEfEucTqmGUXsDTi5S31vHH7W+WkKgFJTQswYsEOl8rfepr1Pe+9700PH1tVuXSA9kONfThKx3qrPpV2zTEwc4Fp/NCITGca0TDVbfddlsfpNNQbGsNKMsICXN+GLbSLqtCf89qPLWi78wzz5yGEQqJGk4ikc4LjnfffXcyFMbev4ZdH3zwwam1YjiMVoG34i5Ly1lmmSVJgwRaG3aaMLNRpqNgLo++WdQisdX9irefS1MWQhLfijrVAeX7bLPNllya9QXXrk5nxRNrBah8V11ZffXVk3CKirXhUI9w9ejwJcCWPZs+WXyNGzcuHZbfzgKsKK9m5xcREjXdgR2m5KcksFaAEhe0eIy3GFS87USCZmlr5m8/HFjhVi+7fpoGzd+oISP+40AeSzQbX7t8tefa7RgvKWGZaTdHoo0/a9u+zOt4aLkbXlOmExkjT2KEEd5LGSHR1ssyz40w/7pV52PVV9uBDvn6fYmLEmtU1tq5Mi+OMcpG1Xz19xWznfdhduO3VTusMtyqj5knvQqjXRsdI1/bpSXPszxW2WiXljLHw+dJq/YgVp0vk8481xQREusqGzHaaN1rTCGxaBtd5v0gRtmoI0/KtAcx6muMMPKU+VbnhHW7bF8hdhs92PuAdbTRljFCYqtSzbHpjkAoJDaz+isL5uijj07mP9L1Gvq4zTbbNARlhcRw/jidqAethiX6FW/DTpSdD03z4EkQCudakvWNBFDv7MNaflZYkgWirB6zhm1ZMa2uBTF8Gst0FPy1dfzaew/F3jriaxemnU9Gw4k1VDlcUVlz8Mw+++xJUH7RD32tOu+88xJBWGKz8lpDjf0CIs1WXc5Kj8qmOpN+Pk9ZwmrRFS9i6xoJqhoO6J1f9MM2St7CVWVqvvnmS06ta2Vdnw7/W0RIlKAvAV3ODuEWz5VXXjnxl/Ci8mEXsWknXCUXFvgnsVYfFOR8PVReWCtT1fG55pqrYZEbL3y2iypPvjYLI8ZLiuKPNUeiOlTKHz/fqzrPeoa2cmU6kTHyJEYY4X2VERKrPjd6pc7Hqq/2WSW+EuX1cdC3yZZ5nrahzItjjLJRNV/tfbLdnkCeNjpGvrZKSd5neS+XjSLtQaw634pplWNFhMS6ykaMNloMYgmJZdroMu8HMcpGHXlSpj2IUV9jhFGlLujaWH2F2G10P/UBq+aRv94yRkj0VPiFwDQCoZAYzntWBJI6PAsvvHDyAu8tIiXwyCJJLmueMiskSnSUYBU622BL9LHWj1bgUlhZ881p6KzC8C4UEq+55pr067vmiQznyPP3osU6tFCLnIZyL7300j7I6L+ytDzooIMawpVooka3G85yzvOyWGcarXiseJrNa2iHDGjBHa2Iqzn+NFeMnPhKsNMcoaoHco8//viA+buSAxn/tLCLt2SUiK35K8N5DUMzewl3ehGXuCgrWgly+lKscmfTZhcy0dyOGh5cxmkOQ4XdzBUREu2wFomlWrzIWgFqmKMERZXdv/3tb2mUdjEUfXmfYYYZ0mN5N1566SWnOW3k7Nxe3oL0qKOOSud21Vys2223XfIBQ88U7/IOsc6Trz7M8DfGS0qRF8cwfruvfNDwalkeybX6SGKvkxW3LLCtk0DcauhqjDyJEYZNs7ZVx8XBO30gajWsW+dVfW70Sp2PUV/FQ/Np6gOIyvall14qr8SpXGkKBs2p7NtIPc90fisrc41s8FNO+LD0XLAfYLy//41RNqrmq08Lv+0J5G2jY+Rrq9TkfZZXLRt1ttFF2oMYdV4f3fURrqhTH0irAreqx0WExLrKRow2Wmzse0nZPnHZNlrXFX0/iFE26siTMu1B1fqq/KsaRow6H6OvoHuJ3Ub3Ux9QfGI4hMQYFAmjLwlYIVHDkyQEFnFq0DRfo1ZdnHXWWVte6q2H7ElWSLSCgz3HzuUTDim281yo0+gtpuz12raNRigkSmjxw47D65rt64VJQmKrTlOzawejf68IiRKuJPwNGTIkwdjKglDH/NBndXA17NYLwbJe3HDDDZMwZK0oQU1OZcEL34lHk39WfNQpdgikvSRctVILFCkN6kDI2Q6ohoF568YzzjgjHR58yimnJFML2HDzbmsoygknnND09CJCouqNX83Xl3/NIzrHHHMk4XtrYQ11thaJ+hKuFcdDQb9pojIOvPbaa6nYby1dNBeqLIq9lanm+vritNWpJRhJDNMCSt7lsUjMm68+zPA3xktKkRfHMH67L7FaX7zl9GzXfKJ2lXN7btXtGHkSI4yq96Hrqz43eqXOV62veVmqXNkhzWeeeabbf//9816e67wYZaNqvuZKKCclH5fyttEx8rUZ8iLP8qplo842ukh7EKPO6yOg/fjSjG+Wv/oTsvRq5ooIiXWVjRhttO4vhpDYyTY6RtmoK0+alZdm/lXrq8KtGkaMOh+jr9CMkfUfLG10r5Qvy85vIyR6EvxCICBghcTnnnsuXTQiOC1zVwuQaHGDrCFOWRdkiTRWSNSLvxUgfBjnnnuuW2WVVZLdn//85+7kk0/2h9zNN9/svEAgsctaIKUnTdvQqr1+DkQ1qDJNlgs7aYlnzn8Sg9rNdZgzqJ4/rReERA1nVd77OTe1gIYWvWkm5loLP5UTLfYjK0At/KPVnP1cm3Zohbdwa5UhEtNUhryTSCaxLMupQ26t82Qtp/lG5Z544onUolH7VtD2FpTyj9FhUThZroiQqI8Ftn7Ze7nyyivThW/CzpF/uYglJNoXRE2HIOetTO2HBs3zqsVt5FRGZEHZyhXJ12bhxHhJCZ9JXqBtFmeWv/34ouOa31WidV0uRp7ECCPG/VV9bvRKna9aX4uw1HPTf4TUs3aLLbYocnnbc2OUjar52jaRnJBMOVGkjY6Rr1nYiz7Lq5aNOtvoIu1BjDrfK0JiXWUjRhutMldVSOx0Gx2jbNSVJ1l1uJVf1fqqsKuGEaPOx+grtOJkjw2GNrpXypfl5rcREj0JfiEQELBCop+rLTil6a4VAXWSrLw0tFNzxckySE7WXd7Cq52QKGut2267LbnO/mslJNrGoNUK1VqMw1tMWiExfJBLGM1Kg02PtmXdVpd1TxhXL+x3W0jUUDhZ/XnResqUKYkVbDgfpmWlxTY0/0zoNMRZQp13tmOpa9RgNHP2q67OkUWchu+3ctYa1p+nYUB62bbCuYZV+yGCGoYia1s5CdZ2RU0fRp5fzUvqxbas84sIieGk9T48DTvWUAgv6GoRJuWVd3ZIseZL9Pfoj+f5VRyeh1YT1RQMoQvzQiKixES5ULQNry2Tr2EY2rdlqVurNmu4/lprrZUmz1q9pp6RN2LkSYwwYtxWjOdGL9T5GPU1L09r1f3UU0+lH/7yXt/uvBhlI0a+tkvn9Hy8TBsdI19D5mWe5VXLRp1tdBEhMUadl+CkfnFRpz6N2p5WrohFYh1lQ2mL0UYrnCpCYjfa6Bhlo648Ec8irmp9VVxVw4hV56v2FfJyGwxtdK+UryymCIlZVPCDwDQCVkjMEvqaQdKiEjJD9m6//fbLnL9PFkLeWisrfCtGlhESrcgoEdBbIPl0+V+JKX5uNisk6rjmc/KrOodzMPrrp/ffbgqJsnDT0FU//FzzU2rOrlbzcCm/sr4YZi3oY4c4yJpCVq9ZLly5W/FrfjAvoGVdI7+sL/zqzGoov3ehFZ/mW9QXxLpdESGxmUWhhjVq7hzvrCVgmekSfDjNfiVG6nlj3dtvv+3GjBnTIJraYRJ2KLu9Tttl8zUMR/sxXlKKvDiGabD1VMckvkqUrtvFyJMYYcS4zxjPjV6o852sr9aSYOrUqU6jFWK6GGUjRr7GvKd+CqtsGx0jXy3Hss/yXi4bRdqDTtZ5yz3vdhEhMXbZ8GmM0UYrrLJCYrfa6Bhlo6488XmT9zdGfY0RRt70tjqvU32FwdBG90r5ysovhMQsKvhBYBqBskLiuHHj0hdUfVGRsJjl7GTXdQiJdsXlZhaVeqm57LLL0uSFQqKdp6QT1jtpQlpsqPOoRQGs9dZdd93VINi0uDz6Idv56SQjDVnVl0M/D98bb7yRWPKJRTsnUViLbngnUUsCpMRr78KyoSFREqdDpwVRNKzXi9ESJDXBcTsRUeGo7NkXa83fp6/D9lrNM6qFC7zT8VbWlv68qr9FhETFpVXd/QrA2v/Tn/7kNt10U22m7pxzznGrrrpqsu8XYEkPRtjQHIjhokMqn3bYtaKxK/ZefvnlyVyuYfRV8jUMS/sxXlKKvDjaNGj4sh1Squfa9ttvb0/JtS0rXrUL1kkoblXnYuRJjDBsmrW91157NVjXPP/88w3WyOH52o/x3OiVOt+p+mon4b/77ruTBaSy2MpPZctaiuu5rIUD7PMwvDZG2YiRr2G6YuyrjKrOe/fkk0/WOg2BjyfWb5U2Oka++vuo8izv1bKheyvaHnSqznvuRX6LCIkxy4ZNY4w2WuGVERJjtdFl3w+qlo068qRMexCjvsYIw5arstud6isUaaP7qQ9YNl/C66oKiYOpnR8ybaL7D0IA7EOgGYGyQqKsqbQyn5wsujbYYIMBUegrteZO82JYHUKirB3tAit+PjabGPslRv6hkKjFKPzwa62oq7n0Wr3U2LDr2h49erS74oorGoKXhZos1brhuiEkalVQNbLzzTdfcsuyOlN+hysjN+MRfoHNWuxHlm36Cib31ltvJasjh3mvuRm1YrAX0J5++umkvEsQzOO0CqJdKVZDDCSAW6d64lcBb/cibq+rul1USJSIrNXqvJMVoLUMVQdXq7P7Ieh1ic6Kw68sqXIxYsQIn6TkV3l2+umnp35Z8wxWzdc0cLMR4yWl6Iujog+HhFSZp27HHXdMBDhzW8lK9lodvZWLkScxwrBptGKy/PV8V7vUysV4bvRKne9EfdWQVs335dv5ViMDxN3OSevzQe2v+getXNWyESNfW6Wv7DFNu2BdHUPDbfgxt6u20UpL1XxVGFWf5b1aNnRvRduDTtR5pauMKyIkKvwYZSNMZ4w2WmEWFRJjttFl3w9ilI3YeVKmPYhRX2OEEZatMvud6CsUbaP7qQ9YJk+yrqkqJA6mdh4hMasE4NeUQFkh0QoQWsFVll7WYkUdTA0t9KuGKgF1CIkK1w5NlRXXZpttllpzaf46rVzrF+jQ+aGQqDReddVV6TkS7PTQyBKKFN4mm2ySDJvVIht1ubIdhbrS02khUXP0XHrppelCOipjaty0wEcRp3nqvHAgwUlWC174ktWfVhj1ZSNrTjvNg6JzvDCmBYk0nLmItaBeBCQOzjjjjEnStUiM5hH0TpaIskj0TqKjnWPQ+9fxa+uxwvcLFzWLSyKiOqPe2UVW5Kch6CuvvHJyWHMmyVK51RyNPpyiv1oVdptttkkvs4usqOyonMw999zJcc3Zqo8D1sXIVxue347xklL0xdEOJVc6wrkifdry/pbtRFbNE6UvRhj2PssIibq+6nOjV+p81fqquU/1AqxynfVM0nPssMMOS1ebFzuVH/Fr5sq8OCqsGGWjar42u6cq/oPpBcPeZ6w2umq+xnqW92LZEO+i7UHVOm/zOPZ2USGxatnISn+MNlrhFhESY7fRZd8PYpSN2HlStj2IUV9jhJFVxor4Ve0r1NFG91MfsEhetDoXIbEVHY5N1wTKCokSCm+99dZUhNHiI/pSJdN5Oa2mO/vsszewrUtIDL/0vfnmm+7BBx9M5j3UVydvKeETEwqJ8j/kkEOSudL8OVrcQQtVSPTRas8avqOvOn4S6rpXQS3bUfDpj/3baSHRPrT9vWhuxFZOc54cd9xxDadoqKfyyjtZG2rhnXfeeSdZodwLhBK9NEQ3XGgnXFlP4bRLhwQuK6rrGqXLWu0+++yzyarRWkV6ueWWS8to3RaxGs4xduxYJSlxmnfSC6nyULkXCzn9brXVVu6ee+5J9v2/22+/vUE4kDCr+5l//vndoosu6k9zWRag6cGKG6rXGrrr0y6hWcz1u/jii6fWioomywI0Vr6Gt1HmJUWde7v4jyxfhw0blgate1K58E6LBVkxNxyupFXJNQVAMydBfYUVVmh2OBGCNAzDOolF7SwSq+aJ4osRhk13WSGx6nNDaeiVOl+lvupZ4a2n9ezUNCaarkDPhoUWWqjhQ6HuWW2mFfjlF7qyL44xykaMfA3vp+r+YBUSY7XRVfM11rO8V8pG1fZA5bFKna9anu31F110UUOfYPjw4fawe/HFF9N99dv9R0jvWbVs+HDsb5k2WmKPRsL4/obCa3Uv6vvYaUVit9FV3g+qlo3YeVK2PYhRX2OEYctW2e0qfYU62uiyQmKMshEjjLL50Oo6295de+21iUFSq/PDY4OpncciMcw99lsSKCskKlBN4q+5Els5WSNJhJOrS0hU2HZFKu1bJ5FDYuBss82WeGcJieooHHvssckQGXtts22ExP8vzjVjVMXfPrTzhnPGGWe4Aw44YMDpdsGfAQeneWiOLg1x1nyeoct6SQnPCfc1/DrLWtXOURJeo30JlOrYhMJd1rll/awgnCeMrEVfVJ9leTjvvPM2DSLvQjRNA8hxQMMhtVK7H3KedYmsWv0UDPZ4zHy14ZZ5SZE1txUSbXhZ2+GCQOFLStY1oV8ry9OynUjFUSVPfBpjhOHDKisk6voqzw0ffy/U+Sr11b6k+Htq9vvQQw85LZiWZclvryn74qgwYpSNGPlq76fKtj7I3nHHHQ1BPP74405zkfW6i9lGV8nXmM/yXigbVdsDlZsqdT5mudMcyvrAmNdltUtVykZWvGXa6Kx6mhW29wsXd4vdRlcREmOUjZh5UqU9iFFfY4Th873Kb9m+Qh1tdD/1Aavkib3WtndFhcSs50cvt/MIiTbn2W5LQAtGyMJFTotQ6KFUxOmBs9NOOzVMFq7r9TKhIaESEluFr698smyQy5rfUP6a60xz4MjJomrChAnJdvhPaVl33XUTKwmJCxqGKislCYRaAMJbEzZbHVrhbbTRRsn8YH5evjAO3Y+sLjTMq8jw1jCcdvtq7CdOnOiGDBmSniozfN1jN5wVoHT/p512WpIMDRutY+hqOBQkzz1nWZ756zSnp0Q6Xwa8v6xrjjrqqGR1W+9nf+3Kv9a/1Xar8qX5ONdYY410lXCFI2vehx9+OBHm280T1irePMfs0KI852sYd2hdqeumzcWbiPcaNm6/0svaTV+8VU7DuSbzxFf0HD0XJAKHLyASZSUiahhOloudrz4Ou9CMOoZa0bqdC4eXtztfddEuLCML21lnnbXdZenxrDkl04PTNiQeH3jggdYrYawOfx5XNk9s2DHCUHga5j3PPPOkQeujkizL87qyzw0bfrfrvNJStr5qkSjVoaWWWqqhntv7e+WVV5I2XvPI5nGybNWIBe9k3VhkCoQYZSNGvvr0V/mVFbyeydbpo4LvM1n/XtuO3UaXzdfYz/Jul42q7YEvJ2XrvL8+xq8d/tsuPM1RPXLkyMzTypaNrMDKtNHqN+r9yPZ1ssL2fhrZon6gd7Hb6KrvBzHKRqw8qdoexKivMcLweV3lt0xfoY42up/6gFXyQ/XEfwjR+6PvtxQVEgdbO4+QWKXUcG0pArLmGzVqVDKEQZ0BCQ91imx5EqmG31pGSP33Q5yXXXbZhmNZ4eme9NVvkUUWSRbh0AIbCmPy5MlZp/e9nxUS7c3K8kwLbgwWpw6YViTT8E8tSGHLSCfvQWVLfxIyJbx1QnSr6/40T5o+Bqgs2BWx64ovK1zVdw2LkqAm8eiRRx7JOg2/DhKIkScxwohxyzGeG71S58vWVwmwEmWVJ3JaXVh1vlttYoyyESNfq5SvcCTFlClTGla0rhL2YL02Rr7GuPdul40Y9+DDKFvn/fW98tsrZaNXeMRIR9Wy0St5EqO+xggjRp6U7Sv0YxvdzfIVrqjt87aokDjY2nmERJ/T/ELgfwT0ZVBzfMm1+ur5v9P5ySDQL0Jixq3hBQEIQAACEOg4Ac2lZkc/HHTQQam1f8cTQ4QQgAAEIAABCCQEYgmJg62dR0ikAkx3BPTFQkOBbrjhhmTYs7XukvWZzMX9fG7dHB48mDNGE+AuscQSA25BlppZQ18HnIgHBCAAAQhAAAIJAQ2buuWWW1IasuzUCsQ4CEAAAhCAAAS6S0DDxtVOh05TUWk0Rh43GNt5hMQ8Ocs5fUVAIpfmYpHTkFWtLKl55+Q054qf10Rzg8mMv1tDsZIE8Q8CEIAABCAAgemaQDgP1b777pvMvTxdQ+HmIQABCEAAAn1CYDC28/8HAAD//781Q4kAAEAASURBVOydCbxVU/vHF4UUkqkyD6mQoVQylLwkY5Jk+EumSCpEhshrJpGh4kWmMmWIwhtJkjlDhmTIVIYoqUxF6O+3XmtbZ9995n3uOfee7/P5dPe09tprf9ce2r/zrOdZYeONN15uMAiUEYEtt9zSTJo0KeUZL1682AwaNMiMGzcuZTk2QgACEIAABCAAgUIS+Ov/6qZfv372EEuXLjXnn39+IQ9H3RCAAAQgAAEIVCKBqvieXwEhsRKvEA5VMgROPvlk07p1a9O4cWOz1lprmdq1a5tFixaZzz77zHzwwQdmyJAhZsGCBSXTXhoCAQhAAAIQgAAEIAABCEAAAhCAAASKTQAhsdg9wPEhAAEIQAACEIAABCAAAQhAAAIQgAAEIFAFCCAkVoFOookQgAAEIAABCEAAAhCAAAQgAAEIQAACECg2AYTEYvcAx4cABCAAAQhAAAIQgAAEIAABCEAAAhCAQBUggJBYBTqJJkIAAhCAAAQgAAEIQAACEIAABCAAAQhAoNgEEBKL3QMcHwIQgAAEIAABCEAAAhCAAAQgAAEIQAACVYAAQmIV6CSaCAEIQAACEIAABCAAAQhAAAIQgAAEIACBYhNASCx2D3B8CEAAAhCAAAQgAAEIQAACEIAABCAAAQhUAQIIiVWgk2giBCAAAQhAAAIQgAAEIAABCEAAAhCAAASKTQAhsdg9wPEhAAEIQAACEIAABCAAAQhAAAIQgAAEIFAFCCAkVoFOookQgAAEIAABCEAAAhCAAAQgAAEIQAACECg2AYTEYvcAx4cABCAAAQhAAAIQgAAEIAABCEAAAhCAQBUggJBYBTqJJkIAAhCAAAQgAAEIQAACEIAABCAAAQhAoNgEEBKL3QOVcPxOnTqZ4447zh7pzz//ND179jQLFiywyw0bNjQjRowwK664ol0eOXKkefzxxyuhVaV1iObNm5vBgwfbRs2cOdOcdtpppdXASm7NddddZ7beemt71IEDB5rXX3+9kluQ/eHuuusuU7duXbvj1KlTzdChQ4NKzjjjDNO2bVu7vHjxYtOjR49gGzPJCbz99ttmlVVWqVBAzxHxdM+RCgW8FXHU4VXHLAQgAAEIQAACEIAABCAAAQgUkQBCYhHhV9ahzzzzTNO3b9/gcPvvv7+ZMWOGXd5+++3N+PHjg23XX399ggATbKjmMwcccIAVVHWaH330kenQoUOVO+Pdd9/drLDCCkZC2fTp0/Nq/8SJE02TJk1sHaecckqVEJc/+eQTU7NmTdvmKVOmJIiFo0ePNu3atbPbli1bZho1apQXn3LZefbs2UlPVULinDlzkm53G+Kow9XFFAIQgAAEIAABCEAAAhCAAASKSwAhsbj8K+XoCInpMVd1IXGrrbYyTz75pD3Rn3/+OfAmTH/m0SUQEqO5lNtaeenWqlUrOO3OnTsH85kKiXHUERyUGQhAAAIQgAAEIAABCEAAAhAoKgGExKLir5yDIySm5yxvPg3rlmkoZteuXdPvVEIl4hYSH3roISNvVZmGwsvDr9QNj8TC99Cnn35qatSoYQ+UqZAYblUcdYTrZBkCEIAABCAAAQhAAAIQgAAEKocAQmLlcC7qURASi4q/Ug4et5BYKY2O+SAIiTEDjaguDhEwjjoimsYqCEAAAhCAAAQgAAEIQAACEKgEAgiJlQC52IcolJC49tprm2bNmpklS5aYadOmFfU027RpY4//yiuvFLUd7uAbb7yx2WyzzeziZ599ljaWnFhqH02/+eabIIalqy/dtNSERLVn5ZVXNj/++KORcJSrKRnQNttsY+tIV085CIm6zpUYSV6zGsJe2RaHCBhHHZV93hwPAhCAAAQgAAEIQAACEIAABP5HACGxDK6EOIXEOnXqmEsuucQmrlh33XUDesriqsQLl112mVF8vbBdfPHFRtmjZYsWLTJK+BIlhEiYVPZdN3xy+PDhwZBj7fvss8+aevXqGR3vxBNPNAMGDDAtWrSwopW2//777+b99983p59+upk1a5ZWRdqWW25p7rjjDpucJFzgvffes3WH10ctP/jgg0Z1yU444QSz2mqrmfPPPz9Y5/aReCI2kyZNcqvMvvvua/bbbz+b/Vbn5JvO44svvjCqX1m1w6Zhx+LkrHbt2gnZdRcuXOg2BdMnnnjCnHfeecGyPzNkyBCzyy67+KuCebHMRChWmy699FLTtGnToD9UiYTmN9980yhz8ty5c4N6/Zlx48aZTTbZxK466qijzKGHHmr23ntvs/766wfFdL1cdNFFZsyYMcE6fyZuIVExJ9dbb73gEPPmzTP77LNPsFyoGcXrFEfZ888/b26//XZ7TW277bZBHy9fvty8+uqrNht71H2ka0usZC+99FJkFvLNN9/c3H///baMxGt3f9oVSf7EIQLGUUeS5rEaAhCAAAQgAAEIQAACEIAABApMACGxwIBLofq4hMTWrVsbZXX2xZ3w+UngUKxBJ4S47fJQe+SRR8yqq65qV02dOtV0797dbQ6misXnPPm+++47KyYtWLAg2P7BBx8EdQQrI2Z++ukn07t3b/Pcc89FbDVGnl3JBKlssjZL6JEnoezKK6+02bEltkaZREH1hTMJPBtssIFbTDp95plnbL2+YNS+ffsEITHpzt4GCbyKdxhlDzzwgNlpp52iNplMsjb36NHDil3yQkxmyibdv3//BDHVlZVQWb9+fbsoIVjXSzKTeKz2hi1uIVGCsoRhZ/KulNBdaBNLCe8yCXyrrLKKFc+jjvv5558bxfcMm1+H2EqYDVvLli3Nww8/bFerb7bbbrtwkQrLcYiAcdRRoWGsgAAEIAABCEAAAhCAAAQgAIFKIYCQWCmYi3sQeYL169cvaIS8AWfMmGGX5UU2fvz4YJuEwqFDhwbLbkbi2Msvv2zq1q3rVhkJLfqnbbvuuqtZc801g23yFnzqqaeCZc3I00xeec4kvN10001u0Vx33XXm4IMPtst//PGHkRgioc63KCFRwpPWb7jhhqZVq1ZB8fnz5xuJJVEm8c9vy0YbbRQImLkKif5xJDppSPNKK61k5PklMSiVkKj2z5492wpHEq/Es0GDBkGVd999d4I3odo/cODAYLu8Q/1znTBhQrDNzUi4HDVqlFtMmMrrUJ6dznR85xWaTkhUW+QpWrNmTbu7vEUlXi1dutQKYC5pizbKU3KHHXZwhwmmvpDoVsqjVH0hsdXf5+OPPzZ77rmnKxZMfSFx8uTJ5thjjw22yXtT4qvst99+q+AxajeE/pSCkOia9Msvv1imv/76qxXB/ftQ97Y8On1DSPRpMA8BCEAAAhCAAAQgAAEIQAACcRFASIyLZAnXI6FPceZkEnlef/31hNZKgFLcNZnEE9/zzRUcPHiwOfzww+2iRD4Nm/SH1iq2n5Y1/FKmYbm77babnff/DBs2LBhCuWzZMnPIIYfYeG9dunQx1157bVBU5a6++upg2c2EhUR5pslDzdlJJ52UILBpmPHo0aPd5qRTDSd1Q4jzERIl9Fx11VUJw7HF/4ILLrBDrV1maDVEQ1blbampxNCwqWyHDh3savXJ1ltvHS4SLMcdI1Hei02aNLH1pxMSfQFYQ7LVH2PHjg3aJqFLYrYzCdUSrH0LC4m33nprgler+tH3ptxrr70qDF0Xg9VXX91Wq+vPH0atWIsSi2USeaN4243en1IREr/++mtz9NFHB+erc9Ewdd1zsihPU4REryOZhQAEIAABCEAAAhCAAAQgAIHYCCAkxoay+lYk4eKFF14IPM7kRShvwrDJ805eiG5462GHHWaikp/4w5cVV1Heiw899FAwjFT7aN8o84VEDX3ecccdKxR79NFHTfPmze16iUGKQ5jO4hIS5dnni2jpjptqu4QixRZ0pvh8yQSwYgqJviegzl0Mwqb1rq8kjO28884JRXwhUUNf99hjj4TtEmPfeOONYFi7vA3ldVhIKxUhMeqaOvfcc02vXr3s6SvxSji+IUJiIa8M6oYABCAAAQhAAAIQgAAEIFC+BBASy7fvMz5zJb2Qh5gzCRiKQejMeTNqWbHdNt10U7vp8ssvNzfffLOd9/9I9JLYV6tWLX+1nZeHnrzw/LiIfiFfSLzzzjvNv//9b3+znfdFlB9++CHwkqxQ0FsRh5D44Ycf2piOXrVZzWqIsIZn+1yUEMaZhoaHh3q7bcUSEpVoxk8gIw/TsMer2titWzejhC4yecW6OJh2xV9/fCFRnqnycgybjuMS2yhpjIZ7F9KUVMh5/ek4uiYHDRpUyEPauv3rV0Oa1bdhk3Aor11ZlDDr1yG2xEgME2QZAhCAAAQgAAEIQAACEIAABHIhgJCYC7Uy2+fkk08255xzTtZnrXh8yYQXDdWUUOObhkzL0yxZghSV9YXEZEk3/CQS2sdlA9Z8MotDSAwPx012LH+94lVqOLaGhPuCrF/GzSfz8NT2YgmJGmJ822232SYq0Y4TkV2b3TQsOLZt29Zm+XbbfSExygNP5ZQcR0lyZJkOWbeFq9gfXwSM8s7U6fjJgpSQJZwox68DIbGKXQA0FwIQgAAEIAABCEAAAhCAQAkTQEgs4c4plaYp5l+yocap2iivw1NPPTVpEX8Isgop6Uvfvn2TltcGX0iUWKJh0mGTZ5/vuRcVTy+8TxxCouIg+nEjw8cIL8tbU8OVMzXFCFQ8vCgrlpB4zDHH2HiZalOqzL8amjxz5syg6RKSfcHYFxKTeV7ee++9NgmNKknm7RocoArP+CKgvDvl5Rk2XyyP4u7XgZAYpscyBCAAAQhAAAIQgAAEIAABCORKACExV3JltJ+SnrihkYsWLUrqZRhGonh+yrwbZRL7lFlYGYqdffXVV3ZYc1SyF1fGFxLDYpQrExYS/SzVrkx4GoeQGJWpOnwct3z88cfbBCxuWQlAlEBDvJRtWklLZDfccEMQm7IUhUT/PHRt+Bma3blpGhYSwyKwLyQeccQRRhmmw1aOQmKuIiBCYvjqYRkCEIAABCAAAQhAAAIQgAAE4iCAkBgHxWpeh7wEzzzzTHuWUfHYcjn9J598MjL22zPPPGOOO+64pFX6QqIyAStJS9iUaEXejs6U7TiVOKlycQiJqYQ+1xY3lfelE92UrOTAAw+MbONnn30WDHlOVX+xPBI7duxobrnlFntaUbEP3fmGhzYrmYqG7TpDSHQkjIlDBJQY6xIiJfNq3Hfffc1//vMfe+Aor8Z/WvTPnPqsRo0adkV4ePo/pVLPxVFH6iOwFQIQgAAEIAABCEAAAhCAAAQKRQAhsVBkq1G98ui78cYb7Rn99ttvZocddogUvTI9ZQkcEjpkiqv37LPPmn/961/B7tquzNBR5guJEkGuuOKKCsU0DFvDsWVLliwxTZs2rVAmvKKyhUR5a9auXds2o1+/fmbcuHHhJtnM074gmqmQqD5ySUkqVJrhCg2hbtKkiS19yimnmMcffzxyT1/AVIFk3p8HHXSQ9a5UmahYiqUoJJ599tkJyVaUJdxdVzqPQlkcQmKXLl2MktbIJFT795drt64nxZqUZSokymPWZWXv3LmzmT59uqsu42kcdWR8MApCAAIQgAAEIAABCEAAAhCAQKwEEBJjxVk9KwsPFZaoOHjw4JxO9uCDD07IyHv77bfbGHuKLdi+fXtbp4b1SgyMyv7rC4nJvCPvu+8+s8suu9i6Pv74Y7PnnnumbWtlC4kfffSRWWWVVWy7NDzYz3zsGjty5Eg71NstpxISGzZsaF555RVX1LRo0SJp5uugUIqZTIVEVfH555+bFVZYwdamTMrKqBy2e+65x+y22252tQS5HXfcMaFIKQqJ7733XsLQew0/b9asWUK7C7EQh5C4++67GyU7kiUT0/0YpZkKiYo9queBLNfM2XHUYRvAHwhAAAIQgAAEIAABCEAAAhCodAIIiZWOvGoeUMNXNYxV9ssvv9gszlFedJtvvrnNvKzsvd27d084WW2TZ5vi5ckk1Oy33352XuvkmVi/fn27LJFQSVLCQ5J9IVEFhw0bZhTD0Zk83+SJ5YZfapvKpLPKFhIlHDqvwcmTJ1tmfhslGkqocQKdtqUSErVdnmc1a9bUrJEIGc6KbTdk+CcbIVFZm9VXMolWaqef7KZbt25WeHZZqaPahpD4T8fEISTqXtP95Ez3xHXXXecW7b156aWXBsuZCol+nEoNu1cimAULFgT1ZDITRx2ZHIcyEIAABCAAAQhAAAIQgAAEIBA/AYTE+JlWyxrl8SZhYtVVVw3OT+LP22+/bZRkY4MNNrBDYeUJJ/ErKvHGU089FQwzlkCojMVz5swJ6pMXoTzanAiojMwSVXwLC4naNnXqVPPOO+9YTykJk05M++GHH8y2227r727n5VF10kknJazXMN5WrVrZdUuXLq0Qe1Fx3SSYhc33rkon9Pn7DhkyxEhgc6YEK+I5d+5c6/XWpk0btymYpqvf9zDTThIW5ZEpcU+mBCZjxoyx8/6fY4891jRq1MhfZbp27Wpq1apl17322mvmww8/TNiujNOu7+SlJ4HYiZ4aWq3EMV9++aVp3Lix2XvvvYNtEqGVcTgsECMk/oM3DiFRtSkrtgR9Z08//bT56aef7HDtdu3audV2mqmQ6Avu2lH9KO/aX3/91dbz4IMPVrh37AbvTxx1eNUxCwEIQAACEIAABCAAAQhAAAKVSAAhsRJhV/VDKf7d5ZdfbtZcc820pxIWEsPCmZK3SHQI21lnnWUUk8+ZYtKNGDHCLZooITHY6M1oePQ555wTeQw/yYS3S8pZxTSU8Bm2XIVEeWBq37XXXjtcZbCsLNbrrLNOMAQ6nZDYunVro2HdTkgNKvp7Rl6GqiNsyRLfhMv5y71797ZioVunftM6Jya69f502bJl5sILL7Risb9e8wiJ/xCJS0j06/mn9n/m5PW7/vrr2xWZCokqPHr0aBMWIl2tLlSBW042jaOOZHWzHgIQgAAEIAABCEAAAhCAAAQKRwAhsXBsq2XNEr6UDEXxDF3SBf9E5f0mzzd5qI0dO9ZuCsfv05BoJRhJZtrPxdCTx5OyLjvzhcTTTz/d6J+L2ebKyLtP6/3htW6bpn78OH99qnkllVByibD5Q4CVQEbnnqlpaLOSxThPSLefRNAZM2aYXr16GcWOdElPMqlfrBVzUV5f6iu/j5JxD3syunakmkqkkseob/I8vOyyy8x6663nr7bz8ug87bTTrAdrhY1/rfC95zp16hRZzh9CnWt8vqhjJ1snT0z/XL799lsjsbbQJm/Qa665xh4myitXG5TkZsKECVa4lRdrlAeryvXp08feC764LI9b8ZZAr2tC4m+qOlRP2FSvhHV5svpeysOHDzf60SATi6OOTI5DGQhAAAIQgAAEIAABCEAAAhCIjwBCYnwsy64mCWES+eSh+M033xh50EkAK6T5QqLLECzxTIk8lA1Ynm1uyG0h2xFn3YpnJ7FQopUy2mYjRsbZjrjqkoApIVj9Mnv2bCNBLjyUOa5jUU96AvJ+1XByDXOuDtdX+jOmBAQgAAEIQAACEIAABCAAAQgUigBCYqHIUm9BCEQJiQU5EJVCAAIQgAAEIAABCEAAAhCAAAQgAAEIJBBASEzAwUKpE0BILPUeon0QgAAEIAABCEAAAhCAAAQgAAEIVFcCCInVtWer6XkhJFbTjuW0IAABCEAAAhCAAAQgAAEIQAACECh5AgiJJd9FNNAngJDo02AeAhCAAAQgAAEIQAACEIAABCAAAQhUHgGExMpjzZFiIPDwww+bevXqmT///NN0797dZpuNoVqqgAAEIAABCEAAAhCAAAQgAAEIQAACEEhDACExDSA2QwACEIAABCAAAQhAAAIQgAAEIAABCEAAAsYgJHIVQAACEIAABCAAAQhAAAIQgAAEIAABCEAAAmkJICSmRUQBCEAAAhCAAAQgAAEIQAACEIAABCAAAQhAACGRawACEIAABCAAAQhAAAIQgAAEIAABCEAAAhBISwAhMS0iCkAAAhCAAAQgAAEIQAACEIAABCAAAQhAAAIIiVwDEIAABCAAAQhAAAIQgAAEIAABCEAAAhCAQFoCCIlpEVEAAhCAAAQgAAEIQAACEIAABCAAAQhAAAIQQEjkGoAABCAAAQhAAAIQgAAEIAABCEAAAhCAAATSEkBITIuIAhCAAAQgAAEIQAACEIAABCAAAQhAAAIQgABCItcABCAAAQhAAAIQgAAEIAABCEAAAhCAAAQgkJYAQmJaRPkVOOqoo8wmm2xivv/+e/Ptt9+aL7/80kybNi2/StkbAhCAAAQgAAEIQAACEIAABCAAAQhAAAKVTAAhscDAJ06caJo0aZJwlNmzZ5v+/fub119/PWE9CxCAAAQgAAEIQAACEIAABCAAAQhAAAIQKFUCCIkF7pnHHnvMbLfddhWO8v7775t99tmnwnpWQAACEIAABCAAAQhAAAIQgAAEIAABCECgFAkgJFZCr9SpU8dsttlmpnfv3mb//fcPjrjXXnuZWbNmBcvMQAACEIAABCAAAQhAAAIQgAAEIAABCECgVAkgJFZyz8gTsXbt2vaoxx57rJk8eXIlt4DDQQACEIAABCAAAQhAAAIQgAAEIAABCEAgewIIidkzy2uPKVOmWO9EVXLeeeeZu+++O6/62BkCEIAABCAAAQhAAAIQgAAEIAABCEAAApVBACGxMih7x3j88cfNtttua9dccMEF5q677vK2MgsBCEAAAhCAAAQgAAEIQAACEIAABCAAgdIkgJBYyf3iJ19BSKxk+BwOAhCAAAQgAAEIQAACEIAABCAAAQhAIGcCCIk5o8ttR4TE3LixFwQgAAEIQAACEIAABCAAAQhAAAIQgEBxCSAkVjJ/X0gcPHiwufHGGyu5BRwOAhCAAAQgAAEIQAACEIAABCAAAQhAAALZE0BIzJ5ZXnuMHj3atGvXztbxwAMPmAEDBuRVHztDAAIQgAAEIAABCEAAAhCAAAQgAAEIQKAyCCAkVgZl7xjyQjz88MPtmp9//tm0bdvWLFiwwCvBLAQgAAEIQAACEIAABCAAAQhAAAIQgAAESo8AQmIl90mzZs3M+PHjTY0aNeyRFy9ebOSZ+OmnnxoJi9OmTTNz586t5FZxOAhAAAIQgAAEIAABCEAAAhCAAAQgAAEIpCaAkJiaT0G2yguxT58+pk2bNhXqv+mmm8yVV15ZYT0rIAABCEAAAhCAAAQgAAEIQAACEIAABCBQTAIIiUWg37FjR9O/f3/TtGnTCkdX8hUNf8YgAAEIQAACEIAABCAAAQhAAAIQgAAEIFBKBBASK7k3tt9+e/PII48EQ5uXLFli7rzzTvPuu++ahQsXmrffftsOca7kZnE4CEAAAhCAAAQgAAEIQAACEIAABCAAAQikJICQmBJP/BuvuOIKc+SRR9qKf//9d9OlSxcrHsZ/JGqEAAQgAAEIQAACEIAABCAAAQhAAAIQgEB8BBAS42OZUU1jxowJYiNOmDDB9OrVK6P9KAQBCEAAAhCAAAQgAAEIQAACEIAABCAAgWISQEisZPqPPfaY2W677exRhwwZYoYPH55VC84++2xTp06dYJ8vvvjC3HrrrcEyMxCAAAQgAAEIQAACEIAABCAAAQhAAAIQKAQBhMRCUE1Rpy8kXnDBBeauu+5KUbriptmzZyes/PLLL82uu+6asI4FCEAAAhCAAAQgAAEIQAACEIAABCAAAQjETQAhMW6iaepDSEwDiM0QgAAEIAABCEAAAhCAAAQgAAEIQAACJUkAIbGSu2Xy5Mlmiy22sEcdNGiQGTVqVFYtwCMxK1wUhgAEIAABCEAAAhCAAAQgAAEIQAACEIiJAEJiTCAzrWbGjBlm9dVXt8VPP/10M3bs2Ex3NQ0bNjSvvPJKQvnPPvvMtG/fPmEdCxCAAAQgAAEIQAACEIAABCAAAQhAAAIQiJsAQmLcRFPUd95555kTTzwxKLHPPvuY999/P1hON3PkkUeaK664IqHYVVddZUaMGJGwjgUIQAACEIAABCAAAQhAAAIQgAAEIAABCMRNACExbqKh+pRMpWXLlma11VZL2DJ//ny7PmFlmoVhw4aZTp06BaVyqSPYmRkIQAACEIAABCAAAQhAAAIQgAAEIAABCGRBACExC1i5FJ04caJp0qRJwq4//vijGTBggJkwYULC+nQLr776qmnQoEFQ7JJLLjEjR44MlpmBAAQgAAEIQAACEIAABCAAAQhAAAIQgEChCCAkFors3/WeddZZpnHjxmbRokVmwYIF5osvvjB333131kfdeOONzfPPPx/sN3fuXNOmTZtgmRkIQAACEIAABCAAAQhAAAIQgAAEIAABCBSSAEJiIenGWHePHj3MxRdfHNSYS8bnYGdmIAABCEAAAhCAAAQgAAEIQAACEIAABCCQJQGExCyBFau4PBL79etnD7906VJz/vnnF6spHBcCEIAABCAAAQhAAAIQgAAEIAABCECgDAkgJJZhp3PKEIAABCAAAQhAAAIQgAAEIAABCEAAAhDIlgBCYrbEKA8BCEAAAhCAAAQgAAEIQAACEIAABCAAgTIkgJBYhp3OKUMAAhCAAAQgAAEIQAACEIAABCAAAQhAIFsCCInZEqM8BCAAAQhAAAIQgAAEIAABCEAAAhCAAATKkABCYhl2OqcMAQhAAAIQgAAEIAABCEAAAhCAAAQgAIFsCSAkZkuM8hCAAAQgAAEIQAACEIAABCAAAQhAAAIQKEMCCIll2OmcMgQgAAEIQAACEIAABCAAAQhAAAIQgAAEsiWAkJgtMcpDAAIQgAAEIAABCEAAAhCAAAQgAAEIQKAMCSAklmGnc8oQgAAEIAABCEAAAhCAAAQgAAEIQAACEMiWAEJitsQoDwEIQAACEIAABCAAAQhAAAIQgAAEIACBMiSAkFiGnc4pQwACEIAABCAAAQhAAAIQgAAEIAABCEAgWwLVWkisU6eOadGiRQUmCxcuNDNmzKiwnhUQgAAEIAABCEAAAhCAAAQgAAEIQAACEIBANIFqLSSee+65plevXhXOfP78+aZly5YV1rMCAhCAAAQgAAEIQAACEIAABCAAAQhAAAIQiCaAkBjNhbUQgAAEIAABCEAAAhCAAAQgAAEIQAACEICAR6BaC4kNGzY0rVq1sqe77bbbmhNPPNHO45HoXQHMQgACEIAABCAAAQhAAAIQgAAEIAABCEAgAwLVWkj0z79169bmwQcftKsQEn0yzEMAAhCAAAQgAAEIQAACEIAABCAAAQhAID0BhMT0jCgBAQhAAAIQgAAEIAABCEAAAhCAAAQgAIGyJ4CQWPaXAAAgAAEIQAACEIAABCAAAQhAAAIQgAAEIJCeAEJiekaUgAAEIAABCEAAAhCAAAQgAAEIQAACEIBA2RNASCz7SwAAEIAABCAAAQhAAAIQgAAEIAABCEAAAhBITwAhMT0jSkAAAhCAAAQgAAEIQAACEIAABCAAAQhAoOwJICSW/SUAAAhAAAIQgAAEIAABCEAAAhCAAAQgAAEIpCeAkJieESUgAAEIQAACEIAABCAAAQhAAAIQgAAEIFD2BBASy/4SAAAEIAABCEAAAhCAAAQgAAEIQAACEIAABNITQEhMz4gSEIAABCAAAQhAAAIQgAAEIAABCEAAAhAoewIIiWV/CQAAAhCAAAQgAAEIQAACEIAABCAAAQhAAALpCSAkpmdECQhAAAIQgAAEIAABCEAAAhCAAAQgAAEIlD0BhMSyvwQAAAEIQAACEIAABCAAAQhAAAIQgAAEIACB9AQQEtMzogQEIAABCEAAAhCAAAQgAAEIQAACEIAABMqeAEJihpfAEUccYbbaaqug9G+//WYuvfTSYJkZCEAAAhCAAAQgAAEIQAACEIAABCAAAQhUZwIIiRn27qOPPmqaN2+eULpNmzZm7ty5CetYgAAEIAABCEAAAhCAAAQgAAEIQAACEIBAdSSAkJhhryIkZgiKYhCAAAQgAAEIQAACEIAABCAAAQhAAALVkgBCYobdipCYISiKQQACEIAABCAAAQhAAAIQgAAEIAABCFRLAgiJGXbryy+/bNZff/2E0i1atDALFixIWMcCBCAAAQhAAAIQgAAEIAABCEAAAhCAAASqI4FqLSTWqVPHbL/99rbfJPoNGDDAzs+fP9+0bNky4/7ceOONzfPPP59QfsqUKaZHjx4J61iAAAQgAAEIQAACEIAABCAAAQhAAAIQgEB1JVCthcRzzz3X9OrVq0LfZSskHnXUUeayyy4L6lm+fLk54IADzIwZM4J1zEAAAhCAAAQgAAEIQAACEIAABCAAAQhAoDoTQEjMoHeHDx9uDjzwwKDkxIkTTc+ePYNlZiAAAQhAAAIQgAAEIAABCEAAAhCAAAQgUN0JVGshUUOSmzdvXqEPv//++wpDlSsU8lZMmzbN1K9f3675448/TMeOHc2sWbO8EsxCAAIQgAAEIAABCEAAAhCAAAQgAAEIQKB6E6jWQmIcXbf55pubZ599NqjqiSeeML179w6WmYEABCAAAQhAAAIQgAAEIAABCEAAAhCAQDkQQEjMoJcvuugio8Qtio04bNgwM2fOnAz2oggEIAABCEAAAhCAAAQgAAEIQAACEIAABKoPAYTE6tOXnAkEIAABCEAAAhCAAAQgAAEIQAACEIAABApGACGxYGipGAIQgAAEIAABCEAAAhCAAAQgAAEIQAAC1YcAQmL16UvOBAIQgAAEIAABCEAAAhCAAAQgAAEIQAACBSOAkFgwtFQMAQhAAAIQgAAEIAABCEAAAhCAAAQgAIHqQwAhsfr0JWcCAQhAAAIQgAAEIAABCEAAAhCAAAQgAIGCEUBILBhaKoYABCAAAQhAAAIQgAAEIAABCEAAAhCAQPUhgJBYffqSM4EABCAAAQhAAAIQgAAEIAABCEAAAhCAQMEIICQWDC0VQwACEIAABCAAAQhAAAIQgAAEIAABCECg+hBASKw+fcmZQAACEIAABCAAAQhAAAIQgAAEIAABCECgYAQQEguGloohAAEIQAACEIAABCAAAQhAAAIQgAAEIFB9CCAkVp++5EwgAAEIQAACEIAABCAAAQhAAAIQgAAEIFAwAgiJBUNLxRCAAAQgAAEIQAACEIAABCAAAQhAAAIQqD4EEBKrT19yJhCAAAQgAAEIQAACEIAABCAAAQhAAAIQKBiBaisk3nXXXaZu3boW3NSpU83QoUMDiGeccYZp27atXV68eLHp0aNHsK0yZk444QTTrVs3e6gHHnjAjBw5suCHFY+ddtop8jhnn322GTduXOS2OFeee+65QRvmzZtnTjzxxKD6jh07mpNPPtku//nnn+a0004zc+bMCbaX0szGG29srrvuOrPiiivaZt14441m4sSJQRPVn+uss45dfvnll83gwYODbZUxo7ZtvfXW9lADBw40r7/+emUcNvZjNG/ePGA3c+ZMe03EfpAyq7AY18bbb79tVllllQqkdZ/rObxgwYIK2+JeUcrvg7jPlfogAAEIQAACEIAABCAAAQgUkkC1FRI/+eQTU7NmTctuypQpCWLh6NGjTbt27ey2ZcuWmUaNGqVlLFHDCZOqLx+77LLLzFFHHWWruOeee4zEnkxt9913NyussIKRADp9+vRMdzPjx48322+/fWT5QYMGmVGjRkVui3OlRFMnZv7444+mWbNmQfV9+vQxAwYMCJYPPfRQM23atGC5lGbatGljxowZEzTpyiuvNDfddFOwLNGrTp06dvmVV14xhx12WLDNn3nmmWeCa++GG24w11xzjb8553mJmk2aNLH7n3LKKebxxx/Pua5sd9R5t2rVyu4mIfjTTz/Ntoqg/AEHHGBGjBhhlz/66CPToUOHYFt1nDnyyCPNFVdckfOppbrWXKW5Xhv59Ovs2bPd4StMJSRWxg8Gcb8PKpwIKyAAAQhAAAIQgAAEIAABCJQJAYTEDIXEd955JxASO3XqZORlk6vlKiRutdVW5sknn7SH/fnnnwOvs0zaIW+/pk2bBkUlyjixCyExwJLRTFxC4ksvvWQ22GADe8xbb73VXHrppRkdP12hXMWidPVmsv2kk04KhHF5Anfv3j2T3SLLlJuQKE9l3Yu52ltvvWUOOuiglLvnem3k06/yyK1Vq1bQrs6dOwfzCIkBCmYgAAEIQAACEIAABCAAAQhUCQIIiUUQEjWUWKKB7LbbbjPyaMvE8hESw/U/9NBDgecYQmKYTurlUhcS1bfO+7Rnz54mXw/a1DQSt+YjOCXWZIy8b92wfwn3Xbt2DRepVssHH3yw+fe//x15TvXq1QvWa0iwPJLDJg9eP1xAeLuWc7024uxXeanWqFHDNg8hMaqXWAcBCEAAAhCAAAQgAAEIQKB0CSAkFkFIzPVyQEjMlVy8+5W6kBjv2WZXW5yCU3ZHrt6lP//8cxvSQGdZWcK/TzTOfkVI9MkyDwEIQAACEIAABCAAAQhAoGoRQEhESMxZmFh77bVtnMMlS5ZkFM+QGImJD4dCDW1OPEr2S5tvvrlRQhnZt99+a2PYaSh9Jhan4JTJ8TIp07BhQ7PNNtvYeI3Zxmxs3bq1jbWqviqmISQm0tf12bhxY/PNN9+YGTNmJG6MWCJGYgQUVkEAAhCAAAQgAAEIQAACEMiBAEJiEiFR2XZXXXXVAKk/tFAJWn766adgm2a+/vprs99++yWscwtKoqCkF1GmZCvK+htlGp6qbKPOateunZD9dOHChW5TMH3iiSfMeeedFywnm8l1aLPiKl5yySU2Wc26664bVK/hlkqaoPiPisMWZXELiYq95ifgUBu6dOlS8OQNpeaROGTIELPLLrtEITenn356RiKvxMP+/fubfffdN0hS5Cpcvny5+eCDD8x9992XcD1qu4RDl21by2uuuWbgOaflqGv04osvNmPHjtXmBNtyyy3NHXfckbC/K/Dee++lHbarzOObbLKJ3UXJjJSwZ++99zbrr7++q8ZIEL3ooosSkuUEG/+ekfA4fPhws8MOOwQsfv/9d6MkOso8PmzYMLPyyiub3377zeyxxx7h3QuynKuQmOu1EWe/hoHk6pGoa1TPl+22286sttpqQbV6HiuG7Zlnnpk0uQ9CYoCLGQhAAAIQgAAEIAABCEAAAnkRQEhMIiSmyjQaRfz77783yuwcZfrA7du3b9Qmkyprc/v27SsIN5GVeCsl4ikuXjrLRUiUd9b111+fIMyEjyPRSXHtohKHxC0kSmQVI9/233//jDyU/H2ynS81IdHnGj6XTLI2S8B79NFHE8SZcD1a/uKLL8xuu+2WsEmidbq4fAk7/LUgIdrFPvS3hbn62zLJ2qwYgfXr17e7vf/++0ahAJKZMoSLW9gk3kvMlLdtlCnb+Oqrrx5scsJlsKJAM7kKibleG3H2axhJLkKikvaoTf6PO+F6f/nlF6P4s8pQHzaExDARliEAAQhAAAIQgAAEIAABCORGoCyExMmTJ5tjjz02IOQLUPIqkpAStmuvvTbho1WeWs6mT59uh9S5ZU3nz5+fNONqx44djTyknG277bbGeTimEhI1fG/gwIFuNyMPwJYtWwbLEyZMCObdjIZgjho1yi0mnWYrJMoTUV6adevWDeqUl5j+aduuu+5qvdHcRolLTz31lFu00zFjxhiJRbIffvjBiIMzCV5nnXWWW7TeZBKGUpnfj65cqQmJYnb44Ye75iVM4xraLK/DFi1aBHWrL1wyi0yERF2DTiCUEPzmm2/afyuuuKLZaKONzI477miFtSghUR5/8gJ1JvFu0003tYvy2n3++efdpmB6++23R3pJ6nqXx5kzHXuzzTazi9kKia6OWbNmGe2r7NjyMHT28ccfmz333NMtBtNnnnnGNGrUKFiWIClvzA033DBIThRs/Gum1IXEXK+NOPvV56X5bIVEJWS5++67g2rkeax7Rx7QDRo0sN7RNWvWtNvlcaryCxYsCMprxhcSc3kfJFTGAgQgAAEIQAACEIAABCAAgTImUG2FRAkaznNIAsjcuXODbtbQRYkUMnkYSSxIZxo650S0Tp06GWWRzdUkljhhMZWQGK6/mMlWNIzYCWJ//PGHHR7qD7uWB5eWnTgYJTql4i4xUnHsZBIKXn/99fDpV1gulpCohkjQldAmk5jqxxBMde3ZHf7+E5eQ6NepeXmlNmnSxK7OREj0RRZ5nA4dOjRcpTnssMPsPXP11VdX2OaviDNG4gEHHGBGjBhhq89FSLz11lsTPGPPP//8BG/dvfbay0hodCYR2g8zIPHKDxOgIdznnHOOK26npS4kJjT2r4Vsrw23f5z9mq2Q+PTTT9t4iGrLd999Z8NEvPLKK65p9l6Uh6v7ceaxxx4zffr0CbZrJtU9meq5lFAJCxCAAAQgAAEIQAACEIAABCBgqq2QGHfflrOQqA/tF154IYgXd9NNN5krr7yyAmLFMJMXouLHySQ++R/8FXbIc0UxhcQ8m253LwUhUQKwPBCdRXmSum2ZTOMUnPIREiVWheMXSqx+4403Ak9jeSnLO83Zvffeaz1rtayYpzvvvLPbFEwlUilGnzOEREci82k2QmLXrl3NNddcYyuXt+wxxxxjpkyZUuFgetZcddVVdv2vv/4aCI8VCrICAhCAAAQgAAEIQAACEIAABPIigJCYIb5yFhI1zFHeXc569eqVkGzGeeZpuxJpuKGtl19+ubn55pvdbrFPJSoobqNvin3newf620ptvhSERDHxPRIl/B533HE5MywVIVGhCa677roKXT5p0qQglIG8Df0hsy+++KIdwqydlFAlyvvy+OOPNxdccEFQL0JigCLjmWyERCXG0X3uzHlyu2X37NFQfsW2dLbPPvtk5GnuyjOFAAQgAAEIQAACEIAABCAAgcwIICRmxslmBS3Xoc1RQzozwaZYjYMGDcqkaFmWKRUhUYlW/ERB8ujS0H0NL3/rrbcqxLpM1VmlIiQqNmBUZmg/TqeGOo8ePTo4HV9Q7d27t1EG9LCFE8IgJIYJpV/ORkiM8jpOfwRj9GNHVAzZTPalDAQgAAEIQAACEIAABCAAAQgkJ4CQmJxNwpZy9kjUkEENHczWJFCdeuqp2e5WNuVLRUhUpuL77rvPJs2Jgi9hUbH1lBE3nbdnqQiJ8lyLSvTiD1/2PWbDQ7wPOeSQyDidfpxSsUJIjLpiUq/LRkh89tlnjUImZGuKZalrGoMABCAAAQhAAAIQgAAEIACBeAkgJGbIs5yFRA3xPPTQQy2pRYsWZexlqCQ2fjKLDFGXTbFSERIFXBmT+/XrZ5RhfI011ojsg2SZjv3CpSIkHnHEETazr982zWcqJOp6j8oajpBozNSpU0337t3DaDNezkZIfO6554JQCYpveeedd2Z0HGXfTid6Z1QRhSAAAQhAAAIQgAAEIAABCEAggQBCYgKO5AvlLCT27dvXnHnmmRZOsiQUycmxJRmBUhIS/TZKLNtll11M+/btzW677RZkp1aZc88914pxfnl/vqoKiTqHDz/80NSqVcuejkTVcePG+adm59u2bZsQVxGPxAqI0q7IRkjU0PN27drZOsePH2/0LMIgAAEIQAACEIAABCAAAQhAoHgEEBIzZO8Licm8lTKsylx22WXGJQ245557zMCBAzPa1feG+u2334KkERntHCp0//33B1lp5XGo5BLJbP/99zc33nij3azj7rDDDiXh7dOtWzfTsmXLoNl//vmnueSSS0qibUGjUsyUqpDoN1l85QW2+uqr29XprldfSHz55ZfN4Ycf7leX1Xw+WZuz9UhUw3zvN8Xm85OquIZLYDzjjDPcYlkObc63X+Wl7DK7d+7c2UyfPj3gGZ7R/Xz00Ufb1Yrb2alTp3CRoizr+tLz2Jmei5deeqlbZAoBCEAAAhCAAAQgAAEIQKDaEkBIzLBrX3jhBbPRRhvZ0skSOWRYVc5CYsOGDY2y6jpr0aKFWbBggVvMaqqstl26dLH7pPP00bBXP96cRMXBgwdndbxCFI5KxCDRc8aMGYU4XOx1VgUhUSc9cuRI06FDB3v+jz32mOnTp09SFoqlqZiaMnme7bHHHknLpttQ2UKif54LFy60gnm4jeGYfeXikRhnv+pZomeKLJw5O8xbIqLERGfJYl+67ZU1DSco0nGViGfu3LmV1QSOAwEIQAACEIAABCAAAQhAoCgEEBIzxP7ggw+a1q1b29LKZqtkDLlarh6JOp6fWVbCh/+RnU17TjvtNCNBVKZkGhIKUnkG3XLLLTZ+nsr/8ssvRskMooZ+KjHCsccea+Oa5RNHTcdJZwiJ0YSUGKVJkyZ24ymnnGIef/zx6IJ/ra1Tp44ZOnSomTRpktE1HjaJ18perGQksnTXnIZE+0kujj/+eFt3uN5MlitbSNT97TOYMmWK6dGjR9DUK6+80sgTzbdyERLj7Fc/TuVnn31mn6WpfhCRB+T6669vsX/++edG13TUjwVqo/pLAnahf+hASPTvAuYhAAEIQAACEIAABCAAgXIigJCYYW9r+LGGbTqbN2+emTlzplHyEZmWJRCGTXHmnDeX26aYX84jZ86cOTZ5gdum6dNPP20kYkRZ+ANWwqKSYCxZssQWl5fbmDFjonZNWCdhSGVdTLjff//dJkZZvHixLffuu+8mDNWToCRvrFVXXTWoR8koNNxQDDbYYAMrXslLcoUVVrDrlA24kFadhERxcuxTMVOMQgl7ziTaNmrUyC3aadeuXYN+fe2112zsP7/AzTffbHTdyST8ql9l8sKTt5jEnXXWWccO21V/1q5d227Xn3RDUSVM6piayjTcXNeIYmsuW7bMrlPcO4nxvul+8O8vbZMY2qpVK1ts6dKl5qGHHvJ3sYLRbbfdFqzT9Vi/fn27nMvQZu348MMPJwyXFxPdX7q+nZgVHPCvmVIWEvO9NvzzzLVf/TrcvC8Qa52Sonz00Uf2Bw0tS8z1+zpcXs8qJVPRPn/88YftAz1rXHZnieISsAtp4eewjoVHYiGJUzcEIAABCEAAAhCAAAQgUCoEEBIz7Al9SCtbqQSWKPv+++9N8+bNK2zyY3xV2JhkxahRo5JmRpbXlDy+atasGbm3vNF69uwZuS28UvHe+vfvb4W/8DZ5/GiYsG9avvzyy82aa67pr46cl7iIkBiJJljpD20OVqaZCQ8FffLJJxNitaXZ3W7u3bt3IEb6QmK6fdPFR3T7h+MIuvVuqntCno2+7bvvvuY///mPvyrtvLKC77PPPkG5OIRECew6Tz/+XXCAv2bee+89s8022wSrSllIzPfaCE7y75lc+jVch1v2k6i4dW56++23m4suusgt2umAAQNMr169kj73/MKVIST6XpLu2PmEmnB1MIUABCAAAQhAAAIQgAAEIFDqBBASs+whiXQaBiwPJd9TK1k2Y3mQ6QM4G5PHmAS7ZCbvQHncyFNHwodLXKDyGm6sD/5MrWPHjuaEE06wiVvq1asX7CavMnm2hU3H0xBPeVr6x3Xl5BkpgUzDaceOHetWF2R60003mf322y+oe/ny5eZf//qX9VQLVpbwjASPLbfcMqsWakj6I488EuwT5RkVbEwyo+GfzuNVArmuNXlTNWjQIHKPL7/80op8En8yNYnIuleU9VmJWnzhOyrz8+67724koGdjGoovD0lnfrIUJeWQJ2TY5MG411572dVhUdYvq2t8p512skP05WErL00JlUpSJOYyeViGvUH9OuKc/+CDDwJv4ExjtOZ7bUS1P9t+jarDrVOsTQnBYuh7Og8fPtwMGTLEFQumOvYVV1xhRd4VV1wxWO9mNDx68uTJ5oEHHrB95dbHPQ3HjFX9up/8YfBxH5P6IAABCEAAAhCAAAQgAAEIlAoBhMRS6Ykq2A6JYFtvvbX1UPzmm2/MV199FRm7rAqeWlk2WQLJZpttZgVFDXlXf86ePdsOeS9LIH+dtBuireG3MgnVd9xxh50XG4UpwCqfgETFpk2bmpVWWskOm1fsRMVGrAxTwhc/jIV+wNCPOlFxGyujPRwDAhCAAAQgAAEIQAACEIBAZRJASKxM2hwLAhCo0gSuv/76wAtSnrfh5CtV+uRofEYE5DF54IEHBmWzCScR7MQMBCAAAQhAAAIQgAAEIACBKkoAIbGKdhzNhgAE4iegIftKUqJhwf4Qch1JIQ00DNwN077ggguMEv5g5UXAj8WpZC8KDzFr1qzygsDZQgACEIAABCAAAQhAAAJlSwAhsWy7nhOHAATCBBQvdNCgQXb1Tz/9ZDM2a/ishjhvuummQXFlct5zzz2DZWbKg0A4OZEyqCt5EQYBCEAAAhCAAAQgAAEIQKBcCCAklktPc54QgEBaAr6QmKzwJ598YhMaERMvGaHqvV4ZpSUsKzbisGHDzJw5c6r3CXN2EIAABCAAAQhAAAIQgAAEPAIIiR4MZiEAgfImoIQzGsLcunVrs8kmmxhlMpdH4rfffhtkbh46dGh5Q+LsIQABCEAAAhCAAAQgAAEIQKBsCSAklm3Xc+IQgAAEIAABCEAAAhCAAAQgAAEIQAACEMicAEJi5qwoCQEIQAACEIAABCAAAQhAAAIQgAAEIACBsiWAkFi2Xc+JQwACEIAABCAAAQhAAAIQgAAEIAABCEAgcwIIiZmzoiQEIAABCEAAAhCAAAQgAAEIQAACEIAABMqWAEJi2XY9Jw4BCEAAAhCAAAQgAAEIQAACEIAABCAAgcwJICRmzoqSEIAABCAAAQhAAAIQgAAEIAABCEAAAhAoWwIIiWXb9Zw4BCAAAQhAAAIQgAAEIAABCEAAAhCAAAQyJ4CQmDkrSkIAAhCAAAQgAAEIQAACEIAABCAAAQhAoGwJICSWbddz4hCAAAQgAAEIQAACEIAABCAAAQhAAAIQyJwAQmLmrCgJAQhAAAIQgAAEIAABCEAAAhCAAAQgAIGyJYCQWLZdz4lDAAIQgAAEIAABCEAAAhCAAAQgAAEIQCBzAgiJmbOiJAQgAAEIQAACEIAABCAAAQhAAAIQgAAEypZAtRUS77rrLlO3bl3bsVOnTjVDhw4NOvmMM84wbdu2tcuLFy82PXr0CLZlO6O6V155ZfPrr7+a3XffPdvdKf8Xgccff9wy/O2338wBBxxQZZmccMIJplu3brb9DzzwgBk5cmTJn0unTp3McccdZ9v5559/mp49e5oFCxbY5YYNG5oRI0aYFVdc0S7rfNRXpWqVdc/ncv5V8dpIdp7V5X5Ndn6sLx6B5s2bm8GDB9sGzJw505x22mnFa0yeR66K9/y5555rdtppJ3vm8+bNMyeeeGJAoWPHjubkk0+2y3pXqG/mzJkTbGcGAhCAAAQgAAEIQKB8CFRbIfGTTz4xNWvWtD05ZcqUBLFw9OjRpl27dnbbsmXLTKNGjXLq8Tp16hh97DjbZJNN3CzTDAmEGW699dbm559/znDv/IttvPHGZvPNN7cVvfbaa3kd+7LLLjNHHXWUreuee+4xAwcOzL+BBa7hzDPPNH379g2Osv/++5sZM2bY5e23396MHz8+2Hb99dcnCPLBhhKZieOef+aZZ4LnwQ033GCuueaaWM6u2NeGfuRYYYUVjH44mT59es7nVOz7NeeG57njtGnTTP369RNq+f77783s2bPN559/bj7++GNzxx135PX8SKi8TBf0Q5J+vJB99NFHpkOHDpVKQkKm+wFS/2/Ix4p9z+fSdv0A5oTEH3/80TRr1iyopk+fPmbAgAHB8qGHHmp0X2AQgAAEIAABCEAAAuVHACERIbGoV32xhYnbb7/d7LnnnpbBkCFDzPDhw3PmURU/HBESE7v7pZdeMhtssIFdeeutt5pLL700sUCOS8W8Nrbaaivz5JNP2pZLpJdYn6sV+37Ntd357vfuu++aNdZYI2U1EhYvvPBCM27cuJTl2JicQLHe5NheAABAAElEQVSFxHfeeScQEuWt/fbbbydvbJotxbzn0zQt6WaExKRo2AABCEAAAhCAAAQg4BFASERI9C6H4sy+9957dmizvEPzETlyaX2cQuLZZ59tNJxNdtttt5krr7wylyZV6j4IiYm4CyUkFvPaiFNIFK1i3q+JvVV5S76QqBAMP/30k1lrrbUiG/DII49U6SG5kSdVSSvlOetCQkjE69q1ayUd+X+HiVNILOY9nys0hMRcybEfBCAAAQhAAAIQKC8CCIkIieV1xYfONk4hMVR1lVhESEzspkIJiYlHqdyluIXEym19aRzNFxKvvvpqM2zYMCPvzMaNG5suXbrYkAYulqharBAHzz//fGk0nlZkTCBOITHjg5ZQQYTEEuoMmgIBCEAAAhCAAARKmABCYhZCYsuWLc2qq64afCCGh/llGiNRH/YaPqkYULkEK1dMP8X2k3377be2jlzjCrq2zJ8/38b5yrUesVCsyXXXXdfkW1cu90ubNm3sbq+88kpWu5eSkCiGm222mVlppZXstZFrXwiAeEjYkFdPqnoQEhMvl1IVEvO550tRSNS13qpVK7Nw4cKsh4/qfJQI6NVXX015bSf2bH5LUUKiX6PuN8VIrF27tl391ltvmYMOOsgvknTePYN5HyRFlPWGXN8HpSQk6h2v4fQ1atTI+h4JA8v0fYCQGCbHMgQgAAEIQAACEIBAFAGExDRCoj5Y5X2yww47WIFHEH///XebZOWSSy4xDz74YMA1lZC49957m/79+1uxTUKRM4k8SvBwzjnnpPwolpCg/ffdd98giYyrY/ny5eaDDz4w9913n1Hm2nSm4bf/93//Z8VIl5DG7aNEDHfffbd56KGH3KqE6V577WXkkSN74403zPHHH28UW1AfzausskpQVsOUld01Kuum4rWtvvrqQVk3oyGDe+yxh1uMnD777LOmXr16RlkjlVFSwd9btGhhh0ZrB/XN+++/b04//XQza9asCnXcfPPNQTB5bVRdvknY8E3HUQKSuXPn+qvt/JFHHmlOOeWUCuu1QslWbrzxxsht4ZWDBg2y/CTCOlOf6pgSOhWrL8oUT8zF8JP3k8qef/75Zttttw36QvVIcFFm5ihBMW4hUQH4lfnTtyuuuCLhPvG3xTkfR7KVuITEOK6NXO95JcnxnwMSt/x7M3yNqw+eeOIJc95550V2Rz7360UXXRQIakrWs3TpUnPMMcdYTz7nwad79t577zW6D1LZddddZ/QclQgp07WtZCdXXXWV6dy5cxAW4dRTTzWvv/56qqqy3pZOSFSFyjZ8+OGHB3Ufe+yxZvLkycGyP8P74H80ttxySyvAKhFQ2DSE3s8aHN6u5XzfBy+//LL9cdDV7b8P9A7TEHbfvv76a7Pffvv5q4L5OO75tdde217PEv5WW221oG7dI0roo+d9Mk/XON4HCIkBcmYgAAEIQAACEIAABFIQQEhMISQqg6Ni3ek/91G2ZMmShI+QZEKigq5LuIv6WHL1fvHFF0YfnlHilz62Hn300YQPC7efP1Udu+22m78qYd6JovIESmfJsid369bNCofaX9l9P/zwQ3PIIYckrU4i34IFCxK2+4JPwoa/FpId15WTYCqv0HSmD8DevXub5557LqGoOKpfszGJp1H9Ehbh/Dozydqs60rin0TqVPb0008HsRf9cj169DAXX3yxXfXNN99Yscj/EPbLKrOs4o+FLXwO+WZtFnPFBvNNsSJvuukmf1VB5v3rKtdM7XEJiWGu/glncm3kc8+3b98+QUj0j51sfuLEiaZnz56Rm32u4QLp7leJ6bqmZLp3dV7ysIqyhx9+2P5YEt4m4VA/kkggjTL9ALHyyisHm3r16mUmTJgQLMcxk4mQqHPTveqe88mynPM++Od9IMFszJgxkV2USdbmfN8HEqKzMSXUSfb+yPee14gHPSfXW2+9pE36448/7A+b1157bYUycbwPEBIrYGUFBCAAAQhAAAIQgEAEgbIQEuUVIpHOmbx19LEt00eoPgCjTN4O8gpypo9JCUpaFyX+RAmJElUkrjiTV9gLL7xgh/Q1adIk4aNEHhhR3g4SHpxAKC+cN9980/6TR89GG21kdtxxRyt2phMSwyLa4sWLjTwQ5WWx/vrrm2bNmpl11lnHNjWZQOALie6cNNUHjo4vbyfVVb9+fbs5SkjUx5LztpCn1E477RRUley4rkDUh6M8ELV+ww03tMMlXVkNsdbHmW99+vSx5+nW7brrrkE2Vn1Uzpw5022yU3kkyusxypuvY8eONhaa20GegE7Iy0QskofVwQcf7Ha3w9QlzMr7RNzWXHPNYNvQoUONhAnf/A9Ht/6XX34x06ZNM7/++qsd3ly3bl23yfTr169CRtkzzjjDrneFqouQmOs9H5eQmO+1kc89ryGRAwcOdF1qww3490GUyKbzHjVqVLCPP5PP/eoLia7OefPm2eeO7n0915xXtK771q1bV/jhIezpJ9H8tddes56Ju+yyi6lVq5ar2k6LJSTq4GqXE4LkrS5xyTfeB4k/LOlalbDqTO8zhXeQ5SokZvM+kCDn/zAlj39nejfqWvNN75RknrP53vP60WvTTTcNDqd3mo6v+0PvSH8kg368C3vdxvE+kKjrhoX/8MMP1rvdNUje92eddZZbNPI+17sGgwAEIAABCEAAAhAoPwLVVkhU3Ck3fFYClz80VZ55+mCR/fjjj3YobLjrNUxoxIgRwWplktRQZmcSlyRK+RYWEnUceUa5D13FzdJHrt8WBeXXcCXnxaKhqaNHj/arNb5HUDIvl8MOO8yekxt2nFDBXwvariGAzl588UXTt2/fCh/t+kjq3r27FTijxLMoIVEfXCeffHLCeemjSkMYNYw6qh7XDnkb+eJdtkKiPCjUF85OOumkBBEliqcrq2mcMRL1Qaz+lKUTEvUBLaHaiSgaJi7ujpWunfvvvz/4sFy0aFEFj6zwh6ME4aOPPjrwnlQdGrLqPGqjvM7Ef5tttrFtlmga/jiVAOWGoErodu2zO0T8KaZHYr73vE4nLiExjCaba0P7xnHPuzaIi4Yny9R/usdytWzv17CQqKGkCofgriN5+8rr25mesS5rr9bp2tU+bmi2njXy7nb7S0jU/i42ofYpppAozuIt07V0xBFH2Hn94X2Q/n3gv3dzERLzfR/EGSMxm3s+/H7W/wH07nImb/L//Oc/wXWuHyN1H/gWx/tA12iy/xule1f4bWEeAhCAAAQgAAEIQKB6E6i2QmK+3aaYXfJWkykhStu2bStUKWFGXoXOwkKiRD39ai+Tp96ee+5ZQbjTNt8zTfHsJNY504e0PBCdKWbUU0895RYznupjXJ6Csi+//DI4t4wr+LtgWEhU3CadV66WrTDheyR+99131hszfGzf8zKZl6fbp1hCoj4S3VBSeXPqWvMFZrVP15ziVTpTDDt/OfzhqLiQY8eOdcXtVPEKJazIlHilU6dOdr5Qf4opJMZxTqUgJMZ1zzsepSIkyuNQHojh69y/XxUP1MX9VPsVY1XXtUze2O3atauQoEo/fugHC2fFFBL998Znn30WeL6rbbwPXA8ln+YjJMbxPiiWkDhu3LhglIM843Wdhy3szar3g5+srRTfB+FzYBkCEIAABCAAAQhAoHoQQEhM0o/6xd/9Mq9kK1GefvLCU5IUZ2Eh8b///W/g7aV4gooV55vz9NLQZCUIkGm48XbbbecXS/BOUlbiZIkzEnbyFsJincQlffDmYmEhUcOdlFQlVwu3LRuPxDvvvNP8+9//rnBo/4MqPDwrXLhYQuItt9xi5LUpk3eoAvVHmQLry3tRpn38YYD+eWpIs/OE8uuRcKjrVyaPxZ133tnfHPu8PMScV6arXENms82m7fat7GkpCIk6Z98jMZd73udWKkJisutcyXjc9T9+/HjrKe3a7//IomGU7ocZt11ThaaYNGlSsKqYQqJ/X4e9iHkfBF2UdCYfITGO90GxhET9WOg8xzXcWtd92OQtqB8E3egFPf814sFZKb4PXNuYQgACEIAABCAAAQhULwIIiUn6U552LiaRvKw0RDRsYY+xsJAo8dANrw7vm2xZXjsSEt3QPZXzPXa0rPh38i7TMFQNl07noajg8KrDmWIghb2C3LZ0U19I1FBYF88q3X7JtucjJGpIs4ayhU3DcZW4wVm4X9x6TYslJEp8VUxFWdgLy678+4+2KcOrTNegH2/T/3D89NNPIzNe+8kMFG/Lj0f59yGYeARKRUjM9573TskKzKUwtDk87NS10Y/T+dhjjyWEjFCcQcVNlIWHe7r9NfWF12IKib5HYjjBEe8Dv8ei5/MREuN4HxRLSNS14gTCVNm+NbR/rbXWsvDkievHNeV9EH1NsRYCEIAABCAAAQhAIH4CCIkRTMNDCxXnSgJD2MKeML5gFRbIwvumWg4LfcpWqqylqjPKJCxqmLWGPvkCpCsrLx7nUSmhcosttnCbsp76QqKSJmSSATrVQcKcsvFIDHtkuOPIg0+efM6SZV3W9mIJiRKB1113XdtEeWQp/lWUyYvVxVlTHMUuXboExfwPR9UXlT3bF1WjvF2DypixBEpFSMz3nve7s1Q8EhVz1o/T6troD19+5plnrMe12zZ16lTjnqvy0orKVquySlLkYtEWU0j0YyTKe+zwww+3pxJ+zrnzy2RaTu+DfITEON4HxRASlbxN8XKd+Qmv3Do31f3RqFEju6gkSP4oB94HjhJTCEAAAhCAAAQgAIFCE0BIjCAcFhKVwEIZFcMW/gBwH7wqF65DQmCUGBmuU/HyorwfJY4p666Gw66xxhrh3exysniFfiD3VFmqIysNrfSFxHTxB0O7Ri6GP7CzERKT9UtYSEz1YVYsIdEfyqaYcPI8jLLLL788CKovb5TOnTsHxfwPx2TDPhESA1wZzZSKkKjG5nPP+ydbKkJishARqYRECSx6zsqSJZrStnfffTd4LhZTSEyWtZn3gXopveUjJMbxPiiGkBj+QXKfffaJTAAnek8//bRp3LixBZkq1AXvg/TXGiUgAAEIQAACEIAABHIngJCYhJ0/tDlZghPFg5NA6MwXErXu/fffD7IshhNluH1ymUoY0LHbt29vkxe4WIuqKyr+oS8mqUyLFi0ik75oWzrzhUQN1ZNIl4/lIyRqSORDDz1U4fDhodypxMliCYl+vLSbb77ZSDCMMj/mmrydlJXaGUKiIxHftJSERP+ssr3nw/uWwtDmXIREf6iwnrV+TFr/HDW0v0aNGnZVsYRECUISetwQ1bDwyfvA77Ho+XyExDjeB8UQEkVCCVacJfOs1Hb/B6gLL7zQ3HHHHW43w/sgQMEMBCAAAQhAAAIQgECBCSAkJgHsCwoaFuwSVvjFFctI/5l3FhYS/WFuqeLguf1zmUokVJB5F4vxnnvuMQMHDkyoKizWybNRWSJzsVISEjUcWMOCw+Z7YC5ZssQ0bdo0XCRY9oXE8Id/UCjDGSVCcYlGovrBr+a2224zGnItmzx5stG1FGX+UDbtc/HFFwfFSvHDUdejrhHfFBtPQ6+rgvn3fZz3bDbXRjpOmdzzfh2+R2K+HsnhZ0kqkV5tuPHGG4MfG3IREv1Mx8k8oMM/HBRLSBwyZEjCtR+Odcf7wL8qo+fzERLjeB/4QqJCgsizL1fL5p5XzOM111zTHipZqAt5tcrj1Qnmxx9/fEKSoVJ8H6jN+v+GE9d1gkpkp1AsGAQgAAEIQAACEIBA1SWAkJik78aMGWMUm0r20UcfmQ4dOlQoqQyjimXmLCwk+h/RP/74o010ERXD0O2f63TkyJFB+8LJClydvidDsiHQrmyqaSkJicmyEMtzSR6bsnTn6meFTZYMIhUPf1s2H44SBPXhJ1PcSiWUWLBggV+dCQskVcEDRclgFKvTN8XxUjyvqmBVQUgUx0zuecdb2V79rNn5eCRXtpDYs2dPc/7557tTMcpCLtHFt7CAVwwhUc8b/Six6qqr2qYpCdZBBx3kNzNBVOV9kIAmWMhHSIzjfSCRa6ONNrLtOf30083YsWODtmU7k837wPdQV7xPl2DLP6YEOXldOttjjz2MPHGdlaKQqFETd911l2uinT7yyCNG4QwwCEAAAhCAAAQgAIGqSwAhMUnfde3a1VxzzTXB1ksuucR+vLsV/n/a3bqwkChPIGXnrVmzpi0yZcoU079//wqCkTbqeArMr6Gs/q/1+nAfOnSo9TxQBtOwSSRQTEX98i+TwKC2hk0f1xr27EwiaN++fd1iMJVHnYbPKiN1lJWSkKj2hb2c9PGuhAzOayOZN6k7tzPPPDPgoGQk+jgLC3qubLppNh+OujYmTJgQeGqEk0yo3yVmu8zOv/zyi5Enmi9E+9dgqcTEQkiMvkqyuTbiuuf9lvhZjZM9I/zyyeYrW0hUO3wvsTlz5tiYoZrK9NwcPHhw8IzVusoSEsVC9/HBBx9sjjzySOOHmNBz1E/4pHbxPhCF1JaPkKia830f+FnCkyWwSn0G/2zN5p4PC+YSx4cPHx5U1qxZM3P33XebevXq2XW6Jw488MBgu2ZK8X2AkJjQRSxAAAIQgAAEIACBakMAITFFV/reSSomgU/eiYqFJY8Bf7iOtoeFRK3zPya0vGjRIiPR6PPPP7dZRpVIQN5oTggMJ97wE7osXLjQfpx+9tlnZp111rHHk3dR7dq1VbU1JeNQUo4o84fJavsXX3xhXnzxRfPVV18ZCZLyrtxmm23srsmGLOYrJA4aNCjIrqoDyYPHzzYsDxCJZs6UkdofzvvBBx8EXj+ujDK76sNKySn222+/QFT44YcfAiHOlQ1Pwx86GgotfvPnzzfLly83f/75p/WI8gU81aH9wl6q7dq1s23Qdgkdapdvip8mMdmZP7xZ6xRDTR4xK6+8svnXv/4VeMZoW5T4U4ofjtVJSBR3icvpTAK9nyAp32sjznvetf3RRx+1Hq5uWcKivHV1vcv0rJNwHbZ871ffKzss8rhjpUq2ojJnnXWWOeWUU1xx22Y9B/Tc07PYF/BUqNBCojyI9TyoW7du0CZ/Rs8webNFGe+Df6joee3HfNWWJk2amFatWtlCS5curRADVx54em46i/t9oLAgfpvmzZtnZs6cad/bOqaW1Ydhy/eeV31+oh4tu/da/fr1zb777mtWW201rbYWHtaslaX4PhAXPBL/12f8hQAEIAABCEAAAtWJAEJiit7Uf4L1ISzPk0wsSkjUvjfccEMQDy9dPamExHT7povLJ48YnY/LgpqqvkIJiX5Q+VTH97f5bYn6cPTLunl97CsxQ5QXpyvjpuK22267ucUKU8UynDVrVsJ6eX0qS2g2NmrUKCNhxpn6QR9Z+qBOZRJJ5a0aFjNL8cOxugmJqfrFbQsnUsr32vCFRHeMZNN097zbTz9WaMi/8452691UP5LIKyps+d6vcQiJapNESA1rjrJvv/3W/jjhhL1CC4lRbdA6eTJfcMEF1gs9WRneB/+QkTimuIbZmH5sUVZjZ3G/D9Q/EvD0Q12Uff/99wmCvCuT7z2vejp27Gi96dP9f0PvNHnSh60U3wfy1A3HMc43hEj4vFmGAAQgAAEIQAACEKh8AgiJaZhrSJE+hsMioT5e5Skj7wh9nKdLYtClSxcbO65BgwaRR5SnhTwGJTa5YXsqqI8KZfRVvMZk+3755Zf2g2z06NGRdYdXSsw64ogjIgVSxZm6//77jRKPRJk/9CzZcNqo/dw6CXLyuMvUwlz9D0d5/ehfWIiTN6HWh4cWpjqmsk8fc8wxdvihmDsvJ3kk7r777gl9onrkhSbBIhuLys6sY2n4tTxcwyKPzl3ij8SJKPOH38vTUR+SYfOHUM+dOzeI+xkuF9ey/zHr6lT7w14pblupTSdNmmS93LJplzzqFPfLWb7XRiHuebVNXsfyZNI9LA9o/z5U8iXFYAtbvvernyxFQ5D1LA2bP6wzWcgF7SORWuKTrumVVlrJeodp+Kl+qJGg6ry69WyTh2WcpmedPMN8++6772y2XT279U/XeFjs98v787wPjH2u6n2XjclbXF73zgr1PtA1qaRdG2ywQYLHf7I4jPne8+589COCRHONDAiPeJB3tLwhozyHtX8pvg90b/qxQuXlr+VwnFN3/kwhAAEIQAACEIAABKoGAYTEDPtJH+Hy6qlVq5YdgqQPx1xMIoGGEG+xxRZGQ7c0rFhDlSXypDMJZptttpkVFNUO7SuPobC3XLp63Hadk2LwaaqPYp2TPD5K2fwPR4l/M2bMsO2XR6E+UvTB7wuxpXwu4bbpupD3pbwpdV6l3hfh9rMcP4G47/n4W1icGiUa+rFM9Qx14n8+yWQq+2x4H+RHvLq+D9x1oaH7eje/++67VfK9piRP+v+Fs8mTJxtlM8cgAAEIQAACEIAABKo2AYTEqt1/Zdf6qA/HsoPACUMAAgEBeSAqM7hMP84ozh5WHgR4H5RuP+tHEH9UgLz7FcOYH8hKt89oGQQgAAEIQAACEMiUAEJipqQoVxIE+HAsiW6gERCoNALyPhwxYoR59tlnbeZaf/iwMplruLQbdqykNxoCjZUHAd4HpdvPiiGs2JHOnnzyyYRENm49UwhAAAIQgAAEIACBqkcAIbHq9VlZt5gPx7Lufk6+DAloeKdiV8qWLVtmlHH6jz/+sMvyPnSxRZXhXfFMMwkTYXfmT5UnwPugdLvQT7SkcB0dOnSw4VNKt8W0DAIQgAAEIAABCEAgUwIIiZmSolxJEODDsSS6gUZAoNII+EJisoMqEYWSSClpDFY+BHgflG5f77XXXjbDtmIXf/zxx0bJxjAIQAACEIAABCAAgepBACGxevRj2ZzFww8/bOrVq2cUb6l79+54H5VNz3Oi5Uzg5JNPtsmuGjdubNZaay2bSXfRokU2UZXEpCFDhiQkXylnVuV07rwPyqm3OVcIQAACEIAABCAAgVIhgJBYKj1BOyAAAQhAAAIQgAAEIAABCEAAAhCAAAQgUMIEEBJLuHNoGgQgAAEIQAACEIAABCAAAQhAAAIQgAAESoUAQmKp9ATtgAAEIAABCEAAAhCAAAQgAAEIQAACEIBACRNASCzhzqFpEIAABCAAAQhAAAIQgAAEIAABCEAAAhAoFQIIiaXSE7QDAhCAAAQgAAEIQAACEIAABCAAAQhAAAIlTAAhsYQ7h6ZBAAIQgAAEIAABCEAAAhCAAAQgAAEIQKBUCCAklkpP0A4IQAACEIAABCAAAQhAAAIQgAAEIAABCJQwAYTEEu4cmgYBCEAAAhCAAAQgAAEIQAACEIAABCAAgVIhgJBYKj1BOyAAAQhAAAIQgAAEIAABCEAAAhCAAAQgUMIEEBJLuHNoGgQgAAEIQAACEIAABCAAAQhAAAIQgAAESoUAQmKp9ATtgAAEIAABCEAAAhCAAAQgAAEIQAACEIBACRNASCzhzqFpEIAABCAAAQhAAAIQgAAEIAABCEAAAhAoFQLVVki86667TN26dS3nqVOnmqFDhwbMzzjjDNO2bVu7vHjxYtOjR49gW5wza6+9tnnsscfMiiuuaH766Sez1157xVl9pdZ10UUXmY4dO9pjXnvttWbMmDGVevxCH6x58+Zm8ODB9jAzZ840p512WspD9uvXz/Tu3TuyzMMPP2zOO++8yG2luFL3yk477RTZtLPPPtuMGzcucptbee655wb7z5s3z5x44oluk71mTj75ZLv8559/Wq5z5swJtpfSzMYbb2yuu+46e7+qXTfeeKOZOHFi0MSRI0eaddZZxy6//PLLwfUSFCjwjNq29dZb26MMHDjQvP766wU+YuGqf/zxx83KK69sfvvtN3PAAQcU7kDVrGY9g/Uslr300kumf//+VfYMH330UdOgQQOzfPly83//93/m008/rbLnEtXwE044wXTr1s1ueuCBB4yeH6ks3+dwqrrLcVsp/B+wHLlzzhCAAAQgAAEIlAeBaiskfvLJJ6ZmzZq2F6dMmZIgFo4ePdq0a9fOblu2bJlp1KhR2t6W0OSESdWXiW2++ebm2WeftUV///13s8UWW2SyW0mW0UdQhw4dbNskyl5//fUl2c5cGyUxY8SIEXb3jz76KDjXZPWdf/75pmfPnpGbn3jiiaQio9th7NixZscdd7SLo0aNMoMGDXKbEqb6GGrfvr1d9+CDD5ozzzwzYXscC+PHjzfbb799ZFVql9qXyvSR7ITIH3/80TRr1iwo3qdPHzNgwIBg+dBDDzXTpk0Llktppk2bNgkC+ZVXXmluuummoIkSmOvUqWOXX3nlFXPYYYcF2/yZZ555Jnim3HDDDeaaa67xN+c8L1GzSZMmdv9TTjnFSIyrLNN5t2rVyh5OQnA+oo/qEktnEkd//vlnt1jtphKon3vuuUCgzvYEf/31V9O4cWO7m370uvjii+287iPdT1XV3nrrLVOvXj3b/EMOOaRKC+NRfXDZZZeZo446ym665557jMT/VJbvczhV3Zls23333YNnvf6/st1220Xel3pXqK0y/Ti0yy67mLlz59rl/fff3/4AYxdCf5YuXWq++uorM3v2bPPf//7X6H2WzPTsPeKII+zmVM/aZPtrfdz/B0x1LLZBAAIQgAAEIACBciOAkJihkPjOO+8EQmKnTp3M22+/nfZaQUhMi6hkCmQrJMq79MADDwzaL6F5k002scuZCIlPPvmk2WqrrWx5CXG+2BZU+teML9JlUq+/b6bz8hhs2rRpUFyCsRPMEBKzFxLlKbbBBhtYnrfeequ59NJLA7b5zBRTSDzppJMCIUQe3t27d8/5VMpNSNxyyy3NpEmTcualHd2zBSExL4yVunO2QmK+z+F8T07errfccktQTYsWLcyCBQuCZTcT/sFljz32CH5YkLB99dVXu6Ippx9++KHp1atXsK9fWD9Udu7c2a6S4HzQQQf5mzOaR0jMCBOFIAABCEAAAhCAQE4EEBIREjO6cKq7R6K8MdzQM4nEXbt2zYiLKyQhUN53skwEv1ISEt05uOlDDz0UeJ8hJJaOkKh+cZ6j8obN1DPa9Ws+0ziFRLXjvffes0Ob5RHuhmvn075S3rdhw4b2maAQF2FzHnlu/cKFC91sMJUnl8QbGUJigKXkZxQWQsObZbfddpuRl102lu1zOJu6o8oWQkj8+uuvrdfiSiutZNZdd90KXrnvv/++2WeffSo0ByGxAhJWQAACEIAABCAAgZIigJCIkJjRBVndhcSMIKQohJC4k6XD0Ob/xa4rhEdiisuv4JviFhIL3uAqcgA/xEEmP0AgJFaRjo2hmdVBSHSetA7HwQcfbBRTt379+m6VFVj9EBLagJAY4GEGAhCAAAQgAAEIlCQBhMQiCYmKI6fEDe+++27k8KFCXS0u1lk4zpnieCkOlzyFXLwjvw3JhEQNz5XHjbz4ooZB+XUkm3dtkjdOJkPGXT3aT+3W8ZXMRm0vVqy1UhUSNaxyo402Mr/88ouZNWtWRn2U7QesP/waIbF0hUSFWtD9Ivv222+NngGZ3i+lKCTqvt9mm23s0MhsYza659arr76aMQP33IlzGqeQKK9FeT3qGZppv8ZxLq4fpk+fnvB80TtOCceUFCiqPcliJLZu3drGN1aIgFzNtUnXRTbXhtqre0TTb775xsyYMSPXJuS9X7bP4XwPWAiPxLCQqDYqDIjOzcWwnjBhgh3i7LcfIdGnwTwEIAABCEAAAhAoPQIIiUmERGVlXXXVVYMe84egaTiehCvfNIRnv/3281eZcIxEBS/Xf5D1oeQSt2iHL774wih5QpSItu+++yZk6YzKJqzj3H///fbY+vhRDEdnyup59NFH20UlOFBSDPcfeMUQUrZMxXHbdttt3S7m6aefDoZkuZW+kKhzkEeBhiStueaarogRAyWXuO+++4J1/oyyjbpYR6pDQ/aOOeYYK2C6YX8K8n7vvfcmTT6ioZ0adqyhyOGPFGX/lEDy/PPPp01KIoHtjjvuMCussILfRDsvQdLPPFyhQMSKYgqJElSVzEH9qsQM6mPFntI56IPYNwWul0dIqo/rbD9g4xYSlT3bJfZR2xXQv0uXLlb48s8l7vlw7K9ck63EFSNxyJAhNpFB1HmefvrpGSWt0bNBzwA9R9x97+rT/fLBBx/Y+1VJfXyTcOiybWu97nP/XokagqskIBLGokxD+VdfffUKm5S1WTHWUpmyhrt7XckrFIdt7733Nuuvv36wm4QqPV/SZZNX5mvtq3tGJgZK/nDVVVfZmGxumPWpp55aKck/8hUSL7/8cqPET3p+r7LKKsE5SSA97rjjIgW8fN8pSlam4+m+1I8Tbti1lp966ikzfPhwm7TDPXu0XteysqD75guJGqqvd4ESUNWqVcsW++OPP4wSX2mIcNS7UYXiuDbEQ+/utm3bBslfXDv1PtL7WYlBXDIuty08PfLII+17PLxey0q2Ej7/qHL+umyfw/6+ucxXlpCotvmhPT7++GOz5557JjQZITEBBwsQgAAEIAABCECg5AggJCYREvVxmY19//339pd2fx9fSNR6JWyRmBhlEoAkzIUFnkyGsrVs2dI8/PDDttrFixcnHEMfmhILszWJAorr5MwXEt26ZNObb77Z6Lhh04eUsjrKJGBIzKtRo0a4mF3W+UgACZv/gRHe5i+Lo4Q0fehGWVg08stkkrXZL6/5YgqJ+mB/8803gyZJWEiV4EOZn1NlzMz2AzZuIdHPVO1OStdNob2DwtdEsYVEn6vj4KaZZG3W/fXoo4+a1VZbze0WOZVQsttuuyVsO++887IW0y+55JIgzmhCZX8t+IkPwtvSZW1WdmI3FFIx1VySonA9WtZ9KG5hk3CoHzhcjMnwdgmaK6+8crBaQrw8pQpt+QiJ+tFI4qH/I5ff3s8//9z+4OKv03y+7xT90OSySIfrTrWsBFX+89gXElPtt2TJEnPGGWfYOJPhcnFcG77wH67fX1Y29r59+0aKsyqn56q2R1kmWZvD+2X7HA7vn+1yZQqJ/rnpB8idd945obn+e55kKwloWIAABCAAAQhAAAIlQaAshMTJkyebY489NgDuCxX6gNQHd9iuvfbaBI9EeS040xAufcT5Nn/+/ApedGEhUeXlAaOhXvPmzbNeHW6oobbJq1DeF77l+9EXFhL1MSSvD9+TUJ4f+jiUR4bz1FEiBx3bWZSQKO8/nYs8SHbZZZcEXocddpiR95tvvpDo1ouDeOqDWGKG85qSJ4g8N8PDpf0PDH2ASPT78ssvrSApkVZDHZ0pK6S8j6JM3JVV05mG/2622WZ2saoLiWLnOKqPxEn9rXOWcBu3kCgvMOeV9MMPPyR4t0rwOuussxxm602mj/9U5t+frlypCYnyWD788MNd8xKmvjCRT9ZmeR0qc6qzXXfdNRDeMxESJV44gVDPHYnN+ifvX13veg5IhI4SEnXfyAvUmcS7TTfd1C7KG1tev2G7/fbbk3pJKgaaEzR1r8tr1lk2QqLbR4KU7lPFotxhhx3cahPl3aSN8nL1+0vP79dee80+7/Tscl5wrqKqICS6tipsge4p/Ril+9D3du/Xr5/12nNlNc33neILifIE1b3Qvn374JmjY+iHNQlA8hx3PxaFhfkoIVF9Ko9weZvq+e+8YPVc0bmFh0j7QqKOK8v22vDvV/3ApR8RdX3oetU916BBg/9V/Nffu+++20hkjzIJcfKYdSavTSfyIiQ6Kv+b6jnkPFZ1H4aTm/nv+TiExFz+D5jYYpYgAAEIQAACEIAABHwC1VZI1IevG0qnD2U/7p/iJ+lDWqaYbvJySWfyJnQfaBo6nGyolV9PWEiUaKmhyQqq78z/ZT7KqzHfjz5fSHTioMRCxWZ0H3gaSqzhrmKmIUcyCXytWrVyzbSeRv5wUzE75JBDgg87eUXeeeedAfOpU6ea7t27B/trJiwk6gP0+OOPD+qQx4rvBRnl4SR+irEksUkfB2Hr3bt3ghgbJWiG99HyAQccEAxdq+pCos5HAqK8eHzBR/0rUU+iTioxz78mM8nanOp+0rXmxF0NcZTwnM6KJSSqXbqO3TD7cMzNVM8U/5x8YSIfIdGvU/MTJ040TZo0saszERJ9L0B9mA8dOjRcpdH9oWfh1VdfXWGbvyLOGIm6JhRmwVm2QmKYqTxwNTTWWdjzTYKFnjVu6K9+uJCXthOlJCTquVO7dm1XhQ0NUOoeiWqsfiRQ6Arn6ad7Ue8XJ9LomvHZaJ983ym+kCiBVs91//mpY8gzb/z48ca/bv773/8mDJcPC4mPPPKIfT9qf5mGOl944YWBmKhrdNiwYf/b+PffsJCY7bWhaiSA6wcrTaP+L+D/iKZrxg1/T2hIxIJ+qHLCIkLiP4A0zL1bt27BCl0/uo58i0NITPW8TvXO8tvBPAQgAAEIQAACEIBANIFqKyRGn27ua+MQEjXkTkPvfJPHxqhRo+wqeQ05rx9XJt+PPl9I9MUExdRzx5LgJPFIJo8MxYbUcLKmTZu6ZlQQEqPEVA1FVmwxmc5Fw5V8AdcXEuU1J28pf7v201BMCYWy8EehXZnBH4mYLqaazl9DrdOZ/yFc1YVECdbt2rWrwDYdA7c9WyHR7RfXtJhCYhznUApCooQkf7i7hvkrfl2u5gtCUT8SZFNvPkKiQhaEYyqqvjfeeCPwiJb3uf8jg358kHenTM8l3RtKNOObBPMTTjghWFVVPBJ1XuG4lPpRSO2X6QcvP2au1uX7TvGFRMWrlJgXvt7kSStxzg+78cILLySE2fCFxEWLFkUOO5eXvhv2qj6T17xvvpCYy7Xh15VsPnxuCkESJTiG90dINPb/DYopLQ95eZnqupCI50w/eOl+dqK+Wx+HkOjqYgoBCEAAAhCAAAQgED8BhMQMmcYhJMqDL+yRFf6o1oeS/5Gb70efLyRecMEF1pNPp/zYY48FsRR1DHkryjTMaL311rPzTozTgu+VkUxo0weCPH/ccDR5Y/gecb6Q+OKLLxoFpw/bFVdcEayXR0uymFNuP33kaUjyGmus4VbZoWeNGjWyy1HeDkFBb6Y6CYm5eL94KKyo7LxRM/FI9PeNY16eSBrW6JsE+PDHpr+9lOZLQUgUD98jUWEGkiXfyIRdqQiJCjmhhClhmzRpUhCiQkNPNQTVmcoffPDBdlHCk8SvsCm8hepwVhWERA1pltdV2CQcOs+9qPhz+b5TfCFRIpCL6+vHFXbvDt8rX56gnTt3DprrC4nJnlnyXJMHm0w/Pm2xxRbB/prxhcRcro2Eyv5eUAiIDTfcMGG4uxJzOQu/19z68BQhMUwkcVnesuecc06F8CUqhZCYyIolCEAAAhCAAAQgUGoEEBIz7JE4hETnpRE+pPvg19BPZS90H2Yql+9Hny8kaliry2rqe505rxIdT14jbti3P+TQFxIlQvbp00fFK5g8YFz8RX0k+BmcfSHx/9u7EyinqsOP4xcBKYtQEAW0delBsYDiCgruZSmIQJFF1Eq1QEXQ0qOsKgcB64q0tCO0iEi1rRRBoW6ola11QwpURGtdABUEHQXBCm78/79b7zs3b14yyWQS8jLfe47mbXnL52US8stdompnameqHal+vVSSHUcDJqhp57nnnmtq1qxpt032P32hLq/Zpp5bTEFiuEZWMptky/3Xxr4IEpOdV1yWF0qQ6NfulZ360NPfp37MUIiTSQ3FQgkSo2rg6dr8fjrV1FkjC7uigYVcMK3lWh9V3Puw1sUhSIyqgadz9wcNUl9/fn+UWp/tZ4ofJOpYrla5zkfdZfj9DuvHJddXbvgHKD9IDN8znaeKglLX3Ybm/eNp3g8SK/La0D5U1AerXuPq19B1bfC/NWX/n253GQSJZe3cEv0oNGDAgKRdxBAkOikeEUAAAQQQQACBwhQgSEzzvmQbJGpAE9XOiCoaFMR19h9uNpXtlz4/SFQTP/VDpaJ+EdWRvIrfTHnJkiXBeSYLEtX0VLUbo4ofokybNs1MmTIl2MwPEktKSsxtt90WrHMTfjNEDQyjWlR+UfNDhVvpFvV7deONN5a7eb6DRD/kSRaq6qS1zgUB6vtMfUCGS7jpnV9LKLxtOvMEiekoJd/G/xuoaPP8qL1n2keiAncF+ar1HFUULGqfGuCpvNqehRIkJqsN5r+fhbsz8Ls6UO1E1VyLKv77cByCRAXCquUeLn5z4h07dgQ1z9122X6m+EGi/xnh/PRacv0I+u9N4YFw/CAxWdN7//k6/3CI5weJFXltaJ/q+kKfu+kW9Tmpv5vyStyCRA2Yo892V5L98OkH1drW/7zRj5L+D3cTJ060P2Cohqe6FFAw7IJavTY1QI0Lot1x9UiQ6GswjQACCCCAAAIIFJ4AQWKa9yTbIDGqWZY7tPsCpvlcBon+CJ7+F+9Mg8RU4Zz/xS5VkJispmCqIFFfQhSmuUFiZKq+0NRkToPDqF9HFV2n698x1bnajb/5X76DxIULFwajzarGlEZSjip+kJisqXf4y7ZrVhi1v3SWESSmo5R8m0IJEnWGaqapvwd9Yfeb//tnHw54/HVuulCCRNVikm+4+O9n4SDR/3FEAUXUoDPanwagckZxCBL1XhvVTDuOQWKycC7c9UeqILEirw0N9uX/KKbB1/QZo8FrPvjgA9ucWq8NfZapnz+VZOdqV3r/i1uQqBr+fhPudINEvzuWcJAY/izq2bOn7ZrAhYkKpf2+SR0fQaKT4BEBBBBAAAEEEChMAYLENO/LvgoS9eXolltusWeZrAZK165dzYwZM+w24Roofo3EygoSFYJpX1FFoV6jRo3sqlRNmysSJPqjs6p/sAsvvDCyaZQCN9XGUinUIHH+/Pl2IAKdo6Y1UE1U8bdLVnORIDFKbt8tK6Qg0VdQEK8RilXzSAMduS/z2kYDdCiMS1biHCT6IaNqaOp9Kaq4prlaV8xBYrafKbmokZjs9RfuuzJV0+aKBIn+Z4Watp9//vmRtXPffvvt4O+lWINEBYJ+36LJgsRU25UXJOpvSzUW/QA8qu9ogkRJURBAAAEEEEAAgcIVIEhM8974QaL+EazaIOUVv6P5itZI7N27d9AUT190VGsgXPTFxvX7lY8gcd26dbZPqfB5qPaI1rmAItzUzG/aXJEgUf2bqXmUikbzVJPMqOLfq3wFif6I1emMaqvBBRTmqCRrsuzWtW7d2m6n0b2jmnVXdpDoj5SqL326V/ksGmBBtapcUd+hkyZNivyC77YppMdCDRJ9I/nee++95oADDrCLkw124Z7jB4kaUEkhfkVLuJaZ3zw2ap9+LeeKhEV+cPHKK6+Ybt26lTmMRopXdwOuFHOQmO1nSi6CxGTv0/7AMVGfodm+NjT6cp06dext939oc68DPYZfG/kKEvP9Phy+Tr/Jsu/RuXNnoy4bXPH/ftMJEvV5pb6Ynbv60FRNU78UYpCo9x79GOOK+gKdPHmym+URAQQQQAABBBCoUgIEiWnebn8QkmSduod3VRlB4llnnWUUIKmo6a5rsusfy+9vLx9Boo4d9SVDX75Vs8SVcO2RbINE1SZSjSoVDf6icClc/FBV65J9QQ0/L9umzf7oolEjpYaPp/4h3ZenZIMm6Dn+F13VTJ0+fXp4V6ayg0T1IaewQSVZc+oyJ1GJC9RPl2rN+UWDISikjkOJQ5Aox3QHUNK2eq26Pk1TvV61bXkl30Fi+D3B78rBnatGBtbfsCvFHCRm+5mSiyBx69atwYA47h7oUU1t3Y9n7777btCvr9sm2yBRA8DUqlXL7k7NnP2Ru90x/L8TLctXkJjv9+Hw50iyf+f4A6J98skndoAaZ5VOkKht1W/xT37yE/c0W0PR/3G2EINE/99Z7sTD/8Zxy3lEAAEEEEAAAQSKXYAgMc077I/8mayJcXhXlREk+vvQ/vXlQgMGuPLjH/844VfxfAWJ4VoEOk+NnHrwwQfbUwuv18Jsg8Sbb77ZXHTRRXb/Go1UXzD9QSIUMqqJd4MGDew2+l++gkS/XzIdVzUV/FobWuaX8H2Lqm3of4nWc8P9g7n9hb8Ahvulctul++j3U6kBOXRcNVnPVyFIjJbOZLAVhXXqC1DBiN67wkWj6aomrF47KsmCefc8/W35I7AnC13c9qke8x0k6lz8WsqbNm0yF198sdGjSp8+fcytt94a9IGnZcUcJGb7mZKLIFHmGvREXXG4oi47fvvb3wb3JdznrrbLNkjU34eaT6uov12NeO8XhYbXXXedqVatWrA4X0HivngffuGFF0zTpk3ttaqPSNXCU3+RriiE1mesq02o7f0APt0gUe87+jfC/vvvb3etH190LFcIEp0EjwgggAACCCCAQGEKECSmeV/GjRtn1LzPFQ3usX79erN9+3a7SPPqXN0v/he2qGZZbttUg61om2XLlpkjjjjCbW70RW7Xrl02BHBNfd3KfAWJOp5qc+jcateubfSlz4USWqeRQZcuXarJoGQbJPpN8rRT9ZO4YsUKO9DKt7/9bXsOrkN8d9CoIFEDUPj3Utu2aNHCnHLKKfZpu3fvNhpwxC+qhTVr1ix/UZlpP+jRyg0bNhgFnirap0z84g8CoeX6wqZad/pypT4eNdKlK6maS1d2kKj96YudG0lcr12dm15bKhqUIpdNuoopSJSXc9N0sqKavAr2XFGg0bx5czdrHxV4uXuycuVKo/cNvyiIceGY/97z8ccf278T9fPWuHFjo6BZ/Z+5MED76NWrV8qwWOGfjqlHFTU3X7t2rVHt2y+++MIuU9cD+pElXNQc35231un9wh9teMGCBfZv2T1P4bVGe3Ul27BI+xk1apQZNmyY26Wt3f3aa69ZAwVJrjsGt0ExB4m6xmw+U3IVJOq8VPNfryu996kWsns/1w9Gen/2fzjS9tm+NsI1URWeaZ8aSVhdSqjGWbhEBYmqQd2pU6eETfXZrM8aFf1d6j3cL3IMf0b66/fF+3A4CJT3qlWr7OeY3jfU/NmFf3oP0Pb+33z4+al+1PK7HNB1+30l+kGi1qXzHqr+hFXTMVeFGom5kmW/CCCAAAIIIBBHAYLENO+avkDri4C+iEeVjz76yP4j21/nf5nPJkhUAOV/sfaPoWl9mT/kkEPs4nwGieHzcPPJRiHONkjU/lXrMerLnTu2QojS0tLAIypI9Aencc8r71FNjDWidqqiTuhVC1FBSVQJf6lSLS+FL+7LctRztEyhsc7ZhUTh7So7SNT+1V+Y+n30a+K44ybrI9Otz/ax2ILEdDxU68kf6OCJJ55I6I8rnX1ceeWVQRjpv/eU99zy+kd0z9drQs0akxV1NaCajeGycePG8KJy5/1+17INi9zB1NenmjVHFTWtVdjpajMXe5CYzWdKLoPEqHujz071AezXiHXbZfva0Oe6fozSe2iy8t5779nPfdcEOipI1Gv/0ksvTbaLyOVRtdDDG+6L92G/C5Hw+fjzUe8bmQSJeo9SjdDq1avb3f7jH/8IWhyEg0T/uMmmc90Nh/qGdf/OcueQbEAat55HBBBAAAEEEECgWAUIEjO8s/oSoaaehx56aEKNnqh+8dR8UP841j+UFQa1atUq8miqgaEadfqFX02HogKj4cOHG/VZ5IdOquWmmiUlJSVGIykr9FFNCj9o80c69r8AuX6f9u7da2tSuOZLjz32mD1PfXk77rjjghogalbWs2dPe/6qxaHaIQrO3JcArVAfjgoLtW1U8WsgqCmhtg0XnaMbOCbqi4G++E2YMME2RwzXIpKbaj+pZogGelGJGtTF7yMsfPxk82raq1pb5RV9OdL5q1N23X8XxCngPProo8s8XdurFkW4Zqk21OtBBgqRFY4mKzJR0029NpIdJ9lzUy3v0qWLGTRokG3617Bhw2BT1UxT7bhcFfUD6Q+IodeomrGrVmgcit9cMt3zVTPGhx56KNg8qvZLsDLJhF8LWK8JNRPVe4Frqhh+mvqcUzNFhdnpFtWU1d+oBgrSQC3++1GykXf13uJqMaVzHA1i4Jqbanu/9lxU/4baRrWFO3bsqEnbFNUPZe3Cb/6nsFWhvP4+a9asaWszq0aV3rMUjLhAKdmgLv6+KmNax3SDLiUbld0/jv7upkyZYhepNlu4lrNW6Noef/zxyM8Df18V/UzRZ83xxx9vwp8Ra9asMXqfUK0+N1iS/96k9yiNiuyKC2b0960a4hpNW++HftH7nn7QSFZzrzJeG3qtqdsMVyPdHV/Xpx9NFCrrxw3VWleJem3ota/tMinhptzJnrsv3of1vq8Q0wXr/rnp3zrqr1evg3BRLVL3uZ7OZ5EM3A90/uvJ78YkfIxk8/qRUTWPc1FUs1SBs1+S/f352zCNAAIIIIAAAggUqwBBYozurL6U6Quamjnry7man+7LovPRl+CDDjrINndVIJqvoi/8xx57rG2mqebDahIXbvaWr3OpjOPIUtejL9L6QqX7q6bjcb6mynBhH9kL6EvwkUceaQNF1bpTDSvVEnQ/HmR/hHjuQe8hfkCvpt/ux4mqUtOo0D5T9ONLhw4dbAiqJrX5/PFA770KC9XPbyF8vhbCX5VCVv0AppYY+pFS3QFE/dBZCOeay3PQD5N+1zUKvzVAW1wGAMulDftGAAEEEEAAgaopQJBYNe87V40AAggg8I2AapmplpWKanq72mffrOYBAQSqsIAG/fFr06o/ZNXMpiCAAAIIIIAAAlVVgCCxqt55rhsBBBCoIgKqfaguIDTAkZo9+zV9VctbzTGbNGliNTTojZpAUxBAAAEJ+H1xfvXVV0bNzat6jW5eGQgggAACCCBQtQUIEqv2/efqEUAAgaIXUBNN9V2polGm33zzTaNAQEW1D11fj+rXTX2oqhknBQEEEFCTd/0A4Qo/NDgJHhFAAAEEEECgKgsQJFblu8+1I4AAAlVAwA8Sk12uRrzXYE1Rg0gkew7LEUCg+AU0IJr6E1XfiBrArSr2E1n8d5krRAABBBBAAIFMBAgSM9FiWwQQQACBWAoMHTrUtG3b1g4e0ahRI1OnTh2zfft2o0FWNIiERqP3B1+J5UVy0ggggAACCCCAAAIIIIBAjgUIEnMMzO4RQAABBBBAAAEEEEAAAQQQQAABBBAoBgGCxGK4i1wDAggggAACCCCAAAIIIIAAAggggAACORYgSMwxMLtHAAEEEEAAAQQQQAABBBBAAAEEEECgGAQIEovhLnINCCCAAAIIIIAAAggggAACCCCAAAII5FiAIDHHwOweAQQQQAABBBBAAAEEEEAAAQQQQACBYhAgSCyGu8g1IIAAAggggAACCCCAAAIIIIAAAgggkGMBgsQcA7N7BBBAAAEEEEAAAQQQQAABBBBAAAEEikGAILEY7iLXgAACCCCAAAIIIIAAAggggAACCCCAQI4FCBJzDMzuEUAAAQQQQAABBBBAAAEEEEAAAQQQKAYBgsRiuItcAwIIIIAAAggggAACCCCAAAIIIIAAAjkWIEjMMTC7RwABBBBAAAEEEEAAAQQQQAABBBBAoBgECBKL4S5yDQgggAACCCCAAAIIIIAAAggggAACCORYoGiDxDlz5pgGDRpYvuXLl5s777wzoLzmmmvMGWecYed37NhhBg4cGKwrb2LQoEGmX79+drO//OUv5u677y7vKeWu1/ntv//+Zs+ePeass85K2L5Hjx7m8ssvt8u+/vprM3jwYFNaWmrnmzVrZkpKSsx+++1n53UujzzySMLzC2lm7Nixpl27dvaUtm3bZoYMGRKcXpcuXczQoUPtvK5zxIgRZtOmTcH6XE+ccMIJ5tZbb7WHWb9+vT1+ro+Zq/3/6le/Mi1btrS7HzdunHnppZdydSj2GxI47LDDjPzd3+Rdd91lnnzyyWAr/Y02btzYzj/33HPBay7YgAkEEEAAAQQQQAABBBBAAAEECligaIPEN998V4bDfQAAGIpJREFU09SoUcPSL126NCEsvO+++8yZZ55p133xxRemefPmad+im266yVxyySV2+z/+8Y9GQU02pW7dukbBlSuHH364m7SP1157rbnqqquCZeedd55Zt26dnW/Tpo1ZtGhRsO7Xv/51QmAarCiQCQWvLkjcuXOnad26dXBmw4cPNyNHjgzm+/bta1588cVg3k3ccsstZsCAAXb2+eefN/3793ersnrs3r27DWW1k9dff9106tQpq/1l+mQFmS741us1m6LgqkWLFnYXw4YNK+hwOZvrDD/34YcfNnJMp3z11VemQ4cOZsuWLcHmer01adIkmNfERx99ZDZu3Gg2bNhg3njjDTN79mzz6aefJmzjz5x66qlm7ty5wSK9XqdPnx7M629df/Mqlfn6DQ7ABAIIIIAAAggggAACCCCAAAI5FCBIJEjM4csrcdeVESQqLO3Vq5fd8Zo1a0zPnj0TD1LBuX0dJP7rX/8KgkTVQl27dm0Fr8TYGnBVMUhcvHixOeaYY9J2U61kv9bryy+/bOrXr5/y+QoWJ0yYYBYuXBi5HUFiJAsLEUAAAQQQQAABBBBAAAEEikSAIDHDIHH06NFGzZtVZs2aZVTjKJtCjcT/6aVbIzFXQaKalLtm6grx+vTpk81tzfi5lRkkPvjgg0a1VVXUFD7bGo4ZX8w+eoK6M3DXrVNo2LBhwpl8/PHHwbxqJHbu3DnoJkAr/CDx888/N7t27TKNGjUKnuNPPPTQQ5HN3wkSfSWmEUAAAQQQQAABBBBAAAEEik2AIDHDILGyXwAEif8T3ddBYmXf10z3V5lBYqbHLtbtb7jhhiD0f+edd8zpp5+e8lL9IPGOO+4wv/nNb2wz5KOPPtr07t3bdmng+j7UjtTFwYoVKxL2SZCYwMEMAggggAACCCCAAAIIIIBAkQkQJOY5SDz55JNN7dq1gwCCIPF/f1FxDxI18M2RRx5p6tSpYz744APz7rvvJtR2K+99oxCDRIViCs5UQzNVv4Dha5NFq1atbF+TftPh8Ha5nq+MINE/R3moj0TdY5WopvUEib4Y0wgggAACCCCAAAIIIIAAAsUmQJBYTpB40UUXGQ1YEVU02IpGZS2vKFhR7abjjz/e1KxZ027+5Zdf2kFWJk2aZObNmxfsIteDrWhU2QULFgSjyurAGpxjzJgxwTnkaqKQ+kg86qijbChUrVq1Mpf7yiuvJIwoXWaDbxYoBP75z39uLr74YlOvXr0ym23evNk8/fTTRoFWuGjEXgXKrvjNcDUAkJrV+kX76tatm78omL799ttN+/btg3l/4he/+EXkoDVuG/UNOXnyZDur2nX33HOPuf76682xxx5ratWqZZfv3bvXvPDCC3b08FSB4pVXXmkuu+wyc/DBB7vdmw8//NA88MAD5rPPPgsGydFgRzNmzAi2ydVEZQeJOk+N7H3hhRcGp6zrfeaZZ4J5gsSAggkEEEAAAQQQQAABBBBAAIEiFCBILCdIDI+a7L8G0hm1WaPIqi/FAw880H9qMK2AxQ+Uch0khkd61omoD72BAwcG55SriUIKEsOBj3/N6Y7a/MQTT5jvf//7/lMjp3Usf3RgbaSRgDMpGuQj2YjEvmt4n+WN2qz7PnHiRPu0999/34aHfqjp708jF6svyaiiMLNfv35Rq8os+8Mf/hAZrpbZMMsFuQgSFUA/9dRTxgXQ4ZHSw68rRm3O8ibydAQQQAABBBBAAAEEEEAAgYISqBJBomoMqeaQKxqU4eyzz7azGlRB4UCy0qVLF9sXmluvmlouaEknSFyyZIn53ve+555uB3T4z3/+Y5ephmK4hIPEa665xlx99dXBZuedd55Zt26dnQ+HguFQI3iSNxF+jlblK0icO3euUdCi8sknn9hab3bm//+nwGvUqFFu1vTt2zeyJl1lDbaimpk33XRTcLzvfve7tmmyFqQTJOqe6N64opBt+fLl5r///a855JBDTOvWrYP7HhUkTp06NSFA7tq1q9uVWb16tVGo5xc1l46q2ahtVOvwxBNPDDbv0KGDqV69up3PJEh0O9A1vPjii2bPnj32fjVo0MCtsq/F8IjFGjl72rRpwTaqtfjss88a/W3p2sMhepyDRF3kypUrg1qXqk2sHxtcySRIVK1Uv3aj2wePCCCAAAIIIIAAAggggAACCBSqQNEGiaopdsABB1h3DbTg1whTU2MFRyo7d+40r776qp1O538KnzTIgkp5QaKajZaUlAS71ajAasrsysiRI436BvRLOEhU81n1N6fy9ddfm5deesnf3KjPRTcAhJrkpmp6qifuyyAxlXt51+kuurKCRLc/9+jfq3SCRDUPP+mkk+zT//73v9vmzW5f7lG19374wx+asWPHukVJHyuzj0Q1VW/RooU9VqZBoppQX3rppUZht4ru2aOPPhqEgdq3RoL2i18zU02Z9ffh/qYUIs6fPz8IafW8uAeJ/vUqMB0wYIDPkfJvMtX7UsJOmEEAAQQQQAABBBBAAAEEEECgAAWKNkjMlXUmQeKf/vQno9phKhp04owzzihzWn7oo5XhILHME7JcsC+DxCxP3T69UIJEv6apariOHz8+q8srlCBRtRsVkvpFQegVV1xhF2nglR49egSrFWQrKHTluuuuM/fff7+btY8dO3a0zfvdwrgHif7f9dtvvx3UbnbXxyMCCCCAAAIIIIAAAggggAACxSpAkJjhnc0kSFRNNVfzUYOt3HHHHWWONnTo0ISBTnIdJKqGmF8rUiekgTQUhsWhFEqQqPBMIZrKtm3bjAblcbX4KuJYCEGimjRH9fmo4FCvXxXVWDzttNOCS+zfv7+57bbb7Lxqw7Zs2TJY50+oJu1BBx1kF8U9SPz9739v1OWByvbt220tXzvD/xBAAAEEEEAAAQQQQAABBBAocgGCxAxvcCZB4htvvBGM0qwRbdVENFxUS9GvwZXrIDF8/LjNF0qQqJp3Q4YMCfg0svFrr71mVq1aZfs4VI3F0tLSYH15E4UQJL711lvmnHPOKXOqfr9/6ruxXbt2wTb+YES6fhewBRt8M+EPCBP3INGvkZhqAJqwAfMIIIAAAggggAACCCCAAAIIxF2AIDHDO5hukKiaf//85z+DvasfNfWnFi4a6OXpp58OFhMkBhSRE4USJKpPx8cee8wcccQRkeepYHHNmjW2f0TXX2Dkht8sLIQgUbUGL7jggjKn6Tdf3rFjhznuuOOCbe68887gOVH9BboN/fAt7kGi30ciA6a4O8wjAggggAACCCCAAAIIIIBAVRAgSMzwLlc0SNQAFsuWLStzNI3orNprrhAkOonox0IJEt3ZjR492vYZ+J3vfMctSnj87LPPTOfOnW0fmQkrQjOFECRqpGaNlh0uqYLE22+/3fTr188+5fnnnzdq6hxVZs+ebc4991y7Ku5BYqpRm6OunWUIIIAAAggggAACCCCAAAIIFIsAQWKGdzLdIFG79Zs2qxns4sWLyxytffv25s9//nOwnCAxoIicKLQg0Z2kRjdW34FnnnmmHam5du3abpVZuHChufrqq4P5qIm4BokjRowwGqBFRa/3H/zgB1GXZwdwcaNcxzlIVA3ip556ylSrVs1ep16PqpVJQQABBBBAAAEEEEAAAQQQQKAqCBAkZniXMwkS1dTz0EMPtUfQQCtuwAr/kJdddpmZMGFCsCjXQaKa5N5www1mv/32C46pJq3qwy4OpVCDRN9OzdrVlPeYY46xi19//XXTqVMnf5My036QqFqBqh1Y0eKPBD5s2DDzyCOPJN3VwIEDzcSJE+36itRI7NOnj5kyZYp9/ueff26OP/54o0FXwuXll1829evXt4vjHCT6NTB1Mfr7feaZZ8KXyzwCCCCAAAIIIIAAAggggAACRSlAkJjhbc0kSJw7d67RQBUqycKkRYsWJYz6musgsU2bNkbH9MvSpUuNAqU4lDgEiXIcPHiwuf766y1peICSKGd/hG/V8FuwYEHUZmkty2eQqFGe1WegKxrBuaSkxM3ax969e5upU6cGy+IaJKr28D333GNcbVP1gdmzZ8/guphAAAEEEEAAAQQQQAABBBBAoNgFCBIzvMOZBIl+bS0dZtKkSebuu+8OjujXBnMLCRKdRPRjoQSJt9xyi3nnnXfMvffeG1kDb/78+UZ9C6qotuH5558ffUHfLJ03b55p27atnUs26EnKHXgr8xkk6rAPPPCAbdatafUJqRHKXS09BY2qndmoUSOttiVOQaJq8OoafvSjH5mLLroooSbvJZdcYlasWOEui0cEEEAAAQQQQAABBBBAAAEEil6AIDHFLT777LPLNElVH3iHHXaYfdamTZvM8uXLE/ag/tNUw88Vv3mzlinkUe1E9bWmQThcX2tue4JEJxH96AeJ2kKjCJdXFOrdeOONwWa6fz/72c+CeU20aNHCnHLKKXbZ7t27zYMPPpiw/q233jKzZs0KlrkBN9ScV7UJ1T9gjRo1TNOmTU27du2Mmje7oqa/06ZNc7ORj+PGjUs4p23btpn169eb7du32+01rxA7XNS0tnnz5gmLFWB/61vfsst0nv/+978T1v/ud78LBn/xw+yKNG3Wjs844wxz//33B8f46quv7Gt8z549NoSrVatWsE4TuQoS77vvvoTavQ0aNEg4rv9a+frrr21/jqWlpcE2fvPrL7/80gbE4X24jVVj1PUN6ZbxiAACCCCAAAIIIIAAAggggECxCxAkprjDqkGo0ZYzKeGQRGHkXXfdZVSzKZ1CkJhaKRwkpt76f2vVlPuqq64KNu3atauZMWNGMJ/OxKuvvmoHUXHbuiDRzSd7VDjVvXv3ZKuD5Xp9KJRu3LhxsMyf+Oijj8wJJ5zgL7LTalasGnOZFNUYfPTRR+1TKiNI1I4GDRpkFIZWr169zKkolFPorhHKVcJ/I2WeUMEFGszI9UuZzi4UgOq8XPGDRLcs/Kjgcfz48Sn7nQw/h3kEEEAAAQQQQAABBBBAAAEEikWAIDHFnRw7dqy54oorUmxRdpVqe/3yl79MWNG6dWsbJoZDwq1bt5pRo0bZmm6qzababaqpmMuiMEfNTv2akAqVFC7Fodx88822iWkm56q+KuXsyllnnWXDLDefzuPq1atNr169gk1Hjx5tOnbsaO+Xb+k22LVrl62lp5qIUYOPuO3Cj+pbsX///naQnjp16gSrN2/eHDQfDhb+/8TDDz8cGTD624SnFR66WrN+83st07pwUVD5+OOP29fMli1bgn4/w9uphu3ll19ujj32WFOvXj173XLTqOQ9evQwXbp0sU/RoEMafKiySyYWqjWpGqh+jUTVyGzSpEnCaX344Ydm48aNRjVS9d+cOXMyup8JO2MGAQQQQAABBBBAAAEEEEAAgZgLECTm8QY2a9bM9oOnZqeq0aZgghJvATVhVvire6tmsAqeNmzYYNatWxfvC8vy7OXih3QLFy60Izprt9dee61Rn5AUBBBAAAEEEEAAAQQQQAABBBCIlwBBYrzuF2eLQOwE1CflkiVLbB+SOvkLLrjAaEAZCgIIIIAAAggggAACCCCAAAIIxEuAIDFe94uzRaAgBdTn5LvvvmtHaPZr2qpm4syZM81JJ51kz/u9994z7du3L8hr4KQQQAABBBBAAAEEEEAAAQQQQCC1AEFiah/WIoBAGgLqC7FRo0Zm7969tk9BhYq1a9e2g5/4Aw1ppGONeExBAAEEEEAAAQQQQAABBBBAAIH4CRAkxu+eccYIFJyACxKTnZhGbp49e7aZPHlysk1YjgACCCCAAAIIIIAAAggggAACBS5AkFjgN4jTQyAOAn379jWnn366Oe6444yaM9evX9/s3r3bDjyjps5q3qywkYIAAggggAACCCCAAAIIIIAAAvEVIEiM773jzBFAAAEEEEAAAQQQQAABBBBAAAEEEMibAEFi3qg5EAIIIIAAAggggAACCCCAAAIIIIAAAvEVIEiM773jzBFAAAEEEEAAAQQQQAABBBBAAAEEEMibAEFi3qg5EAIIIIAAAggggAACCCCAAAIIIIAAAvEVIEiM773jzBFAAAEEEEAAAQQQQAABBBBAAAEEEMibAEFi3qg5EAIIIIAAAggggAACCCCAAAIIIIAAAvEVIEiM773jzBFAAAEEEEAAAQQQQAABBBBAAAEEEMibAEFi3qg5EAIIIIAAAggggAACCCCAAAIIIIAAAvEVIEiM773jzBFAAAEEEEAAAQQQQAABBBBAAAEEEMibAEFi3qg5EAIIIIAAAggggAACCCCAAAIIIIAAAvEVqPQgsVmzZuanP/2p2b17t9m2bZt5//33zapVq0xpaWl8lThzBBBAAAEEEEAAAQQQQAABBBBAAAEEqrhApQeJ3bt3NyUlJQmsX375pZk3b54ZM2ZMwnJmEEAAAQQQQAABBBBAAAEEEEAAAQQQQCAeApUeJHbs2NHMmjUr8uqHDRtmHnnkkch1LEQAAQQQQAABBBBAAAEEEEAAAQQQQACBwhWo9CBRl1q3bl1z4IEHmpNPPtmMHz/eNGzY0AosXrzYDBkypHA1ODMEEEAAAQQQQAABBBBAAAEEEEAAAQQQiBTISZDoH2nkyJFm+PDhdtHatWtNjx49/NVMI4AAAggggAACCCCAAAIIIIAAAggggEAMBHIeJPbu3dtMnTrVUmzevNmcdtppMWDhFBFAAAEEEEAAAQQQQAABBBBAAAEEEEDAF8h5kOj3mbh161bTtm1b//hMI4AAAggggAACCCCAAAIIIIAAAggggEAMBAgSY3CTOEUEEEAAAQQQQAABBBBAAAEEEEAAAQT2tQBB4r6+AxwfAQQQQAABBBBAAAEEEEAAAQQQQACBGAjkNUjctWuXadWqVQxYOEUEEEAAAQQQQAABBBBAAAEEEEAAAQQQ8AVyHiS2adPGLFq0KDjmiSeeaEpLS4N5JhBAAAEEEEAAAQQQQAABBBBAAAEEEECg8AVyHiTWrVvXrF+/PpCYM2eOGT9+fDDPBAIIIIAAAggggAACCCCAAAIIIIAAAggUvkDOg0QRzJw503Tu3DnQWL58uXnuuefMli1bzM6dO83TTz8drGMCAQQQQAABBBBAAAEEEEAAAQQQQAABBApPIC9BomoljhgxwvTo0cM0bdq0jMLhhx9eZhkLEEAAAQQQQAABBBBAAAEEEEAAAQQQQKBwBPIWJE6YMMF069bN1KtXL+Hq9+7da4444oiEZcwggAACCCCAAAIIIIAAAggggAACCCCAQGEJ5CVInD17tjn33HODK1+5cqX561//ajZs2GC2b99u1q5dG6xjAgEEEEAAAQQQQAABBBBAAAEEEEAAAQQKTyDnQWJ4sJUnn3zSDB48uPAkOCMEEEAAAQQQQAABBBBAAAEEEEAAAQQQSCqQ8yDx1FNPNXPnzg1O4JxzzjFvvfVWMM8EAggggAACCCCAAAIIIIAAAggggAACCBS+QM6DxI4dO5pZs2ZZiU8//dS0bNmy8FU4QwQQQAABBBBAAAEEEEAAAQQQQAABBBBIEMhrkLh161bTtm3bhBNgBgEEEEAAAQQQQAABBBBAAAEEEEAAAQQKX4AgsfDvEWeIAAIIIIAAAggggAACCCCAAAIIIIDAPhfIeZDYs2dPM23aNHuh1Ejc5/ebE0AAAQQQQAABBBBAAAEEEEAAAQQQQKBCAjkPEocPH25GjhxpT06DrGiwFQoCCCCAAAIIIIAAAggggAACCCCAAAIIxEsgp0FimzZtzPTp082hhx5qVf72t7+Zyy+/PF5CnC0CCCCAAAIIIIAAAggggAACCCCAAAIImEoPEtu3b29KSkpM/fr1TY0aNRKIJ0+ebGbOnJmwjBkEEEAAAQQQQAABBBBAAAEEEEAAAQQQKHyBSg8Su3fvboPE8KU/++yzZsCAAeHFzCOAAAIIIIAAAggggAACCCCAAAIIIIBADAQqPUg86qijzJgxY8yePXtMaWmp/W/ZsmVm9erVMeDgFBFAAAEEEEAAAQQQQAABBBBAAAEEEEAgSqDSg8Sog7AMAQQQQAABBBBAAAEEEEAAAQQQQAABBOItQJAY7/vH2SOAAAIIIIAAAggggAACCCCAAAIIIJAXAYLEvDBzEAQQQAABBBBAAAEEEEAAAQQQQAABBOItQJAY7/vH2SOAAAIIIIAAAggggAACCCCAAAIIIJAXAYLEvDBzEAQQQAABBBBAAAEEEEAAAQQQQAABBOItQJAY7/vH2SOAAAIIIIAAAggggAACCCCAAAIIIJAXAYLEvDBzEAQQQAABBBBAAAEEEEAAAQQQQAABBOItQJAY7/vH2SOAAAIIIIAAAggggAACCCCAAAIIIJAXAYLEvDBzEAQQQAABBBBAAAEEEEAAAQQQQAABBOIt8H/kHDDBkCFzZQAAAABJRU5ErkJggg==;" vertex="1" parent="1">
          <mxGeometry x="130" y="650" width="469.28" height="237.17" as="geometry" />
        </mxCell>
        <mxCell id="4MF8Dx08B7OnVR2biEJO-24" value="QUADTREE FOR LISTINGS" style="text;html=1;strokeColor=none;fillColor=none;align=center;verticalAlign=middle;whiteSpace=wrap;rounded=0;" vertex="1" parent="1">
          <mxGeometry x="321" y="40" width="186" height="30" as="geometry" />
        </mxCell>
      </root>
    </mxGraphModel>
  </diagram>
</mxfile>
